<?xml version="1.0" standalone="no"?>
<!DOCTYPE svg PUBLIC "-//W3C//DTD SVG 1.1//EN" "http://www.w3.org/Graphics/SVG/1.1/DTD/svg11.dtd" >
<svg xmlns="http://www.w3.org/2000/svg" xmlns:xlink="http://www.w3.org/1999/xlink" version="1.1">
<metadata>
Created by FontForge 20200427 at Wed Jul 18 21:29:47 2012
 By www
Copyright (c) 2009 by Mark Simonson. All rights reserved.
</metadata>
<defs>
<font id="GoldenbookW01-Reg" horiz-adv-x="484" >
  <font-face 
    font-family="GoldenbookW01-Reg"
    font-weight="400"
    font-stretch="normal"
    units-per-em="1000"
    panose-1="0 0 0 0 0 0 0 0 0 0"
    ascent="742"
    descent="-258"
    x-height="344"
    cap-height="661"
    bbox="-138 -256 1019 888"
    underline-thickness="20"
    underline-position="-153"
    unicode-range="U+000D-2122"
  />
<missing-glyph horiz-adv-x="0" 
 />
    <glyph glyph-name=".notdef" horiz-adv-x="0" 
 />
    <glyph glyph-name=".null" horiz-adv-x="0" 
 />
    <glyph glyph-name="uni000D" unicode="&#xd;" horiz-adv-x="0" 
 />
    <glyph glyph-name="space" unicode=" " horiz-adv-x="209" 
 />
    <glyph glyph-name="exclam" unicode="!" horiz-adv-x="218" 
d="M151 656l-38 -515h-11l-38 515h87zM159 39q0 -20 -14.5 -34.5t-34.5 -14.5q-21 0 -35.5 14.5t-14.5 34.5q0 21 14.5 35t35.5 14q20 0 34.5 -14t14.5 -35z" />
    <glyph glyph-name="quotedbl" unicode="&#x22;" horiz-adv-x="365" 
d="M139 656l-29 -260h-10l-29 260h68zM294 656l-29 -260h-10l-29 260h68z" />
    <glyph glyph-name="numbersign" unicode="#" horiz-adv-x="523" 
d="M503 401l-113 2q-9 -20 -15 -34t-11 -25l-9 -21q-3 -7 -7 -18q-4 -9 -9.5 -21.5t-12.5 -29.5q21 0 45 0.5t51 1.5v-48q-32 1 -61.5 1t-52.5 2q-16 -38 -36 -86t-44 -104l-30 14l78 176h-128l-79 -190l-30 14l76 174q-21 0 -44.5 -0.5t-50.5 -0.5v48q33 -1 62 -1.5
t52 -0.5q8 19 14.5 33.5t11.5 25.5l9 21q4 7 8 18q4 9 9 21.5t12 28.5q-21 0 -45 -0.5t-52 -0.5v48q34 -2 63 -2t52 -1l36 85.5t44 103.5l30 -12l-77 -177h127q17 38 36.5 85.5t42.5 103.5l30 -13q-22 -51 -41.5 -95t-34.5 -80q20 0 44 0.5t50 1.5v-48zM230 403
q-8 -19 -14 -33.5t-11 -25.5l-9 -21q-4 -7 -8 -18q-4 -9 -9.5 -22t-12.5 -30h129q8 20 14 34.5t11 25.5l9 21q3 7 7 18q4 9 9 21.5t13 29.5h-128z" />
    <glyph glyph-name="dollar" unicode="$" horiz-adv-x="569" 
d="M498 174q0 -41 -14.5 -73.5t-39.5 -57t-58.5 -40t-71.5 -21.5q0 -5 0.5 -16.5t0.5 -24.5t0.5 -24.5t0.5 -17.5h-48v16.5t0.5 24t0.5 24v16.5h-5q-26 1 -52.5 7.5t-50.5 16.5t-44.5 23t-33.5 26l-16 90l8 4q34 -67 84 -99.5t97 -36.5l13 -1q2 119 2.5 199t0.5 105
q-35 15 -69 30.5t-61 36t-43.5 48.5t-16.5 67q0 42 14.5 74.5t39.5 55.5t59.5 35.5t73.5 14.5v16.5t-0.5 24.5t-0.5 24v16h48q0 -5 -0.5 -16.5t-0.5 -24t-0.5 -24.5t-0.5 -17q45 -4 79 -19.5t57 -37.5l9 -77l-5 -5q-26 52 -61.5 77t-78.5 31q-2 -87 -2.5 -153t-0.5 -107
q34 -14 68 -31t60 -41t42.5 -57t16.5 -81zM430 152q0 28 -9.5 49.5t-26 39t-38 30.5t-46.5 25q1 -34 1.5 -107.5t2.5 -176.5q53 11 84.5 49t31.5 91zM271 401v104t-2 140q-52 -2 -87.5 -32.5t-35.5 -81.5q0 -27 10 -46.5t27.5 -34.5t40 -26.5t47.5 -22.5z" />
    <glyph glyph-name="percent" unicode="%" horiz-adv-x="715" 
d="M674 128q0 -33 -12.5 -59.5t-33 -45t-47.5 -28.5t-56 -10t-56 10t-48 28.5t-33.5 45t-12.5 59.5t12.5 59t33.5 44.5t48 28.5t56 10t56 -10t47.5 -28.5t33 -44.5t12.5 -59zM522 654q-33 -74 -59.5 -135t-46.5 -106q-23 -52 -41 -93q-17 -41 -39 -93q-19 -45 -44.5 -106.5
t-56.5 -136.5l-42 18q32 74 58.5 134.5t46.5 105.5q22 52 40 94q16 37 36 85q17 41 40.5 97t52.5 125q-13 -11 -32 -18.5t-41 -10.5t-44.5 -2.5t-42.5 6.5q31 -36 31 -89q0 -33 -12.5 -59.5t-33 -45t-47.5 -28.5t-56 -10t-56 10t-47.5 28.5t-33 45t-12.5 59.5t12.5 59
t33 44.5t47.5 28.5t56 10q51 0 91 -28q21 -7 48 -11t54.5 -1.5t53 12t42.5 29.5zM274 529q0 59 -23.5 91.5t-61.5 32.5q-37 0 -61 -32.5t-24 -91.5q0 -60 24 -92t61 -32q38 0 61.5 32t23.5 92zM609 128q0 59 -23 91t-61 32t-61.5 -32t-23.5 -91q0 -60 23.5 -92t61.5 -32
t61 32t23 92z" />
    <glyph glyph-name="ampersand" unicode="&#x26;" horiz-adv-x="664" 
d="M687 317q-10 -11 -22.5 -22.5t-29.5 -20.5t-40.5 -13.5t-54.5 -1.5q16 -15 24.5 -42.5t8.5 -45.5q0 -33 -14.5 -67t-43.5 -62t-73.5 -45.5t-105.5 -17.5q-48 0 -95 13.5t-84 40t-59.5 66t-22.5 90.5q0 27 10 56.5t32.5 56.5t59.5 49t90 33q-24 8 -46.5 22t-40 32t-28 40
t-10.5 46q0 38 15.5 66.5t40.5 47.5t56 28.5t63 9.5q56 0 90 -14t61 -39l11 -71l-5 -3q-28 52 -61 75t-84 23q-46 0 -79 -33t-33 -91q0 -27 9.5 -50.5t25.5 -41t36 -28t41 -10.5v-19h-15q-44 -4 -75 -20t-50.5 -40t-28.5 -54.5t-9 -61.5q0 -47 16 -82t43 -58.5t62.5 -35.5
t73.5 -12q58 0 97 16.5t62 40.5t33 51.5t10 48.5q0 38 -18.5 66t-53.5 28q-28 0 -44 -12.5t-24 -22.5l-8 6q8 14 22.5 29.5t35 28t45.5 19.5t54 5q29 -3 49.5 -3.5t35 1t23.5 5t15 8.5z" />
    <glyph glyph-name="quotesingle" unicode="'" horiz-adv-x="210" 
d="M139 656l-29 -260h-10l-29 260h68z" />
    <glyph glyph-name="parenleft" unicode="(" horiz-adv-x="300" 
d="M276 -109q-39 21 -75.5 61.5t-64.5 96.5t-44.5 127t-16.5 152t16.5 152t44.5 127t64.5 97t75.5 62l4 -9q-28 -18 -53.5 -54.5t-45 -90.5t-31.5 -125.5t-12 -158.5t12 -158.5t31.5 -125.5t45 -90.5t53.5 -54.5z" />
    <glyph glyph-name="parenright" unicode=")" horiz-adv-x="300" 
d="M225 328q0 -81 -16.5 -152t-44.5 -127t-64 -96.5t-75 -61.5l-5 8q28 18 53.5 54.5t45 90.5t31 125.5t11.5 158.5t-11.5 158.5t-31 125.5t-45 90.5t-53.5 54.5l5 9q39 -21 75 -62t64 -97t44.5 -127t16.5 -152z" />
    <glyph glyph-name="asterisk" unicode="*" horiz-adv-x="377" 
d="M317 590l-108 -50q13 -7 39 -19.5t69 -32.5l-20 -33q-39 27 -62.5 43t-35.5 24l9 -119h-39q5 48 7 76.5t2 42.5q-12 -8 -35.5 -24t-62.5 -44l-20 33q45 20 70 33t38 20q-13 6 -38 18.5t-70 32.5l20 34q39 -28 62.5 -44t35.5 -24q0 14 -2 42.5t-7 76.5h39l-9 -119l99 68z
" />
    <glyph glyph-name="plus" unicode="+" horiz-adv-x="541" 
d="M519 305q-81 2 -140.5 2h-87.5q1 -27 1.5 -86.5t2.5 -140.5h-49q2 81 3 140.5t1 86.5h-87t-141 -2v48q81 -2 141 -3t87 -1q0 27 -1 87t-3 141h49q-2 -81 -2.5 -141t-1.5 -87q28 0 87.5 1t140.5 3v-48z" />
    <glyph glyph-name="comma" unicode="," horiz-adv-x="218" 
d="M171 -17q-1 -48 -25 -91.5t-68 -75.5l-7 10q43 33 58 76t5 81q-1 5 -6 13q-8 -6 -18 -6q-21 0 -35.5 14.5t-14.5 34.5q0 21 14.5 35t35.5 14q19 0 31 -10t18.5 -25t9 -33.5t2.5 -36.5z" />
    <glyph glyph-name="hyphen" unicode="-" horiz-adv-x="277" 
d="M261 217l-11.5 -34.5t-6.5 -36.5h-174q-14 0 -27.5 -2t-21.5 -10l-5 5q3 10 6 18.5t5 16t4 16t4 19.5h172q15 0 28.5 2.5t21.5 9.5z" />
    <glyph glyph-name="period" unicode="." horiz-adv-x="218" 
d="M159 39q0 -20 -14.5 -34.5t-34.5 -14.5q-21 0 -35.5 14.5t-14.5 34.5q0 21 14.5 35t35.5 14q20 0 34.5 -14t14.5 -35z" />
    <glyph glyph-name="slash" unicode="/" horiz-adv-x="413" 
d="M413 750q-42 -94 -76.5 -173t-59.5 -137q-29 -68 -52 -122q-24 -54 -52 -122q-24 -58 -57 -137t-72 -175l-42 19q42 94 76.5 172.5t59.5 136.5q29 67 52 122q23 54 52 122q24 58 57.5 137t72.5 175z" />
    <glyph glyph-name="zero" unicode="0" horiz-adv-x="573" 
d="M507 328q0 -77 -17 -141t-47 -110t-70 -71.5t-86 -25.5t-86.5 25.5t-70.5 71.5t-47.5 110t-17.5 141t17.5 141t47.5 110t70.5 71.5t86.5 25.5t86 -25.5t70 -71.5t47 -110t17 -141zM422 328q0 161 -35.5 242t-99.5 81q-66 0 -101 -81t-35 -242t35 -241t101 -80
q64 0 99.5 80t35.5 241z" />
    <glyph glyph-name="one" unicode="1" horiz-adv-x="290" 
d="M224 -4q-6 1 -15.5 2t-20 1.5t-20 0.5h-15.5h-15.5t-20 -0.5t-20 -1.5t-14.5 -2l-1 4q10 5 20 13.5t11 29.5q1 24 1 50v58.5v75v101.5v82.5v60.5v46v41q-23 -11 -48.5 -19.5t-52.5 -16.5l-3 8q22 14 46.5 31t48 36t44.5 39t38 40h7q-2 -48 -2 -139v-209v-101.5v-75
t0.5 -58.5t1.5 -50q1 -21 11 -29.5t20 -13.5z" />
    <glyph glyph-name="two" unicode="2" horiz-adv-x="504" 
d="M459 94q-5 -8 -10 -21t-9 -27.5t-7.5 -27t-5.5 -18.5h-375l-3 8q25 25 57.5 58t66.5 71.5t66.5 80.5t58 85.5t41 88t15.5 86.5q0 66 -34 102t-95 36q-50 0 -87 -26t-72 -67l-11 8q15 28 36.5 54.5t47.5 46.5t55 32t60 12q48 0 82.5 -14t56.5 -38t32.5 -56.5t10.5 -69.5
q0 -58 -30 -116.5t-75 -114t-97 -105.5t-95 -90q36 -2 80 -2t85.5 1.5t73.5 4.5t44 6t17.5 5.5t14.5 9.5z" />
    <glyph glyph-name="three" unicode="3" horiz-adv-x="491" 
d="M126 -20q-20 0 -40.5 2.5t-39.5 7.5l-7 29q31 -14 84 -14q37 0 78 10t75 34t56 64t22 100q0 36 -11 63t-30.5 45t-45.5 27t-55 9q-21 0 -41 -6t-40 -15l-9 21q85 28 129 69t44 103q0 51 -30 75t-77 24q-50 0 -86.5 -24.5t-64.5 -54.5l-12 11q16 22 37.5 43t47.5 37.5
t55.5 26t60.5 9.5q69 0 105 -33t36 -87q0 -49 -31 -86t-81 -63q42 0 76 -13t57 -37t35.5 -57t12.5 -72q0 -54 -26.5 -99.5t-70 -78.5t-99 -51.5t-114.5 -18.5z" />
    <glyph glyph-name="four" unicode="4" horiz-adv-x="460" 
d="M450 206h-95q0 -56 0.5 -93t1.5 -70q1 -21 11 -29.5t21 -13.5l-1 -4q-6 1 -15.5 2t-20 1.5t-20 0.5h-15.5h-15.5t-20 -0.5t-20 -1.5t-15.5 -2l-1 4q11 5 21 13.5t11 29.5l2 163h-261l-3 16l323 454h19q-2 -48 -2 -139v-209v-95h95v-27zM279 233v319l-225 -319h225z" />
    <glyph glyph-name="five" unicode="5" horiz-adv-x="503" 
d="M448 249q0 -50 -22.5 -98.5t-62 -87t-94.5 -62t-120 -23.5q-37 0 -71 7l-5 25q22 -8 59 -8q35 0 76.5 11t77.5 38t60 73.5t24 118.5q0 77 -44 116.5t-112 39.5q-22 0 -43 -6t-39.5 -15.5t-33 -21.5t-23.5 -24l-15 7l20 317h259q16 0 29.5 1.5t21.5 6.5l4 -2
q-7 -14 -11.5 -38t-8.5 -44h-275l-15 -206q34 32 79 52.5t88 20.5q36 0 71.5 -10.5t63.5 -34t45 -61t17 -92.5z" />
    <glyph glyph-name="six" unicode="6" horiz-adv-x="543" 
d="M493 183q0 -43 -17 -80t-46 -64.5t-67.5 -43t-80.5 -15.5q-46 0 -85.5 19t-69 53t-46 81.5t-16.5 105.5q0 81 27.5 152t71 127.5t96.5 97t104 60.5l10 -14q-41 -17 -81.5 -54t-73 -88t-53 -113.5t-20.5 -129.5q0 -10 0.5 -19t1.5 -17q8 27 24 50t37.5 39.5t47.5 26
t54 9.5q41 0 74.5 -13.5t57.5 -38t37 -58t13 -73.5zM416 161q0 70 -35 114t-93 44q-27 0 -51.5 -12.5t-42.5 -35t-28 -53.5t-8 -68q17 -72 52 -106.5t80 -34.5q30 0 53.5 13t39.5 34.5t24.5 49t8.5 55.5z" />
    <glyph glyph-name="seven" unicode="7" horiz-adv-x="432" 
d="M422 648l-261 -668h-36l236 599q-36 1 -84.5 1t-95 -1.5t-83 -4t-48.5 -5.5q-11 -4 -19 -7.5t-16 -11.5l-5 2q4 8 11 23t14 31t13 30t9 20h362z" />
    <glyph glyph-name="eight" unicode="8" horiz-adv-x="543" 
d="M488 175q0 -40 -17 -75.5t-46.5 -62t-69 -42t-84.5 -15.5t-84 15t-68.5 41t-46.5 61t-17 75q0 33 12.5 62.5t34.5 52t52.5 38t66.5 21.5q-30 7 -55 23.5t-43 39t-28 49t-10 53.5q0 34 14.5 64t40 52.5t59.5 35.5t72 13q39 0 73 -12.5t59.5 -34.5t40 -52t14.5 -64
q0 -27 -11 -50.5t-30 -42.5t-43.5 -33t-52.5 -21q36 -6 67 -24t53 -44t34.5 -58t12.5 -65zM379 514q-5 64 -36 98.5t-82 34.5q-22 0 -41 -10t-32 -28t-19.5 -42.5t-3.5 -52.5q2 -28 12 -52.5t26 -43t36.5 -29t42.5 -10.5t41 10.5t32 29t19.5 43t4.5 52.5zM409 170
q-4 40 -18.5 69.5t-35.5 49.5t-47 30t-53 10t-50 -13t-38.5 -34.5t-23 -51t-4.5 -62.5q7 -71 46 -115.5t103 -44.5q28 0 51.5 13t40 35t24.5 51.5t5 62.5z" />
    <glyph glyph-name="nine" unicode="9" horiz-adv-x="543" 
d="M478 418q0 -81 -27.5 -151.5t-71 -127.5t-96.5 -97.5t-104 -61.5l-10 16q41 16 82 52.5t73.5 87.5t53 113.5t20.5 130.5q0 9 -1 18t-2 19q-8 -28 -23.5 -51t-37.5 -40t-48 -26.5t-54 -9.5q-41 0 -74.5 13.5t-57.5 38t-37 58.5t-13 74q0 42 17 79t46 64.5t67.5 43
t81.5 15.5q46 0 85.5 -19t68.5 -53t45.5 -81.5t16.5 -104.5zM385 507q-17 73 -52 106.5t-80 33.5q-30 0 -53 -13t-39 -34.5t-24.5 -49t-8.5 -55.5q0 -70 34.5 -114t92.5 -44q27 0 52 12.5t43 35t27.5 54t7.5 68.5z" />
    <glyph glyph-name="colon" unicode=":" horiz-adv-x="218" 
d="M159 315q0 -21 -14.5 -35.5t-34.5 -14.5q-21 0 -35.5 14.5t-14.5 35.5q0 20 14.5 34.5t35.5 14.5q20 0 34.5 -14.5t14.5 -34.5zM159 39q0 -20 -14.5 -34.5t-34.5 -14.5q-21 0 -35.5 14.5t-14.5 34.5q0 21 14.5 35t35.5 14q20 0 34.5 -14t14.5 -35z" />
    <glyph glyph-name="semicolon" unicode=";" horiz-adv-x="218" 
d="M159 315q0 -21 -14.5 -35.5t-34.5 -14.5q-21 0 -35.5 14.5t-14.5 35.5q0 20 14.5 34.5t35.5 14.5q20 0 34.5 -14.5t14.5 -34.5zM171 -17q-1 -48 -25 -91.5t-68 -75.5l-7 10q43 33 58 76t5 81q-1 5 -6 13q-8 -6 -18 -6q-21 0 -35.5 14.5t-14.5 34.5q0 21 14.5 35t35.5 14
q19 0 31 -10t18.5 -25t9 -33.5t2.5 -36.5z" />
    <glyph glyph-name="less" unicode="&#x3c;" horiz-adv-x="433" 
d="M411 152l-25 -41q-63 37 -119 70.5t-103 61t-83 48.5t-59 34v7q23 13 59 34t83 48.5t103 60.5t119 70l25 -41q-53 -29 -101 -56.5t-89 -50.5t-72 -41t-49 -28z" />
    <glyph glyph-name="equal" unicode="=" horiz-adv-x="567" 
d="M531 412q-55 2 -100.5 2t-78.5 1q-39 0 -69 1q-31 -1 -70 -1q-33 -1 -78.5 -1t-99.5 -2v48q54 -2 99.5 -2.5t78.5 -0.5h70h69q33 0 78.5 0.5t100.5 2.5v-48zM531 196q-55 1 -100.5 2t-78.5 1h-69h-70q-33 0 -78.5 -1t-99.5 -2v48q54 -2 99.5 -2.5t78.5 -0.5h70h69
q33 0 78.5 0.5t100.5 2.5v-48z" />
    <glyph glyph-name="greater" unicode="&#x3e;" horiz-adv-x="433" 
d="M411 325q-23 -13 -59 -34t-83 -48.5t-103 -61t-119 -70.5l-25 41l312 176q-18 10 -49.5 28t-72 41t-89.5 50.5t-101 56.5l25 41q63 -37 119 -70t103 -60.5t83 -48.5t59 -34v-7z" />
    <glyph glyph-name="question" unicode="?" horiz-adv-x="373" 
d="M333 525q0 -35 -16 -69t-39 -66t-48 -63t-43 -61.5t-25 -60t7 -59.5l-16 -7q-14 26 -11 55t16 59.5t32 63t37 64.5t30.5 63.5t12.5 61.5q0 60 -30.5 90.5t-84.5 30.5q-47 0 -78 -30t-50 -71l-17 10q10 30 27 55.5t38.5 44t47 29.5t52.5 11q73 0 115.5 -40t42.5 -111z
M211 39q0 -20 -15 -34.5t-35 -14.5q-21 0 -35 14.5t-14 34.5q0 21 14 35t35 14q20 0 35 -14t15 -35z" />
    <glyph glyph-name="at" unicode="@" horiz-adv-x="850" 
d="M774 381q-6 -67 -26.5 -113t-48 -74.5t-57.5 -40t-56 -9.5t-44 16.5t-20 38.5q-1 3 -0.5 15t0.5 16q-35 -39 -79.5 -65t-95.5 -26q-37 0 -64 16.5t-43 42.5t-18.5 59.5t9.5 68.5q15 43 42.5 77.5t63 58.5t75.5 37t80 13q46 0 74 -20q20 2 36 5.5t30 14.5l3 -2
q-6 -24 -11.5 -50t-11.5 -59.5t-13.5 -77l-17.5 -101.5q-3 -21 5.5 -34t23.5 -15t34.5 8.5t37 35.5t31.5 65.5t19 99.5q4 47 -11.5 95t-50 86.5t-88 63t-123.5 24.5q-71 0 -130.5 -25.5t-103 -69.5t-70 -103t-31.5 -127t15 -126.5t59 -101.5t93 -67.5t117 -24.5t111.5 15.5
t93.5 43.5l9 -11q-44 -35 -96.5 -55t-120.5 -20q-73 0 -135.5 25.5t-107.5 71.5t-68.5 109.5t-17.5 140.5q6 76 38.5 140.5t84 111t118.5 72.5t142 26t136 -25t102.5 -66.5t61.5 -94.5t15 -109zM554 451q-11 18 -24 28t-51 10q-26 0 -52.5 -11t-50.5 -32t-44 -51t-33 -69
q-11 -36 -10 -65t11 -50t26 -32t35 -11q31 0 57 10.5t47 27.5t37 37.5t29 40.5q5 34 9 54l7 35t4.5 29t2.5 34q3 10 0 15z" />
    <glyph glyph-name="A" unicode="A" horiz-adv-x="637" 
d="M670 -4q-7 1 -17.5 2t-21.5 1.5t-21.5 0.5h-18.5h-19t-25 -0.5t-24.5 -1.5t-17.5 -2l-1 4q5 3 11.5 6t11 7.5t6 11.5t-2.5 18q-14 34 -31 71t-45 94h-325q-26 -57 -42 -93.5t-30 -71.5q-5 -11 -3 -18t7 -11.5t11.5 -7.5t11.5 -6l-1 -4q-12 2 -27 3t-30 1q-14 0 -29 -1
t-29 -3l-2 4q16 5 29.5 17t24.5 35q13 24 25 47.5t27 53.5t34 69.5t46 96.5q55 115 96.5 206t62.5 139h14q10 -24 26 -59t36.5 -79.5t45 -97t51.5 -109.5t46 -95.5t33 -67t25 -51t24 -46.5q11 -22 27.5 -38t31.5 -21zM441 235q-17 37 -39 84q-26 56 -42.5 91.5t-28 61
t-20.5 45.5t-21 45q-12 -25 -22 -48.5t-22.5 -51t-28.5 -62t-38 -81.5q-11 -24 -21 -44.5t-18 -39.5h301z" />
    <glyph glyph-name="B" unicode="B" horiz-adv-x="569" 
d="M529 178q0 -50 -28 -85t-71.5 -56.5t-95.5 -31t-100 -9.5h-43.5t-48.5 0.5t-44.5 1.5t-32.5 2v4q12 2 20.5 10t9.5 29q1 24 1.5 50t0.5 58.5v75v101.5v101v76t-0.5 59t-1.5 50q-1 21 -9.5 29t-20.5 9v4q6 1 22 2t34 1.5t34.5 0.5h22.5q131 0 198.5 -42t67.5 -113
q0 -42 -19 -70.5t-46 -46t-57 -25.5t-52 -9q50 0 96.5 -9t82.5 -30t58 -54.5t22 -82.5zM364 505q0 46 -19 71.5t-47.5 38.5t-61 16t-59.5 3q-2 -45 -2 -109v-163q31 -2 64.5 3t61.5 20.5t45.5 44t17.5 75.5zM447 178q0 90 -68 130t-204 25v-16v-103v-79t0.5 -62.5t1.5 -51.5
q53 -3 101.5 3t86 24.5t60 50t22.5 79.5z" />
    <glyph glyph-name="C" unicode="C" horiz-adv-x="767" 
d="M713 136l-2 -52q-46 -50 -115.5 -77t-149.5 -27q-75 0 -142.5 24.5t-118 70t-80.5 109.5t-30 144q0 79 30 143.5t80.5 110t118 70t142.5 24.5q37 0 74 -6t71.5 -18t64.5 -30.5t53 -42.5l4 -82l-6 -1q-35 76 -102.5 113t-158.5 37q-58 0 -109 -22.5t-89.5 -63.5t-61 -100
t-22.5 -132t22.5 -131.5t61 -100t89.5 -64t109 -22.5q94 0 154.5 31t107.5 97z" />
    <glyph glyph-name="D" unicode="D" horiz-adv-x="704" 
d="M629 337q0 -60 -20.5 -121t-67.5 -109.5t-123.5 -79.5t-189.5 -31h-42.5t-46.5 0.5t-42.5 1.5t-31.5 2v4q12 2 20.5 10t9.5 29q1 24 1.5 50t0.5 58.5v75v101.5v101v76t-0.5 59t-1.5 50q-1 21 -9.5 29t-20.5 9v4q6 1 29.5 2t50.5 1.5t50.5 0.5h29.5q84 0 157.5 -17
t128.5 -55t86.5 -99.5t31.5 -151.5zM544 337q0 65 -19 122.5t-62 98.5t-113 63t-173 17q-2 -45 -2 -118.5v-172.5v-27v-103v-80.5t0.5 -63.5t1.5 -52q188 -11 277.5 71.5t89.5 244.5z" />
    <glyph glyph-name="E" unicode="E" horiz-adv-x="556" 
d="M539 78q-2 -4 -7.5 -15.5t-12 -24t-11.5 -23.5t-5 -15h-367h-15.5t-20 -0.5t-19.5 -1.5t-15 -2l-1 4q10 5 20 13.5t11 29.5q1 24 1.5 50t0.5 58.5t-0.5 75t-0.5 101.5q0 58 0.5 101t0.5 76t-0.5 59t-1.5 50q-1 21 -11 29.5t-20 12.5l1 5q6 -2 15 -2.5t19.5 -1.5t20 -1
h15.5h333q0 -5 3 -15.5t7 -22.5t8 -23.5t6 -16.5l-5 -5q-28 24 -63 37.5t-74.5 19.5t-83.5 6t-90 -3q-1 -30 -1.5 -58.5t-0.5 -61v-72.5v-92q84 1 131 3t71.5 6.5t32 12.5t11.5 21l5 -1q-3 -14 -4 -26t-1 -27q0 -16 1 -27t4 -25l-5 -3q-5 13 -12.5 21.5t-32 13.5t-71.5 6.5
t-130 1.5v-1v-103v-81t0.5 -64.5t1.5 -52.5q51 -2 102.5 -1t98 7t86.5 18.5t70 34.5z" />
    <glyph glyph-name="F" unicode="F" horiz-adv-x="513" 
d="M488 573q-28 24 -63 37.5t-74.5 19.5t-83.5 6t-90 -3q-1 -30 -1.5 -58.5t-0.5 -61v-72.5v-92q84 1 131 3t71.5 6.5t32 12.5t11.5 21l5 -1q-3 -14 -4 -26t-1 -27q0 -16 1 -27t4 -25l-5 -3q-5 13 -12.5 21.5t-32 13.5t-71.5 6.5t-130 1.5v-1v-100v-74.5t0.5 -58t1.5 -49.5
q1 -21 11 -29.5t20 -13.5l-1 -4q-5 1 -14.5 2t-20 1.5t-20 0.5h-15.5h-12.5t-20.5 -0.5t-21.5 -1.5t-16.5 -2l-1 4q10 5 20 13.5t11 29.5q1 24 1.5 50t0.5 58.5t-0.5 75t-0.5 101.5q0 58 0.5 101t0.5 76t-0.5 59t-1.5 50q-1 21 -11 29.5t-20 12.5l1 5q6 -2 15 -2.5
t19.5 -1.5t20 -1h15.5h333q0 -5 3 -15.5t7 -22.5t8 -23.5t6 -16.5z" />
    <glyph glyph-name="G" unicode="G" horiz-adv-x="823" 
d="M765 282q-9 -4 -19.5 -13t-10.5 -23v-122q-48 -69 -123 -106.5t-166 -37.5q-75 0 -142.5 24.5t-118 70t-80.5 109.5t-30 144q0 79 30 143.5t80.5 110t118 70t142.5 24.5q37 0 74 -6t71.5 -18t64.5 -30.5t53 -42.5l4 -82l-6 -1q-35 76 -102.5 113t-158.5 37
q-58 0 -109 -22.5t-89.5 -63.5t-61 -100t-22.5 -132q0 -72 22.5 -130.5t60.5 -100.5t89.5 -64.5t109.5 -22.5q57 0 110 14t96 45v177q0 14 -10.5 23t-21.5 13l2 5q5 -2 15 -2.5t21.5 -1.5t22 -1h16.5h15t19 1t19 1.5t15 2.5v-5z" />
    <glyph glyph-name="H" unicode="H" horiz-adv-x="773" 
d="M707 -4q-5 1 -14.5 2t-20 1.5t-20.5 0.5h-16h-15.5t-20 -0.5t-20 -1.5t-14.5 -2l-2 4q11 5 21 13.5t11 29.5q1 24 1.5 49.5t0.5 58v74.5v99h-423v-99v-74.5t0.5 -58t1.5 -49.5q1 -21 11 -29.5t20 -13.5l-1 -4q-5 1 -14.5 2t-20 1.5t-20 0.5h-15.5h-15.5t-20 -0.5
t-20 -1.5t-15.5 -2l-1 4q10 5 20 13.5t11 29.5q1 24 1.5 50t0.5 58.5t-0.5 75t-0.5 101.5q0 58 0.5 101t0.5 76t-0.5 59t-1.5 50q-1 21 -11 29.5t-20 12.5l1 5q6 -2 15.5 -2.5t20 -1.5t20 -1h15.5h15.5t20 1t20 1.5t14.5 2.5l1 -5q-10 -4 -20 -12.5t-11 -29.5
q-1 -23 -1.5 -47.5t-0.5 -54.5v-68.5v-90.5h423v90.5v68.5t-0.5 54.5t-1.5 47.5q-1 21 -11 29.5t-21 12.5l2 5q5 -2 14.5 -2.5t20 -1.5t20 -1h15.5h16t20.5 1t20 1.5t14.5 2.5l1 -5q-11 -4 -20 -12.5t-10 -29.5q-2 -24 -2.5 -50t-0.5 -59v-76v-101v-101.5v-75t0.5 -58.5
t2.5 -50q1 -21 10 -29.5t20 -13.5z" />
    <glyph glyph-name="I" unicode="I" horiz-adv-x="273" 
d="M207 -4q-5 1 -14.5 2t-20 1.5t-20 0.5h-15.5h-15.5t-20 -0.5t-20 -1.5t-15.5 -2l-1 4q10 5 20 13.5t11 29.5q1 24 1.5 50t0.5 58.5t-0.5 75t-0.5 101.5q0 58 0.5 101t0.5 76t-0.5 59t-1.5 50q-1 21 -11 29.5t-20 12.5l1 5q6 -2 15.5 -2.5t20 -1.5t20 -1h15.5h15.5t20 1
t20 1.5t14.5 2.5l1 -5q-10 -4 -20 -12.5t-11 -29.5q-1 -24 -1.5 -50t-0.5 -59v-76v-101v-101.5v-75t0.5 -58.5t1.5 -50q1 -21 11 -29.5t20 -13.5z" />
    <glyph glyph-name="J" unicode="J" horiz-adv-x="278" 
d="M213 656q-11 -4 -20.5 -12.5t-11.5 -29.5q-1 -24 -1 -73.5v-111v-128v-124.5q0 -78 -10.5 -139.5t-35.5 -111.5t-66.5 -91t-103.5 -77l-2 7q38 33 65 67t44 79.5t24.5 109t7.5 156.5v124.5v128t-0.5 111t-1.5 73.5q-1 21 -11 29.5t-21 12.5l2 5q5 -2 14.5 -2.5t20 -1.5
t20 -1h15.5h15.5t20 1t20 1.5t15.5 2.5z" />
    <glyph glyph-name="K" unicode="K" horiz-adv-x="657" 
d="M696 -4q-8 1 -19 2t-23 1.5t-23 0.5h-18h-21.5t-28.5 -0.5t-28 -1.5t-19 -2l-1 4q6 3 11 6t7 7.5t-0.5 11.5t-12.5 18q-23 24 -50.5 52.5t-63 64.5t-80 81t-99.5 102l-52 -45v-88v-67.5t0.5 -53.5t1.5 -46q1 -21 11 -29.5t20 -13.5l-1 -4q-5 1 -14.5 2t-20 1.5t-20 0.5
h-15.5h-15.5t-20 -0.5t-20 -1.5t-15.5 -2l-1 4q10 5 20 13.5t11 29.5q1 24 1.5 50t0.5 58.5t-0.5 75t-0.5 101.5q0 58 0.5 101t0.5 76t-0.5 59t-1.5 50q-1 21 -11 29.5t-20 12.5l1 5q6 -2 15.5 -2.5t20 -1.5t20 -1h15.5h15.5t20 1t20 1.5t14.5 2.5l1 -5q-10 -4 -20 -12.5
t-11 -29.5q-1 -24 -1.5 -50t-0.5 -58v-74v-99v-5q112 100 184 167t119 112q23 22 27 33.5t-7 15.5l2 5q11 -3 28 -4t32 -1t30.5 1t29.5 4l3 -5q-15 -4 -39.5 -16.5t-50.5 -34.5q-42 -35 -105 -89t-146 -126q111 -113 194 -198t131 -133q22 -22 49 -38t41 -21z" />
    <glyph glyph-name="L" unicode="L" horiz-adv-x="521" 
d="M521 78q-2 -4 -7.5 -15.5t-11.5 -24t-11 -23.5t-5 -15h-350h-15.5t-20 -0.5t-19.5 -1.5t-15 -2l-1 4q10 5 20 13.5t11 29.5q1 24 1.5 50t0.5 58.5t-0.5 75t-0.5 101.5q0 58 0.5 101t0.5 76t-0.5 59t-1.5 50q-1 21 -11 29.5t-20 12.5l1 5q6 -2 15.5 -2.5t20 -1.5t20 -1
h15.5h15.5t20 1t20 1.5t14.5 2.5l1 -5q-10 -4 -20 -12.5t-11 -29.5q-1 -24 -1.5 -50t-0.5 -59v-76v-101v-104.5v-82t0.5 -65t1.5 -52.5q51 -2 99.5 -1t92 7t80.5 18.5t67 34.5z" />
    <glyph glyph-name="M" unicode="M" horiz-adv-x="860" 
d="M794 -4q-5 1 -14.5 2t-20 1.5t-20 0.5h-15.5h-15.5t-20 -0.5t-20 -1.5t-15.5 -2l-1 4q10 5 20 13.5t11 29.5q1 24 1.5 50t0.5 58.5v75v101.5q0 53 0.5 93t0.5 71.5v56.5t-1 48q-11 -23 -22.5 -48.5t-25.5 -57t-32 -71.5t-41 -91q-53 -119 -86 -195t-52 -125h-24
q-20 49 -56 125.5t-91 193.5q-26 55 -43.5 94t-31 68t-24 51t-22.5 45l-7 13q0 -24 1 -49.5t1.5 -57t1 -72t0.5 -92.5q0 -59 0.5 -101.5t1.5 -75t2 -58.5t2 -50q1 -21 11 -29.5t20 -13.5l-1 -4q-11 2 -25 3t-26 1q-11 0 -25 -1t-25 -3l-1 4q10 5 20 13.5t11 29.5q1 24 2 50
t2 58.5t1.5 75t0.5 101.5v101v76t-0.5 59t-1.5 50q-1 21 -10.5 29.5t-20.5 12.5v5h2q8 -1 21 -3t27 -2h16.5t21 0.5t19.5 1t13 1.5q21 -49 58.5 -131t91.5 -200q27 -57 42 -88.5t24.5 -51.5t16.5 -36t18 -41q12 25 20.5 44t18 41.5t23 53t36.5 79.5q53 120 87.5 200.5
l55.5 129.5q6 -2 23.5 -2.5t29.5 -0.5q7 0 16 0.5l18 1t16 1.5t10 2l1 -5q-10 -4 -20 -12.5t-11 -29.5q-1 -24 -1 -50v-59v-76v-101v-101.5v-75v-58.5t1 -50q1 -21 11 -29.5t20 -13.5z" />
    <glyph glyph-name="N" unicode="N" horiz-adv-x="784" 
d="M719 656q-10 -4 -19.5 -12.5t-10.5 -29.5q-1 -24 -2 -50t-2 -59t-2 -76t-1 -101v-208.5t2 -139.5h-18q-81 91 -135.5 153.5t-87.5 100.5q-40 45 -62 71q-23 26 -59 66q-31 35 -78.5 88t-114.5 131v-47.5t0.5 -51.5t1 -67.5t0.5 -95.5q0 -59 1 -101.5t2.5 -75t2.5 -58.5
t2 -50q1 -21 11 -29.5t20 -13.5l-1 -4q-10 2 -24.5 3t-25.5 1q-12 0 -25.5 -1t-24.5 -3l-1 4q11 5 20 13.5t11 29.5q1 24 2 50t2 58.5t1.5 75t0.5 101.5v100v74t-0.5 57t-1.5 49q-1 22 -13 33t-23 15l1 5q11 -3 26.5 -4t27.5 -1h52q60 -69 107.5 -124t81.5 -93
q40 -45 69 -78q29 -34 65 -74q31 -35 72.5 -80.5t89.5 -98.5q-1 21 -1.5 41t-1 44.5t-1 56.5t-0.5 78q0 58 -1 101t-2 76t-2.5 59t-2.5 50q-2 21 -11.5 29.5t-19.5 12.5l1 5q11 -3 25 -4t26 -1q11 0 25 1t25 4z" />
    <glyph glyph-name="O" unicode="O" horiz-adv-x="869" 
d="M794 328q0 -80 -29 -144t-78 -109.5t-114.5 -70t-137.5 -24.5q-73 0 -138 24.5t-114.5 70t-78.5 109.5t-29 144q0 79 29 143.5t78.5 110t114.5 70t138 24.5q72 0 137.5 -24.5t114.5 -70t78 -110t29 -143.5zM709 328q0 74 -22 133t-59.5 100t-87 63t-105.5 22t-106 -22
t-88 -63t-60 -100t-22 -133t22 -133t60 -100t88 -63t106 -22t105.5 22t87 63t59.5 100t22 133z" />
    <glyph glyph-name="P" unicode="P" horiz-adv-x="516" 
d="M487 483q0 -53 -22 -91t-63 -62t-98.5 -34.5t-128.5 -7.5v-95v-61.5t0.5 -45t1.5 -43.5q1 -21 11 -29.5t20 -13.5l-1 -4q-5 1 -14.5 2t-20 1.5t-20 0.5h-15.5h-15.5t-20 -0.5t-20 -1.5t-15.5 -2l-1 4q10 5 20 13.5t11 29.5q1 24 1.5 50t0.5 58.5t-0.5 75t-0.5 101.5
q0 58 0.5 101t0.5 76t-0.5 59t-1.5 50q-1 21 -10 29t-20 9l-1 4q6 1 26 2t43.5 1.5t44 0.5h26.5q74 0 127 -14.5t87.5 -39t51 -56.5t16.5 -67zM404 483q0 53 -21.5 83t-55 45t-73.5 19t-77 4q-1 -22 -1.5 -56t-0.5 -75v-88.5v-96.5q47 -4 88.5 2t73 25t49.5 53t18 85z" />
    <glyph glyph-name="Q" unicode="Q" horiz-adv-x="853" 
d="M841 -133q-15 -7 -35.5 -11.5t-46.5 -4.5q-31 0 -57.5 14t-50.5 35.5t-46.5 48t-46.5 52.5q-59 -21 -129 -21q-73 0 -138 24.5t-114.5 70t-78.5 109.5t-29 144q0 79 29 143.5t78.5 110t114.5 70t138 24.5t138 -24.5t114 -70t78 -110t29 -143.5q0 -103 -47 -180t-123 -120
q30 -28 58 -58t55 -54t54 -37.5t55 -8.5zM704 328q0 74 -22 133t-59.5 100t-87.5 63t-106 22t-105.5 -22t-87 -63t-59.5 -100t-22 -133t22 -133t59.5 -100t87 -63t105.5 -22q27 0 52 5t49 14q-29 29 -63.5 48t-78.5 17l-2 3q58 23 105.5 8.5t89.5 -47.5q56 40 89.5 108
t33.5 162z" />
    <glyph glyph-name="R" unicode="R" horiz-adv-x="554" 
d="M550 7q-14 -11 -30.5 -13.5t-33.5 -2.5q-38 0 -64 21.5t-45 54t-33 71t-29 73.5t-33.5 61.5t-45.5 34.5q-7 1 -13.5 1h-13.5h-14.5t-14.5 -1v-90.5t0.5 -70t1 -55.5t1.5 -48q1 -21 10 -29.5t20 -13.5l-1 -4q-5 1 -14.5 2t-20 1.5t-20 0.5h-15.5h-15.5t-20 -0.5
t-20.5 -1.5t-15 -2l-2 4q11 5 21 13.5t11 29.5q1 24 1.5 50t0.5 58.5v75v101.5v101v76t-0.5 59t-1.5 50q-1 21 -10 29t-20 9v4q5 1 25 2t43.5 1.5t44.5 0.5h27q68 0 117.5 -13.5t81.5 -36t47 -52.5t15 -64q0 -41 -16 -71.5t-43 -53t-63.5 -36t-77.5 -19.5q31 -9 57 -36.5
t49.5 -63.5t45 -74.5t42 -69t40.5 -48t42 -10.5zM390 494q0 48 -20 76t-51 42t-67 18t-69 4q-2 -45 -2.5 -121t-0.5 -175q33 -3 69.5 1t68 21t52 49t20.5 85z" />
    <glyph glyph-name="S" unicode="S" horiz-adv-x="569" 
d="M500 174q0 -45 -18.5 -81t-50 -61t-72.5 -38.5t-86 -13.5q-27 0 -54 5t-52 14t-46.5 21t-36.5 26l-17 97l8 4q18 -35 41 -61t49.5 -43t55 -25.5t55.5 -8.5q34 0 62.5 10.5t48.5 29.5t31.5 45t11.5 58q0 47 -25.5 77.5t-64.5 52t-83.5 39t-83.5 40t-64.5 54t-25.5 81.5
q0 44 16 78t43.5 56.5t64.5 34t79 11.5q57 0 97 -13.5t67 -38.5l9 -83l-4 -5q-31 62 -76.5 86t-98.5 24q-28 0 -52.5 -8t-42.5 -22.5t-28 -36t-10 -48.5q0 -44 26 -70t65.5 -45.5t85 -36.5t85 -42t65.5 -63.5t26 -99.5z" />
    <glyph glyph-name="T" unicode="T" horiz-adv-x="595" 
d="M580 573q-51 37 -111.5 48.5t-132.5 10.5v-304v-101.5v-75t0.5 -58.5t1.5 -50q1 -21 11 -29.5t21 -13.5l-2 -4q-5 1 -14.5 2t-20 1.5t-20 0.5h-15.5h-16t-20.5 -0.5t-20 -1.5t-14.5 -2l-1 4q11 5 20.5 13.5t11.5 29.5q1 24 1 50v58.5v75v101.5v304q-71 1 -132 -11.5
t-112 -47.5l-5 4q2 5 6 16.5t8 24.5t7 24t3 14h527q0 -3 3.5 -14t7 -23.5t7.5 -24t6 -16.5z" />
    <glyph glyph-name="U" unicode="U" horiz-adv-x="731" 
d="M666 656q-10 -4 -19.5 -12.5t-10.5 -29.5q-1 -24 -1.5 -61t-1 -83t-0.5 -100v-112q0 -81 -24.5 -134.5t-62 -85.5t-82 -45t-84.5 -13q-58 0 -109.5 14.5t-90 46.5t-61 83t-22.5 124q0 58 0.5 113.5t0.5 103.5t-0.5 86.5t-1.5 62.5q-1 21 -11 29.5t-20 12.5l1 5
q6 -2 15.5 -2.5t20 -1.5t20 -1h15.5h15.5t20 1t20 1.5t14.5 2.5l1 -5q-10 -4 -20 -12.5t-11 -29.5q-1 -24 -1.5 -62.5t-0.5 -86.5v-103.5v-113.5q0 -115 57 -171t161 -56q39 0 77.5 12.5t68.5 40.5t49 73t19 111q0 137 -1 222t-2 134q-1 21 -11 29.5t-21 12.5l1 5
q11 -3 23 -4t23 -1q12 0 24 1t22 4z" />
    <glyph glyph-name="V" unicode="V" horiz-adv-x="637" 
d="M671 656q-32 -8 -54 -51l-24 -48l-27 -54t-34.5 -69.5t-46.5 -96.5q-55 -115 -97 -206t-62 -139h-14q-21 48 -63 139t-97 206q-27 57 -45 95.5t-32 67t-25.5 51t-23.5 46.5q-11 22 -28.5 38.5t-31.5 20.5l2 5q14 -3 38.5 -4t39.5 -1h19t25 1t24.5 1.5t17.5 2.5l1 -5
q-5 -2 -11.5 -5t-11 -7.5t-6.5 -12t2 -17.5q10 -24 22 -49t27 -56.5t34.5 -73t45.5 -98.5q26 -56 42.5 -91.5t28 -61t20.5 -45.5t21 -45q12 25 22.5 48.5t23 51t28 62t37.5 81.5q27 57 45.5 98.5t32 73t24 56.5t20.5 49q4 10 2.5 17.5t-6.5 12t-11.5 7.5t-11.5 5l1 5
q12 -3 27 -4t31 -1q14 0 29 1t29 4z" />
    <glyph glyph-name="W" unicode="W" horiz-adv-x="892" 
d="M925 656q-14 -4 -28.5 -16.5t-25.5 -33.5l-24 -48l-27 -54t-34.5 -70t-46.5 -97q-54 -115 -96 -206t-63 -139h-13q-17 39 -48 107t-73 155q-41 -87 -72 -155t-48 -107h-14q-21 48 -63 139t-97 206q-27 57 -45 95.5t-32 67.5t-25.5 51.5t-23.5 46.5q-11 21 -27.5 37.5
t-32.5 20.5l2 5q14 -3 38.5 -4t39.5 -1h19t25 1t24.5 1.5t17.5 2.5l1 -5q-5 -2 -11.5 -4.5t-11 -7.5t-6.5 -12t2 -18q10 -24 22 -49t27 -56.5t34.5 -73t45.5 -98.5q26 -56 42.5 -91.5t28 -61t20.5 -45.5t21 -45q10 21 18.5 41t18.5 41.5t21.5 47.5t26.5 59l-24 54
q-27 57 -46 95.5t-33 67.5t-25 51.5t-24 46.5q-11 21 -27.5 37.5t-31.5 20.5l1 5q14 -3 38.5 -4t39.5 -1h19.5t25 1t24 1.5t17.5 2.5l2 -5q-5 -2 -11.5 -4.5t-11.5 -7.5t-6.5 -12t3.5 -18q9 -22 19 -44.5t23 -50t30 -63t40 -83.5q22 48 38 83.5t28 63t21.5 50t18.5 44.5
q4 11 2.5 18t-6.5 12t-11.5 7.5t-11.5 4.5l1 5q12 -3 27 -4t31 -1q14 0 29 1t29 4l1 -5q-31 -8 -54 -50q-12 -23 -23 -45t-24.5 -50t-31 -63.5t-41.5 -85.5l-9 -20q26 -57 53.5 -117t59.5 -131q12 25 22.5 48.5t23 51t28 62t37.5 81.5q27 57 46 98.5t32.5 73t23.5 56.5
t20 49q5 11 3.5 18t-6.5 12t-11.5 7.5t-11.5 4.5l1 5q11 -3 26.5 -4t30.5 -1q14 0 29 1t29 4z" />
    <glyph glyph-name="X" unicode="X" horiz-adv-x="601" 
d="M614 -4q-7 1 -18 2t-23 1.5t-23 0.5h-18h-20.5t-26 -0.5t-26 -1.5t-18.5 -2l-1 4q6 3 12.5 5.5t11 6t5.5 10t-5 16.5q-14 23 -26 42.5t-26 40.5t-32.5 47t-44.5 64l-40 56l-15 21q-20 -26 -36.5 -50.5t-36.5 -52.5q-18 -24 -31 -43t-25.5 -37t-25.5 -38t-30 -47
q-6 -10 -5.5 -16.5t5 -11t11.5 -7.5t12 -6l-2 -4q-11 2 -25 3t-29 1q-14 0 -30.5 -1t-30.5 -3l-1 4q15 5 30.5 19t31.5 34q16 22 28.5 38.5t26 35t31.5 43t46 62.5l71 100l-65 92q-27 37 -45.5 64t-32 46.5t-24.5 34t-21 28.5q-14 20 -32.5 37.5t-33.5 21.5l2 5
q7 -2 18.5 -2.5t24 -1.5t24 -1h19.5h19t25 1t25 1.5t18 2.5l1 -5q-6 -2 -12.5 -4.5t-11 -6.5t-5 -10.5t5.5 -16.5q13 -23 25 -42t26 -40.5t32.5 -48t44.5 -63.5l20 -28l20 28q22 31 38 53.5t30 42.5t28 42t33 53q6 10 5.5 17t-5 11.5t-11.5 7.5t-12 5l2 5q12 -3 26 -4t28 -1
q15 0 31 1t31 4l1 -5q-14 -4 -30.5 -18.5t-31.5 -33.5q-17 -22 -29.5 -39t-26 -36t-31.5 -43.5t-45 -62.5l-36 -48l15 -20l86 -123q26 -38 44.5 -64t32 -45.5t24 -34.5t21.5 -29q14 -19 32.5 -36.5t33.5 -22.5z" />
    <glyph glyph-name="Y" unicode="Y" horiz-adv-x="561" 
d="M595 656q-14 -4 -30.5 -18.5t-31.5 -33.5q-17 -22 -29 -39t-25.5 -35.5t-31.5 -43.5t-46 -62l-84 -115v-99v-69t0.5 -51.5t1.5 -46.5q1 -21 11 -29.5t21 -13.5l-2 -4q-5 1 -14.5 2t-20 1.5t-20 0.5h-15.5h-16t-20.5 -0.5t-20 -1.5t-14.5 -2l-1 4q11 5 20.5 13.5t9.5 29.5
q1 23 2 45.5t1 51.5v68v96l-88 120q-27 37 -46 64t-33 46.5t-24.5 34t-21.5 28.5q-14 20 -30.5 37.5t-30.5 21.5l2 5q7 -2 17.5 -2.5t21.5 -1.5t21.5 -1h17.5h21t29 1t27.5 1.5t18.5 2.5l1 -5q-5 -2 -12 -4.5t-12.5 -6.5t-7.5 -10.5t4 -16.5q14 -23 26.5 -42t27 -40.5
t33.5 -48t46 -63.5l60 -85q14 20 28.5 41t34.5 47q22 30 38 52t30 42t28.5 42t34.5 52q6 10 5.5 17t-5.5 11.5t-11.5 7.5t-12.5 5l1 5q13 -3 30 -4t31 -1q15 0 27.5 1t26.5 4z" />
    <glyph glyph-name="Z" unicode="Z" horiz-adv-x="647" 
d="M608 84q-3 -6 -8.5 -17.5t-11 -24t-10.5 -24t-6 -18.5h-523l-4 7q35 49 89 126.5t134 194.5q40 58 71 104t55.5 82.5t44 65.5t35.5 53q-49 1 -108 0.5t-116 -6.5t-106 -20t-78 -40l-6 3q3 7 9 19t11.5 25.5t10 25t5.5 16.5h480l4 -10q-35 -48 -87.5 -124.5t-131.5 -193.5
q-40 -59 -71.5 -104.5t-56.5 -82t-44.5 -65t-35.5 -52.5q49 -2 113 -1.5t128 6.5t120 19.5t89 39.5z" />
    <glyph glyph-name="bracketleft" unicode="[" horiz-adv-x="293" 
d="M242 -101h-115q1 22 2 63.5t1.5 97t0.5 123.5v145v140t-0.5 115.5t-1.5 95t-2 78.5h115v-18h-63q-1 -109 -1.5 -185.5t-0.5 -127.5v-98v-98q0 -51 0.5 -128t1.5 -185h63v-18z" />
    <glyph glyph-name="backslash" unicode="\" horiz-adv-x="421" 
d="M374 -116q-39 96 -72.5 175t-57.5 137q-28 68 -51 122q-24 54 -53 122q-25 58 -59.5 137t-76.5 173l42 18q39 -96 72.5 -175t57.5 -137q28 -68 52 -122q24 -55 53 -122q25 -58 59 -136.5t76 -172.5z" />
    <glyph glyph-name="bracketright" unicode="]" horiz-adv-x="293" 
d="M53 -101v18h62q0 108 0.5 185t0.5 128v98v98q0 51 -0.5 127.5t-0.5 185.5h-62v18h114q-1 -36 -1.5 -78.5t-1 -95t-0.5 -115.5v-140v-145t0.5 -123.5t1 -97t1.5 -63.5h-114z" />
    <glyph glyph-name="asciicircum" unicode="^" horiz-adv-x="433" 
d="M219 522q13 -23 34 -59t48.5 -83t60.5 -103t71 -119l-41 -25l-176 312q-10 -18 -28 -49.5t-41 -72t-50.5 -89.5t-56.5 -101l-41 25q37 63 70 119t60.5 103t48.5 83t34 59h7z" />
    <glyph glyph-name="underscore" unicode="_" horiz-adv-x="536" 
d="M516 -141q-55 1 -100 2t-78 1h-70h-69q-33 0 -78.5 -1t-100.5 -2v48q55 -2 100.5 -2.5t78.5 -0.5h69h70q68 0 178 3v-48z" />
    <glyph glyph-name="grave" unicode="`" horiz-adv-x="215" 
d="M162 450q-17 3 -41 7.5t-49.5 11t-49.5 13.5t-42 14l22 53q34 -26 78.5 -51t83.5 -41z" />
    <glyph glyph-name="a" unicode="a" horiz-adv-x="457" 
d="M417 18q-26 -4 -52.5 -11.5t-46.5 -21.5l-3 4q3 28 3 54q-20 -25 -54 -41.5t-70 -16.5q-68 0 -108.5 30.5t-40.5 87.5q0 27 15.5 49t41.5 37.5t60.5 23.5t73.5 8q22 0 41.5 -2t41.5 -7v33q0 46 -27 68.5t-67 22.5q-50 0 -84 -21.5t-56 -56.5l-5 3v44q33 29 68.5 41
t77.5 12q41 0 70.5 -9t48.5 -24.5t28 -36t9 -43.5v-85v-40.5t0.5 -23.5t1.5 -34q1 -23 11 -31.5t22 -8.5v-4zM319 190q-18 5 -36.5 7.5t-42.5 2.5q-59 0 -92.5 -26t-33.5 -71q0 -25 8.5 -41.5t21.5 -27t28.5 -15t30.5 -4.5q35 0 63.5 15t52.5 43v117z" />
    <glyph glyph-name="b" unicode="b" horiz-adv-x="485" 
d="M440 171q0 -45 -16 -80t-42.5 -58.5t-62 -35.5t-74.5 -12q-25 0 -53 7.5t-52 20.5q-20 -5 -40 -11t-32 -17l-3 4q5 48 5.5 134.5t0.5 204.5v99t-0.5 71.5t-1 54.5t-1.5 48q-1 21 -11 30t-21 9l-1 4q12 2 26 5t27.5 7t25 9t19.5 11l4 -2q-4 -48 -4.5 -138t-0.5 -208v-13
q21 16 52 29.5t66 13.5q38 0 72.5 -12t60.5 -36t41.5 -59t15.5 -80zM368 171q0 38 -11.5 67.5t-30.5 49.5t-43 30.5t-48 10.5q-36 0 -60.5 -10.5t-42.5 -22.5v-83v-60t0.5 -47.5t1.5 -43.5q0 -12 3.5 -19t8.5 -12q5 -3 10 -5.5l11 -5.5l5 -2h2q28 -11 63 -11q27 0 51 11
t41.5 32t28 51.5t10.5 69.5z" />
    <glyph glyph-name="c" unicode="c" horiz-adv-x="417" 
d="M384 47q-18 -24 -55 -43t-85 -19q-40 0 -76 12.5t-63.5 36.5t-43.5 58.5t-16 78.5t16 79t43 59t62.5 36.5t75.5 12.5q43 0 75.5 -11t52.5 -31l5 -61l-5 -4q-5 15 -16 30t-26.5 27t-35.5 19.5t-43 7.5q-33 0 -58 -12.5t-41.5 -33t-25 -47t-8.5 -54.5q0 -41 12.5 -73
t32.5 -54t46 -33.5t53 -11.5q44 0 73 11t51 31v-11z" />
    <glyph glyph-name="d" unicode="d" horiz-adv-x="487" 
d="M451 18q-12 -2 -26 -5t-27.5 -7t-25.5 -9t-19 -12l-4 4q3 16 3 40q-21 -16 -53 -30t-67 -14q-38 0 -72 12.5t-59.5 36t-40.5 58t-15 79.5q0 46 15.5 81t41.5 58.5t61 35.5t74 12q30 0 61 -8.5t56 -24.5v9v96.5v69.5v53.5t-1 47.5q-1 21 -11.5 30t-21.5 9l-1 4
q24 5 54 12.5t45 19.5l3 -2q-3 -48 -3.5 -138t-0.5 -208v-98.5v-68.5t0.5 -52t1.5 -47q1 -23 11 -31.5t21 -8.5v-4zM354 302q-20 17 -45 26t-61 9q-27 0 -51 -11t-42 -32t-28.5 -52t-10.5 -71q0 -38 12 -67t31 -48.5t43 -30t48 -10.5q36 0 60.5 10t42.5 23q1 48 1 112v142z
" />
    <glyph glyph-name="e" unicode="e" horiz-adv-x="439" 
d="M122 232q-2 -14 -4 -29t-2 -32q0 -43 14.5 -72t36.5 -46.5t47 -25t46 -7.5q24 0 41.5 2.5t32 7t26 12t22.5 17.5v-11q-18 -22 -56.5 -42.5t-85.5 -20.5q-39 0 -74 12.5t-62 36.5t-43 58.5t-16 78.5q0 43 15.5 78t41.5 59t61.5 37t76.5 13t71 -11.5t50 -29.5t30 -40.5
t10 -44.5h-279zM321 261q0 10 -3 23t-11.5 24t-24.5 19t-42 8q-46 0 -73.5 -22t-38.5 -61z" />
    <glyph glyph-name="f" unicode="f" horiz-adv-x="268" 
d="M380 597l-5 -3q-17 31 -43.5 44t-53.5 13q-131 0 -131 -241v-66h113v-26h-113v-163.5t2 -111.5q1 -21 10.5 -29.5t19.5 -13.5l-1 -4q-10 2 -29 3t-30 1h-15t-19 -0.5t-18.5 -1.5t-13.5 -2l-1 4q10 5 19.5 13.5t10.5 29.5q2 39 2 111.5v163.5h-69v26h69v66q0 73 16 123.5
t42.5 82t60.5 46t70 14.5q70 0 103 -38z" />
    <glyph glyph-name="g" unicode="g" horiz-adv-x="444" 
d="M409 -71q0 -30 -21.5 -53t-56 -38t-77.5 -22.5t-86 -7.5q-26 0 -49 5t-40.5 14.5t-28 23t-10.5 30.5q0 15 10.5 29.5t27.5 27.5t40 22.5t49 12.5q-9 0 -20 1.5t-20.5 5.5t-16 10.5t-6.5 16.5q0 24 19.5 45t41.5 38q-29 6 -51 20t-36 32.5t-21 39t-7 40.5q0 33 13 58
t35.5 42.5t52.5 26.5t64 9q15 0 29.5 -1.5t28.5 -5.5l54 81l50 -20l-86 -67q40 -15 64.5 -46.5t24.5 -76.5q0 -33 -13 -59t-35.5 -43t-52.5 -26t-64 -9h-22q-35 -28 -40.5 -42t8 -20t42.5 -6h64q75 0 108.5 -26.5t33.5 -61.5zM317 222q0 57 -30 85t-72 28t-71.5 -28
t-29.5 -85t29.5 -85.5t71.5 -28.5t72 28.5t30 85.5zM365 -91q0 36 -39.5 49.5t-103.5 10.5q-10 0 -15 -1q-22 -2 -42 -8t-35 -15.5t-24 -21.5t-9 -25q0 -23 33 -40t96 -17q27 0 52 4t44.5 12.5t31 21t11.5 30.5z" />
    <glyph glyph-name="h" unicode="h" 
d="M448 -4q-11 2 -30 3t-30 1h-15t-19 -0.5t-18.5 -1.5t-14.5 -2l-1 4q11 5 21 13.5t11 29.5q0 16 0.5 22.5t1 10.5t0.5 8v15v33v61q0 71 -22.5 105t-79.5 34q-47 0 -76.5 -26t-43.5 -74v-60.5v-49t0.5 -41.5t1.5 -38q2 -21 11.5 -29.5t20.5 -13.5l-1 -4q-11 2 -30.5 3
t-31.5 1t-33 -1t-32 -3l-1 4q10 5 20 13.5t11 29.5q1 24 1.5 50t1 58.5t0.5 75v101.5v99t-0.5 71.5t-1 54.5t-1.5 48q-1 21 -11 30t-21 9l-1 4q27 5 54 12.5t44 19.5l4 -2q-4 -48 -4.5 -138t-0.5 -208v-56q16 40 49.5 63t81.5 23q43 0 72.5 -12t47.5 -33.5t25.5 -52
t7.5 -67.5v-61v-33v-15t0.5 -8t0.5 -10.5t1 -22.5q1 -21 11 -29.5t19 -13.5v-4z" />
    <glyph glyph-name="i" unicode="i" horiz-adv-x="200" 
d="M141 526q0 -17 -13 -30t-31 -13t-30.5 13t-12.5 30q0 19 12.5 31.5t30.5 12.5t31 -12.5t13 -31.5zM165 -4q-11 2 -30 3t-31 1q-13 0 -34 -1t-32 -3l-1 4q10 5 20 13.5t11 29.5q2 49 2.5 82t0.5 68v21.5t-0.5 13t-1 18t-1.5 35.5q-1 22 -11 30.5t-21 8.5l-1 5q11 3 24.5 6
t27 7t25.5 9.5t21 13.5l4 -3q-4 -48 -4.5 -87t-0.5 -78v-37v-34t0.5 -36t1.5 -43q2 -21 11.5 -29.5t20.5 -13.5z" />
    <glyph glyph-name="j" unicode="j" horiz-adv-x="200" 
d="M141 526q0 -17 -13 -30t-31 -13t-30.5 13t-12.5 30q0 19 12.5 31.5t30.5 12.5t31 -12.5t13 -31.5zM137 358q-2 -24 -3 -57t-1.5 -67.5t-0.5 -66v-51.5q0 -80 -7.5 -129t-23 -80.5t-41 -52.5t-61.5 -43l-2 5q33 24 48.5 53.5t21 66.5t5 81.5t-0.5 98.5q0 29 -0.5 73
t-2.5 92q-1 22 -11 30.5t-21 8.5l-1 5q23 5 51.5 12t46.5 24z" />
    <glyph glyph-name="k" unicode="k" horiz-adv-x="441" 
d="M445 -3q-21 2 -51.5 2.5t-59.5 -2.5q-20 23 -43 48t-46.5 50t-46 48t-42.5 43l-12 -10l-12 -10q0 -39 0.5 -68t1.5 -55q2 -21 11.5 -29.5t20.5 -13.5l-1 -4q-11 2 -30.5 3t-31.5 1t-33 -1t-32 -3l-1 4q10 5 20 13.5t11 29.5q1 24 1.5 50t1 58.5t0.5 75v101.5v99
t-0.5 71.5t-1 54.5t-1.5 48q-1 21 -11 30t-21 9l-1 4q27 5 54 12.5t44 19.5l4 -2q-4 -48 -4.5 -138t-0.5 -208v-141q19 17 42 38t45.5 42.5t43 41.5t35.5 37q7 -1 19.5 -1.5t26 -0.5t25 0.5t17.5 1.5l2 -6q-40 -20 -87 -49.5t-98 -67.5q38 -39 73 -76.5t66 -68t57.5 -51
t47.5 -25.5z" />
    <glyph glyph-name="l" unicode="l" horiz-adv-x="200" 
d="M165 -4q-11 2 -30.5 3t-31.5 1t-33 -1t-32 -3l-1 4q10 5 20 13.5t11 29.5q1 24 1.5 50t1 58.5t0.5 75v101.5v99t-0.5 71.5t-1 54.5t-1.5 48q-1 21 -11 30t-21 9l-1 4q27 5 54 12.5t44 19.5l4 -2q-4 -48 -4.5 -138t-0.5 -208v-101.5v-75t0.5 -58.5t1.5 -50
q2 -21 11.5 -29.5t20.5 -13.5z" />
    <glyph glyph-name="m" unicode="m" horiz-adv-x="750" 
d="M715 -4q-11 2 -29 3t-30 1h-15t-19 -0.5t-19 -1.5t-15 -2l-1 4q10 5 20 13.5t11 29.5q0 16 0.5 22.5t1 10.5t0.5 8v15v33v61q0 71 -20 105t-77 34q-52 0 -81.5 -31.5t-32.5 -92.5q-1 -8 -0.5 -14.5t0.5 -13.5v-54v-29v-14t0.5 -7.5t0.5 -10t1 -22.5q1 -21 11 -29.5
t20 -13.5l-1 -4q-11 2 -28.5 3t-29.5 1h-15.5t-19.5 -0.5t-19 -1.5t-14 -2l-1 4q10 5 20 13.5t11 29.5q0 16 0.5 22.5t1 10.5t0.5 8v15v33v61q0 71 -20 105t-77 34q-44 0 -72.5 -23.5t-40.5 -66.5q-2 -11 -3 -21.5t-2 -21.5v-12v-35v-32.5t0.5 -35t1.5 -41.5
q2 -21 11.5 -29.5t20.5 -13.5l-1 -4q-11 2 -30 3t-31 1q-13 0 -34 -1t-32 -3l-1 4q10 5 20 13.5t11 29.5q2 49 2.5 82t0.5 68v21.5t-0.5 13t-1 18t-1.5 35.5q-1 22 -11 30.5t-21 8.5l-1 5q11 3 24.5 6t27 7t25.5 9.5t21 13.5l4 -3q-2 -24 -3 -46t-1 -42q14 41 47 64.5
t81 23.5q66 0 98.5 -26.5t42.5 -72.5q14 45 47.5 72t84.5 27q43 0 72 -12t45.5 -33.5t23.5 -52t7 -67.5v-61v-33v-15t0.5 -8t0.5 -10.5t1 -22.5q1 -21 11 -29.5t21 -13.5z" />
    <glyph glyph-name="n" unicode="n" 
d="M448 -4q-11 2 -29 3t-29 1h-15.5t-19.5 -0.5t-19 -1.5t-15 -2l-1 4q11 5 21 13.5t11 29.5q0 16 0.5 22.5t1 10.5t0.5 8v15v33v61q0 71 -22.5 105t-79.5 34q-47 0 -76.5 -26t-43.5 -74v-39v-37v-34t0.5 -36t1.5 -43q2 -21 11.5 -29.5t20.5 -13.5l-1 -4q-11 2 -30 3t-31 1
q-13 0 -34 -1t-32 -3l-1 4q10 5 20 13.5t11 29.5q2 49 2.5 82t0.5 68v21.5t-0.5 13t-1 18t-1.5 35.5q-1 22 -11 30.5t-21 8.5l-1 5q11 3 24.5 6t27 7t25.5 9.5t21 13.5l4 -3q-2 -23 -3 -44t-1 -41q15 39 48.5 62t81.5 23q43 0 72.5 -12t47.5 -33.5t25.5 -52t7.5 -67.5v-61
v-33v-15t0.5 -8t0.5 -10.5t1 -22.5q1 -21 11 -29.5t19 -13.5v-4z" />
    <glyph glyph-name="o" unicode="o" horiz-adv-x="486" 
d="M441 171q0 -45 -16 -79.5t-43.5 -58t-63.5 -36t-75 -12.5t-75 12.5t-63.5 36t-43.5 58t-16 79.5t16 80t43.5 59t63.5 36t75 12t75 -12t63.5 -36t43.5 -59t16 -80zM367 171q0 44 -10 75t-27 51t-39.5 29.5t-47.5 9.5t-47.5 -9.5t-39.5 -29.5t-27 -51t-10 -75q0 -43 10 -74
t27 -51t39.5 -29.5t47.5 -9.5t47.5 9.5t39.5 29.5t27 51t10 74z" />
    <glyph glyph-name="p" unicode="p" horiz-adv-x="486" 
d="M441 171q0 -45 -15.5 -80t-42.5 -58.5t-62.5 -35.5t-75.5 -12q-27 0 -57 8.5t-56 24.5q0 -20 -0.5 -46t1.5 -43q0 -28 3 -48.5t7 -47.5q2 -12 9 -16.5t14 -8.5l-1 -4q-11 2 -30 3t-31 1q-13 0 -34 -1t-32 -3l-1 4q10 5 20 13.5t11 29.5q2 49 2.5 101.5t0.5 88.5
q0 73 -0.5 132.5t-2.5 108.5q-1 22 -11 30.5t-21 8.5l-1 5q11 2 24.5 5t27 7.5t25.5 9.5t21 12l4 -3q0 -17 -3 -41q21 15 52 28.5t65 13.5q38 0 72.5 -12t60.5 -36t41.5 -59t15.5 -80zM370 171q0 38 -12 67.5t-31 49.5t-43 30.5t-49 10.5q-35 0 -59.5 -9.5t-41.5 -23.5
q-1 -25 -1.5 -53.5t-0.5 -57.5v-56.5v-51.5v-37q20 -15 45.5 -24t59.5 -9q27 0 51 11t42.5 32t29 51.5t10.5 69.5z" />
    <glyph glyph-name="q" unicode="q" 
d="M448 -196q-14 3 -30 3.5t-30 0.5q-16 0 -34.5 -0.5t-32.5 -3.5l-1 4q14 6 22.5 14.5t9.5 28.5q2 32 1.5 57t-0.5 51q1 14 1 35v36q-22 -17 -54.5 -31t-67.5 -14q-41 0 -75.5 13t-59 37.5t-38.5 59t-14 76.5q0 44 14.5 79t40.5 59t61 36.5t76 12.5q28 0 56.5 -7t51.5 -19
q17 3 37.5 10t34.5 18l3 -3q-3 -53 -3.5 -121t-0.5 -148v-71v-55.5t1 -55.5v-27t1 -28q1 -20 9 -28.5t22 -14.5zM354 136v77t-2 69q-1 10 -3.5 17.5t-8.5 11.5q-2 3 -4.5 4t-5.5 3l-1 1q-16 8 -37.5 13t-43.5 5q-31 0 -55.5 -13t-41.5 -35.5t-26 -53t-9 -64.5q0 -35 11 -64
t29.5 -49.5t42.5 -31.5t51 -11q35 0 60.5 10t43.5 24v87z" />
    <glyph glyph-name="r" unicode="r" horiz-adv-x="309" 
d="M292 277l-4 -6q-8 18 -26.5 29.5t-44.5 11.5q-32 0 -52 -16t-33 -48v-55v-37v-34t0.5 -36t1.5 -43q2 -21 11.5 -29.5t20.5 -13.5l-1 -4q-11 2 -30 3t-31 1q-13 0 -34 -1t-32 -3l-1 4q10 5 20 13.5t11 29.5q2 49 2.5 82t0.5 68v21.5t-0.5 13t-1 18t-1.5 35.5
q-1 22 -11 30.5t-21 8.5l-1 5q11 3 24.5 6t27 7t25.5 9.5t21 13.5l4 -3q-2 -21 -3 -40t-1 -37q17 35 45 56t63 21q14 0 29 -4.5t22 -15.5v-61z" />
    <glyph glyph-name="s" unicode="s" horiz-adv-x="381" 
d="M336 93q0 -24 -11.5 -44t-32 -34.5t-47.5 -22t-57 -7.5q-37 0 -74 11t-57 25l-14 69l5 1q24 -42 61 -62.5t83 -20.5q44 0 67 18.5t23 46.5q0 25 -16.5 39.5t-42 24t-54.5 16.5t-54.5 18.5t-42 30t-16.5 50.5q0 27 11 46.5t30 33t42.5 20t49.5 6.5q38 0 67 -7.5t46 -21.5
l13 -58l-5 -2q-23 37 -52.5 52t-68.5 15q-34 0 -57.5 -14t-23.5 -43q0 -24 17 -36.5t42 -21t55 -16t55 -20.5t42 -34.5t17 -57.5z" />
    <glyph glyph-name="t" unicode="t" horiz-adv-x="297" 
d="M295 41q-18 -24 -48 -40t-69 -16q-32 0 -50.5 10t-29 24.5t-13.5 32t-3 32.5q0 24 0.5 43.5t1 44t0.5 59v87.5h-69l-3 9q59 8 90 39.5t39 82.5l8 -1q-1 -16 -1.5 -32.5t-0.5 -51.5v-20h123v-26h-123v-80t0.5 -61t1 -49t0.5 -44q0 -42 16.5 -57t45.5 -15q19 0 38 8t41 27z
" />
    <glyph glyph-name="u" unicode="u" 
d="M448 18q-22 -5 -51.5 -12.5t-47.5 -23.5l-3 3q2 24 3.5 45t1.5 41q-17 -40 -50 -63t-79 -23q-44 0 -73.5 12t-47.5 33.5t-25.5 52t-7.5 67.5v61v33v15t-0.5 8t-1 10.5t-0.5 22.5q-1 22 -11 30.5t-20 13.5l1 3q5 -1 18 -2t28 -1.5t28.5 0t21.5 2.5l-1.5 -36t-0.5 -28v-45
v-87q0 -72 23 -105.5t78 -33.5q47 0 77 26.5t44 75.5v37v37.5t-0.5 33.5t-1 36t-1.5 43q-1 22 -10.5 30.5t-20.5 13.5l1 3q6 -1 17.5 -2t25 -2t28 -0.5t26.5 3.5q-1 -24 -1.5 -51t-1 -53.5t-0.5 -50v-41.5v-20.5t0.5 -13.5t1 -18.5t1.5 -35.5q1 -21 11 -30.5t21 -9.5v-4z
" />
    <glyph glyph-name="v" unicode="v" horiz-adv-x="395" 
d="M401 344q-12 -5 -24 -14.5t-20 -27.5q-10 -20 -15.5 -30t-11 -21.5t-14.5 -30t-26 -55.5q-20 -43 -32.5 -69t-20.5 -44t-14.5 -32.5t-15.5 -34.5h-20q-8 20 -19.5 46t-25 54t-27 56.5t-24.5 53.5q-7 14 -11.5 24t-9.5 20.5t-11 23t-16 32.5q-10 17 -23 30t-24 17v3
q6 -1 14.5 -1.5t18 -1t18.5 -0.5h15h15t19 0.5t19 1t14 1.5v-3l-9 -4.5t-9 -6.5t-5 -9.5t2 -14.5q8 -20 13 -31.5t9.5 -21t9 -20t12.5 -27.5q19 -41 34.5 -73.5t34.5 -73.5l55 121q15 34 23.5 53.5t14 31.5t8.5 21t8 22q4 9 2.5 14.5t-5 9.5t-9 6.5t-9.5 4.5l1 3
q19 -3 44 -3q22 0 46 3z" />
    <glyph glyph-name="w" unicode="w" horiz-adv-x="607" 
d="M613 344q-11 -5 -21.5 -14.5t-19.5 -27.5q-9 -20 -14 -30t-10.5 -21.5t-13.5 -30l-24 -55.5q-18 -44 -29.5 -70t-19.5 -44t-14 -32t-14 -34h-19q-5 15 -14 36.5t-20.5 47t-23.5 53.5t-23 55l-31 73q-4 -11 -10 -25.5l-12 -29t-11.5 -26.5t-7.5 -18q-15 -36 -25.5 -61
t-18.5 -43.5t-14 -32.5t-11 -29h-18q-8 20 -19 46t-23.5 54t-25 56.5t-22.5 53.5q-6 14 -10.5 24t-9 20.5t-10.5 23t-15 32.5q-8 17 -20 30t-23 18v3q11 -2 30.5 -2.5t30.5 -0.5h15t18.5 0.5t18 1t12.5 1.5l1 -3q-4 -2 -8.5 -4.5t-8 -6.5t-4.5 -9.5t2 -14.5q7 -20 12 -31.5
t9 -21.5t8.5 -20.5t11.5 -27.5q9 -21 16.5 -38l15 -34l15 -34t15.5 -38q5 12 8.5 20.5t8 19.5t11.5 27.5t19 45.5q11 23 30 69t40 99h6q11 -29 25.5 -63.5t31.5 -76.5l62 -141q8 21 13 32.5t9.5 22t10 24.5t16.5 39l51 128q3 9 2 14.5t-5 9.5t-9.5 6.5t-9.5 4.5l2 3
q18 -3 41 -3q20 0 43 3z" />
    <glyph glyph-name="x" unicode="x" horiz-adv-x="389" 
d="M383 -3q-12 2 -32.5 2.5t-33.5 0.5q-12 0 -33.5 -0.5t-31.5 -2.5l-1 3q4 1 9.5 3t9.5 5.5t4.5 8.5t-4.5 13q-21 33 -45.5 66.5t-43.5 59.5q-17 -21 -27.5 -34.5t-19.5 -25.5t-19.5 -26.5t-27.5 -37.5q-5 -8 -4.5 -13t4.5 -9t10 -6.5t11 -3.5l-2 -3q-11 2 -20.5 2.5
t-23.5 0.5t-25 -0.5t-24 -2.5l-1 3q13 3 27 14.5t27 28.5q15 18 23.5 28t18 21t23 28t37.5 47l2 2q-22 30 -36.5 49.5t-24.5 33t-17.5 23.5t-16.5 21q-13 15 -28.5 29t-28.5 19l1 3q12 -2 33 -2.5t33 -0.5q13 0 34 0.5t31 2.5l1 -3q-4 -2 -9.5 -4t-9 -5t-4.5 -8t4 -13
q10 -15 17.5 -26.5l15 -23t17 -24t22.5 -29.5q10 12 18 22.5t16.5 21.5t18 24t22.5 31q5 8 4.5 13.5t-4.5 9.5t-10 6.5t-10 4.5l1 3q21 -3 47 -3q14 0 23.5 0.5t22.5 2.5l1 -3q-13 -5 -27 -16.5t-27 -26.5l-86 -105q3 -3 10.5 -13t11.5 -15q9 -13 21.5 -29t25 -32.5
t24.5 -32t21 -26.5q13 -16 28 -30.5t28 -17.5z" />
    <glyph glyph-name="y" unicode="y" horiz-adv-x="396" 
d="M401 344q-12 -5 -23 -14.5t-20 -27.5l-18.5 -37t-18 -37t-22 -45.5t-29.5 -61.5q-20 -43 -42.5 -91t-42.5 -92t-36.5 -79t-24.5 -53q-30 6 -67 0l-3 7q48 30 78.5 79t53.5 98q-8 19 -19.5 44t-24.5 52.5t-26 55.5t-24 53l-49 101q-10 17 -23 29.5t-24 17.5v3
q6 -1 14.5 -1.5t18 -1t18.5 -0.5h15h15t19 0.5t19 1t14 1.5v-3l-9 -4.5t-9 -6.5t-5 -9.5t2 -14.5q8 -20 13.5 -31.5t10 -21.5t9 -20.5t12.5 -27.5q19 -41 34.5 -73.5t34.5 -73.5q9 21 14.5 33t10.5 23t11.5 25.5t18.5 39.5q15 34 23.5 53.5t14 31.5t9 21t8.5 22
q4 9 2.5 14.5t-6 9.5t-10 6.5t-9.5 4.5l1 3q21 -3 45 -3q22 0 46 3v-3z" />
    <glyph glyph-name="z" unicode="z" horiz-adv-x="363" 
d="M334 57l-14 -57h-295l-3 3q12 16 28 37.5t32.5 44.5t32 44.5t27.5 38.5q32 43 60 83t52 78q-57 -2 -108.5 -11t-96.5 -32l-4 2l12 56h272l1 -5q-24 -32 -55 -76t-67 -95q-22 -30 -51 -71.5t-57 -81.5q59 1 118.5 11.5t109.5 33.5z" />
    <glyph glyph-name="braceleft" unicode="{" horiz-adv-x="296" 
d="M271 -109q-27 10 -55.5 25.5t-51 42t-35 66.5t-7.5 100q3 31 4.5 65.5t-4.5 63.5t-23 48t-51 19v14q34 0 51 19t23 48t4.5 63.5t-4.5 65.5q-5 60 7.5 100t35 66.5t51 42t55.5 26.5l5 -9q-35 -14 -56 -35t-31.5 -48.5t-12 -62.5t3.5 -77q4 -38 -1 -72t-17 -61t-31 -45.5
t-43 -27.5q24 -8 43 -27t31 -46t17 -61t1 -72q-5 -42 -3.5 -77t12 -62.5t31.5 -48.5t56 -35z" />
    <glyph glyph-name="bar" unicode="|" horiz-adv-x="208" 
d="M80 -101q2 95 2.5 173.5t1.5 135.5q1 67 1 120t-1 120q-1 57 -1.5 135.5t-2.5 173.5h48q-2 -95 -2.5 -173.5t-1.5 -135.5q-1 -67 -1 -120t1 -120q1 -57 1.5 -135.5t2.5 -173.5h-48z" />
    <glyph glyph-name="braceright" unicode="}" horiz-adv-x="296" 
d="M248 321q-33 0 -50 -19t-23.5 -48t-5 -63.5t4.5 -65.5q5 -60 -7.5 -100t-35 -66.5t-51 -42t-55.5 -25.5l-5 8q35 14 56 35t31.5 48.5t11.5 62.5t-3 77q-4 38 1 72t17 61t30.5 46t42.5 27q-24 9 -42.5 27.5t-30.5 45.5t-17 61t-1 72q4 42 3 77t-11.5 62.5t-31.5 48.5
t-56 35l5 9q27 -11 55.5 -26.5t51 -42t35 -66.5t7.5 -100q-3 -31 -4.5 -65.5t5 -63.5t23.5 -48t50 -19v-14z" />
    <glyph glyph-name="asciitilde" unicode="~" horiz-adv-x="567" 
d="M541 361q-7 -14 -21.5 -29.5t-34 -28.5t-42 -21t-45.5 -8q-32 0 -63 9.5t-60 20.5t-56.5 20.5t-52.5 9.5q-76 0 -129 -49l-12 10q7 14 21.5 29.5t34 28t42 21t45.5 8.5q32 0 63 -9t60.5 -20.5t57 -20.5t52.5 -9q76 0 128 48z" />
    <glyph glyph-name="uni00A0" unicode="&#xa0;" horiz-adv-x="209" 
 />
    <glyph glyph-name="exclamdown" unicode="&#xa1;" horiz-adv-x="218" 
d="M159 381q0 -21 -14.5 -35t-34.5 -14q-21 0 -35.5 14t-14.5 35q0 20 14.5 34.5t35.5 14.5q20 0 34.5 -14.5t14.5 -34.5zM155 -236h-88l38 515h11z" />
    <glyph glyph-name="cent" unicode="&#xa2;" horiz-adv-x="417" 
d="M384 47q-17 -23 -52 -41t-77 -21v-41.5t1 -44.5h-29q1 23 1 44.5v41.5q-38 3 -71 16.5t-58 37t-39.5 57t-14.5 75.5t14.5 76t39.5 58t58.5 37t70.5 15v53.5t-1 56.5h29l-2 -110q40 -1 68.5 -12t47.5 -29l5 -61l-5 -4q-5 15 -15 29.5t-25 26.5t-34 19.5t-42 8.5
q-1 -35 -1 -63v-48v-41v-45v-53t1 -69h6q44 -1 73 10.5t51 31.5v-11zM231 224q0 20 -0.5 47.5t-0.5 62.5q-58 -8 -86 -50.5t-28 -95.5q0 -35 9.5 -63.5t25 -50t36 -35t43.5 -19.5q0 38 0.5 68t0.5 51v44v41z" />
    <glyph glyph-name="sterling" unicode="&#xa3;" horiz-adv-x="548" 
d="M522 93q-2 -21 -10.5 -41.5t-23 -36t-34 -25.5t-43.5 -10q-27 0 -48.5 5.5t-39.5 14.5t-33.5 20.5t-30.5 23.5q-24 -31 -54.5 -47.5t-62.5 -16.5q-39 0 -64 17.5t-25 50.5t25 53.5t65 20.5q26 0 49.5 -7t47.5 -16q5 22 5 48q0 29 -6 51t-16 42q-23 0 -66.5 -0.5
t-99.5 -2.5v32q48 -1 86.5 -1.5t62.5 -0.5q-18 26 -40.5 49t-42 48.5t-33 56.5t-13.5 74q0 44 17 78t46 57t67.5 34.5t80.5 11.5q57 0 94 -14t64 -39l9 -67l-6 -5q-29 52 -71.5 73.5t-93.5 21.5q-26 0 -49.5 -8t-42 -23.5t-29.5 -38t-11 -52.5q0 -45 16 -76.5t38 -58.5
t45.5 -55t37.5 -67q26 0 66 0.5t91 1.5v-32q-48 2 -86 2.5t-63 0.5q3 -14 5 -29.5t2 -32.5q0 -53 -22 -97q31 -14 64.5 -25.5t74.5 -11.5q39 0 64.5 14.5t29.5 35.5zM231 65q-20 13 -41 21t-47 8t-42.5 -12.5t-16.5 -33.5q0 -18 15 -29t41 -11q66 0 91 57z" />
    <glyph glyph-name="currency" unicode="&#xa4;" horiz-adv-x="533" 
d="M489 518l-72 -70q19 -23 30 -53.5t11 -66.5q0 -35 -10.5 -65t-29.5 -53l72 -70l-35 -35l-16 16t-20.5 21t-20 21t-14.5 15q-24 -18 -54 -27t-63 -9q-34 0 -64 9.5t-55 26.5l-71 -72l-34 34l71 70q-39 47 -39 118q0 36 10.5 66t29.5 53l-72 70l35 35q5 -6 15 -16t20.5 -21
t20 -21t14.5 -15q25 17 55 26.5t64 9.5q32 0 62 -9.5t55 -26.5q5 5 14.5 15t20 21t20.5 21l16 16zM414 328q0 35 -11.5 62.5t-31.5 46.5t-47 29t-57 10q-31 0 -58 -10t-47 -29t-31.5 -46.5t-11.5 -62.5t11.5 -62t31.5 -46t47 -28.5t58 -9.5q30 0 57 9.5t47 28.5t31.5 46
t11.5 62z" />
    <glyph glyph-name="yen" unicode="&#xa5;" horiz-adv-x="590" 
d="M552 642q-40 -58 -78 -113t-69.5 -101t-54.5 -80t-34 -50v-29q25 1 76.5 1t121.5 2v-48q-69 2 -121 2.5t-77 0.5l1 -79q26 0 77 0.5t120 2.5v-48q-69 2 -120 2t-77 1l2 -106h-48q0 29 0.5 55t0.5 51q-25 -1 -76.5 -1t-120.5 -2v48q69 -2 121 -2.5t77 -0.5v79
q-24 0 -76 -0.5t-122 -2.5v48q70 -2 122 -2t76 -1v29q-11 16 -34 50t-54.5 80t-69.5 101t-78 113l41 26q37 -57 72.5 -110t65 -96.5t50.5 -74t29 -42.5q8 12 29 42.5t50 74t64.5 96.5t73.5 110z" />
    <glyph glyph-name="brokenbar" unicode="&#xa6;" horiz-adv-x="208" 
d="M80 -101q2 42 2.5 77.5t1.5 61.5q1 30 1 54t-1 54q-1 26 -1.5 61t-2.5 78h48q-2 -43 -2.5 -78t-1.5 -61q-1 -30 -1 -54t1 -54q1 -26 1.5 -61.5t2.5 -77.5h-48zM80 371q2 42 2.5 77.5t1.5 61.5q1 30 1 54t-1 54q-1 26 -1.5 61t-2.5 78h48q-2 -43 -2.5 -78t-1.5 -61
q-1 -30 -1 -54t1 -54q1 -26 1.5 -61.5t2.5 -77.5h-48z" />
    <glyph glyph-name="section" unicode="&#xa7;" horiz-adv-x="340" 
d="M296 299q0 -71 -51 -105q4 -8 5.5 -17.5t1.5 -18.5q0 -21 -8 -39t-21 -31t-30 -20.5t-35 -7.5q-22 0 -41.5 7t-31.5 23l-5 57l4 2q9 -31 31 -48.5t44 -17.5q25 0 39 13.5t14 37.5q0 20 -12.5 40t-31 41t-40 43.5t-40 48.5t-31 56t-12.5 65t13.5 62t37.5 44q-3 11 -5.5 20
t-2.5 19q0 19 7.5 36.5t20 30.5t29.5 20.5t35 7.5q46 0 71 -31l5 -57l-4 -2q-8 27 -29 47t-44 20t-36.5 -12.5t-13.5 -34.5q0 -21 12.5 -41t31 -41.5t40 -44.5t40 -49.5t31 -57t12.5 -65.5zM262 261q0 36 -19 68.5t-44.5 63t-52 61t-42.5 62.5q-12 -9 -19 -21t-7 -29
q0 -37 19.5 -69t45.5 -62.5t53.5 -60.5t42.5 -61q11 8 17 19.5t6 28.5z" />
    <glyph glyph-name="dieresis" unicode="&#xa8;" horiz-adv-x="253" 
d="M239 502q0 -17 -11.5 -28t-28.5 -11q-16 0 -27.5 11t-11.5 28q0 16 11.5 27.5t27.5 11.5q17 0 28.5 -11.5t11.5 -27.5zM94 502q0 -17 -11.5 -28t-28.5 -11t-28 11t-11 28q0 16 11 27.5t28 11.5t28.5 -11.5t11.5 -27.5z" />
    <glyph glyph-name="copyright" unicode="&#xa9;" horiz-adv-x="846" 
d="M775 328q0 -80 -28 -144t-76 -109.5t-112.5 -70t-136.5 -24.5t-136 24.5t-112.5 70t-76.5 109.5t-28 144q0 79 28 143.5t76.5 110t112.5 70t136 24.5t136.5 -24.5t112.5 -70t76 -110t28 -143.5zM752 328q0 76 -26 137t-70.5 103.5t-104.5 65t-129 22.5
q-68 0 -127.5 -22.5t-104 -65t-70.5 -103.5t-26 -137q0 -77 26 -137.5t70.5 -103t104 -65t127.5 -22.5q69 0 129 22.5t104.5 65t70.5 103t26 137.5zM615 211l-3 -43q-32 -35 -77.5 -55t-103.5 -20q-49 0 -94 15.5t-79.5 45.5t-55.5 74t-21 100t21 100t55.5 74t79.5 45.5
t94 15.5q51 0 99 -16.5t79 -49.5l4 -53l-5 -2q-24 49 -71.5 70.5t-98.5 21.5q-38 0 -70.5 -14t-56.5 -40t-37.5 -64.5t-13.5 -87.5t13.5 -87.5t37.5 -64.5t56.5 -40t70.5 -14q58 0 97.5 22.5t74.5 67.5z" />
    <glyph glyph-name="ordfeminine" unicode="&#xaa;" horiz-adv-x="302" 
d="M268 463q-17 -2 -37 -7t-28 -14l-5 3q1 7 1 12.5v11.5q-14 -11 -31.5 -19t-37.5 -8q-41 0 -67 18t-26 52q0 17 10 30t27.5 22t41 13.5t49.5 4.5q9 0 17.5 -0.5t17.5 -1.5v20q0 48 -50 48q-33 0 -53 -16t-34 -34l-6 2v36q21 17 43 24.5t51 7.5q27 0 45 -6.5t29 -16.5
t15.5 -22t4.5 -23v-51t0.5 -23.5t1 -13t1.5 -20.5q0 -14 6 -19t14 -5v-5zM200 561q-11 2 -20.5 2.5t-20.5 0.5q-29 0 -48 -12t-19 -39q0 -29 16 -39.5t30 -10.5q38 0 62 30v68zM262 362h-224v31h224v-31z" />
    <glyph glyph-name="guillemotleft" unicode="&#xab;" horiz-adv-x="407" 
d="M371 84q-36 41 -81.5 81.5t-96.5 74.5v4q13 8 35.5 25.5t48 40t51 46.5t43.5 45l5 -2q-7 -41 -33.5 -83.5t-54.5 -73.5q28 -32 54.5 -74t33.5 -83zM208 84q-36 41 -81.5 81.5t-96.5 74.5v4q13 8 35.5 25.5t48 40t51 46.5t43.5 45l6 -2q-7 -41 -34 -83.5t-55 -73.5
q28 -32 55 -74t34 -83z" />
    <glyph glyph-name="logicalnot" unicode="&#xac;" horiz-adv-x="541" 
d="M439 349q0 -14 0.5 -42.5t1 -65.5t1 -79t1.5 -82h-49q2 81 3 140.5t1 86.5h-33h-56.5h-71.5t-77.5 -0.5t-74.5 -1t-63 -0.5v48q27 -1 66 -1t82 -0.5t87.5 -1t81.5 -1t64 -0.5h36z" />
    <glyph glyph-name="uni00AD" unicode="&#xad;" horiz-adv-x="277" 
d="M261 217l-11.5 -34.5t-6.5 -36.5h-174q-14 0 -27.5 -2t-21.5 -10l-5 5q3 10 6 18.5t5 16t4 16t4 19.5h172q15 0 28.5 2.5t21.5 9.5z" />
    <glyph glyph-name="registered" unicode="&#xae;" horiz-adv-x="543" 
d="M484 468q0 -48 -17 -86.5t-45.5 -66t-67.5 -42t-82 -14.5q-44 0 -82.5 14.5t-67 42t-45.5 66t-17 86.5t17 86.5t45.5 65.5t67 41.5t82.5 14.5q43 0 82 -14.5t67.5 -41.5t45.5 -65.5t17 -86.5zM465 468q0 45 -15 80.5t-41.5 60t-61.5 38t-75 13.5t-75 -13.5t-61.5 -38
t-42 -60t-15.5 -80.5t15.5 -80.5t42 -60.5t61.5 -38t75 -13t75 13t61.5 38t41.5 60.5t15 80.5zM395 332q-13 -9 -37 -9q-21 0 -34 18.5t-23.5 42t-21 44.5t-28.5 27q-6 -1 -11.5 -1h-11.5v-40v-27t0.5 -19.5t1.5 -18.5q0 -9 4 -12t9 -5v-7q-5 1 -17.5 1h-17.5h-18t-16 -1
l-2 7q5 2 9.5 5t5.5 12q0 10 0.5 21t0.5 24.5v31.5v42v42v31.5t-0.5 24.5t-0.5 21q-1 8 -4.5 12t-8.5 4v6q2 0 11.5 0.5t20.5 0.5h20.5h12.5q66 0 93.5 -22.5t27.5 -51.5q0 -32 -22.5 -51.5t-57.5 -26.5q18 -10 33 -31.5t28.5 -42.5t26 -35t26.5 -10zM317 536q0 20 -8 31.5
t-21 17.5t-28 7.5t-30 1.5q-2 -19 -2 -49v-72q15 -2 31 -0.5t28.5 8.5t21 20t8.5 35z" />
    <glyph glyph-name="macron" unicode="&#xaf;" horiz-adv-x="263" 
d="M249 459q-26 2 -47 2t-37 1q-18 0 -33 1q-15 -1 -33 -1q-16 -1 -37 -1t-47 -2v38q51 -3 84 -3h33h33q31 0 84 3v-38z" />
    <glyph glyph-name="degree" unicode="&#xb0;" horiz-adv-x="287" 
d="M254 560q0 -50 -32.5 -79t-78.5 -29q-23 0 -43 7.5t-35 21.5t-24 34t-9 45t9 45t24 34.5t35 22t43 7.5q46 0 78.5 -29t32.5 -80zM220 560q0 36 -22.5 56t-54.5 20q-31 0 -53.5 -20t-22.5 -56q0 -35 22.5 -55t53.5 -20q32 0 54.5 20t22.5 55z" />
    <glyph glyph-name="plusminus" unicode="&#xb1;" horiz-adv-x="541" 
d="M519 305q-81 2 -140.5 2h-87.5q1 -27 1.5 -86.5t2.5 -140.5h-49q2 81 3 140.5t1 86.5h-87t-141 -2v48q81 -2 141 -3t87 -1q0 27 -1 87t-3 141h49q-2 -81 -2.5 -141t-1.5 -87q28 0 87.5 1t140.5 3v-48zM519 -3q-55 1 -100.5 2t-78.5 1h-69h-70q-33 0 -78.5 -1t-100.5 -2
v48q55 -2 100.5 -2.5t78.5 -0.5h70h69q33 0 78.5 0.5t100.5 2.5v-48z" />
    <glyph glyph-name="uni00B2" unicode="&#xb2;" horiz-adv-x="364" 
d="M331 291q-5 -8 -9 -18t-7.5 -19.5t-6 -17.5t-3.5 -12h-268l-2 9q27 25 63.5 60.5t70 76t57 84t23.5 84.5q0 42 -23 64t-65 22q-34 0 -60 -17t-51 -44l-12 8q11 19 26.5 37t34 31.5t40 21.5t43.5 8q34 0 58.5 -9t40.5 -25t23.5 -37.5t7.5 -46.5q0 -38 -20.5 -75.5t-51 -73
t-66.5 -68t-66 -58.5q11 -1 25 -0.5t28 0.5q22 0 43.5 0.5t40.5 1.5t33 2t20 3q10 3 13.5 4.5t10.5 5.5z" />
    <glyph glyph-name="uni00B3" unicode="&#xb3;" horiz-adv-x="351" 
d="M92 211q-32 0 -59 6l-6 27q27 -11 63 -11q25 0 53.5 6.5t51.5 21.5t38.5 40.5t15.5 63.5q0 46 -28.5 68.5t-68.5 22.5q-13 0 -27.5 -4t-29.5 -11l-10 20q60 18 91 44.5t31 65.5q0 31 -20 46t-51 15q-35 0 -60.5 -16t-45.5 -36l-13 10q24 31 62 55t83 24q51 0 76.5 -22
t25.5 -59q0 -29 -20 -52.5t-49 -40.5q54 -5 85.5 -38t31.5 -82q0 -36 -18.5 -66t-49.5 -52t-70.5 -34t-81.5 -12z" />
    <glyph glyph-name="acute" unicode="&#xb4;" horiz-adv-x="215" 
d="M234 496q-17 -7 -41 -14t-49.5 -13.5t-49.5 -11t-41 -7.5l-3 7q40 16 84.5 41t78.5 51z" />
    <glyph glyph-name="mu" unicode="&#xb5;" 
d="M413 150v-20.5t0.5 -13.5t1 -18.5t1.5 -35.5q1 -21 11 -30.5t21 -9.5v-4q-22 -5 -51.5 -12.5t-47.5 -23.5l-3 3q2 24 3.5 45t1.5 41q-17 -40 -50 -63t-79 -23q-61 0 -93 34q0 -35 1.5 -88t3.5 -122h-70q2 59 2.5 107.5t1.5 83.5q1 41 1 75t-1 76q-1 36 -1.5 85t-2.5 108
h70q-2 -72 -3.5 -129.5t-1.5 -92.5q4 -58 28 -84.5t74 -26.5q47 0 77 26.5t44 75.5v37q0 25 -1 56q-1 26 -1.5 61.5t-2.5 76.5h70q-2 -41 -3 -76.5t-1 -61.5v-56v0z" />
    <glyph glyph-name="paragraph" unicode="&#xb6;" horiz-adv-x="428" 
d="M398 637q-32 1 -60 2t-51 1q-2 -81 -3 -147t-1 -114q-1 -56 0 -101q-1 -47 0 -106q0 -51 1 -120t3 -153h-32q1 84 2 153t1 120v106v101q0 48 -1 114.5t-2 147.5h-52q-2 -81 -2.5 -147.5t-0.5 -114.5v-101q-1 -47 0 -106q0 -51 1 -120t3 -153h-33q2 84 2 153t1 120
q0 59 1 106v30q0 15 -0.5 36.5t-0.5 49.5q-27 0 -51 10.5t-42.5 28.5t-29.5 41.5t-11 50.5t10.5 51t28 42t41.5 28t51 10h33q24 -1 54 0q26 0 61 1t79 3v-23z" />
    <glyph glyph-name="periodcentered" unicode="&#xb7;" horiz-adv-x="218" 
d="M159 209q0 -20 -14.5 -34.5t-34.5 -14.5q-21 0 -35.5 14.5t-14.5 34.5t14.5 35t35.5 15q20 0 34.5 -15t14.5 -35z" />
    <glyph glyph-name="cedilla" unicode="&#xb8;" horiz-adv-x="152" 
d="M138 -106q0 -11 -6 -24t-19.5 -25.5t-34.5 -23.5t-52 -18l-4 10q24 8 41.5 24t17.5 34q0 12 -6 18t-14 6.5t-16 -3.5t-13 -11l-17 6l42 106l26 3l-30 -78q16 10 31 12.5t27 -1.5t19.5 -13t7.5 -22z" />
    <glyph glyph-name="uni00B9" unicode="&#xb9;" horiz-adv-x="251" 
d="M180 221q-8 2 -24.5 2.5t-24.5 0.5q-7 0 -24.5 -1t-27.5 -3l1 10q7 5 13 9.5t7 15.5q1 29 1 73v112v145q-15 -6 -33.5 -12t-37.5 -11l-2 11q32 20 67.5 45.5t58.5 50.5h9q-2 -31 -2 -91.5v-137.5v-65.5v-49t0.5 -38t1.5 -32.5q0 -11 6.5 -16t14.5 -10z" />
    <glyph glyph-name="ordmasculine" unicode="&#xba;" horiz-adv-x="320" 
d="M284 556q0 -53 -35.5 -83.5t-88.5 -30.5q-26 0 -48.5 8t-39.5 23t-27 36t-10 47t10 46.5t27 35t39.5 22.5t48.5 8q53 0 88.5 -30t35.5 -82zM279 362h-238v31h238v-31zM233 556q0 45 -20.5 68.5t-52.5 23.5q-31 0 -52 -23.5t-21 -68.5t21 -70t52 -25q32 0 52.5 25t20.5 70
z" />
    <glyph glyph-name="guillemotright" unicode="&#xbb;" horiz-adv-x="407" 
d="M376 240q-12 -8 -35 -26t-48.5 -40t-51 -46t-43.5 -44l-5 1q7 41 33.5 83t54.5 74q-28 31 -54.5 73.5t-33.5 83.5l5 2q36 -42 81.5 -82.5t96.5 -74.5v-4zM214 240q-51 -34 -96.5 -74.5t-81.5 -81.5l-6 1q7 41 34 83t55 74q-28 31 -55 73.5t-34 83.5l6 2q18 -21 43 -45
t50.5 -46.5t48.5 -40t36 -25.5v-4z" />
    <glyph glyph-name="onequarter" unicode="&#xbc;" horiz-adv-x="689" 
d="M180 221q-8 2 -24.5 2.5t-24.5 0.5q-7 0 -24.5 -1t-27.5 -3l1 10q7 5 13 9.5t7 15.5q1 29 1 73v112v145q-15 -6 -33.5 -12t-37.5 -11l-2 11q32 20 67.5 45.5t58.5 50.5h9q-2 -31 -2 -91.5v-137.5v-65.5v-49t0.5 -38t1.5 -32.5q0 -11 6.5 -16t14.5 -10zM493 654
q-33 -74 -59.5 -135t-46.5 -106q-23 -52 -41 -93q-17 -41 -39 -93q-19 -45 -44.5 -106.5t-56.5 -136.5l-42 18q32 74 58.5 134.5t46.5 105.5q22 52 40 94t40 94q19 45 44.5 106t55.5 136zM678 134h-67q0 -35 0.5 -58t1.5 -45q2 -12 8 -18t14 -12l-3 -4q-8 2 -25 2.5t-25 0.5
t-25 -1t-28 -3l1 10q8 4 14 9t7 16q0 26 0.5 51.5t0.5 51.5h-181l-4 13l229 298h17q-2 -31 -2 -91.5v-137.5v-59h67v-23zM552 157v196l-148 -196h148z" />
    <glyph glyph-name="onehalf" unicode="&#xbd;" horiz-adv-x="745" 
d="M180 221q-8 2 -24.5 2.5t-24.5 0.5q-7 0 -24.5 -1t-27.5 -3l1 10q7 5 13 9.5t7 15.5q1 29 1 73v112v145q-15 -6 -33.5 -12t-37.5 -11l-2 11q32 20 67.5 45.5t58.5 50.5h9q-2 -31 -2 -91.5v-137.5v-65.5v-49t0.5 -38t1.5 -32.5q0 -11 6.5 -16t14.5 -10zM493 654
q-33 -74 -59.5 -135t-46.5 -106q-23 -52 -41 -93q-17 -41 -39 -93q-19 -45 -44.5 -106.5t-56.5 -136.5l-42 18q32 74 58.5 134.5t46.5 105.5q22 52 40 94t40 94q19 45 44.5 106t55.5 136zM712 67q-5 -8 -9 -18t-7.5 -19.5t-6 -17.5t-3.5 -12h-268l-2 9q27 25 63.5 60.5
t70 76t57 84t23.5 84.5q0 42 -23 64t-65 22q-34 0 -60 -17t-51 -44l-12 8q11 19 26.5 37t34 31.5t40 21.5t43.5 8q34 0 58.5 -9t40.5 -25t23.5 -37.5t7.5 -46.5q0 -38 -20.5 -75.5t-51 -73t-66.5 -68t-66 -58.5q11 -1 25 -0.5t28 0.5q22 0 43.5 0.5t40.5 1.5t33 2t20 3
q10 3 13.5 4.5t10.5 5.5z" />
    <glyph glyph-name="threequarters" unicode="&#xbe;" horiz-adv-x="764" 
d="M92 211q-32 0 -59 6l-6 27q27 -11 63 -11q25 0 53.5 6.5t51.5 21.5t38.5 40.5t15.5 63.5q0 46 -28.5 68.5t-68.5 22.5q-13 0 -27.5 -4t-29.5 -11l-10 20q60 18 91 44.5t31 65.5q0 31 -20 46t-51 15q-35 0 -60.5 -16t-45.5 -36l-13 10q24 31 62 55t83 24q51 0 76.5 -22
t25.5 -59q0 -29 -20 -52.5t-49 -40.5q54 -5 85.5 -38t31.5 -82q0 -36 -18.5 -66t-49.5 -52t-70.5 -34t-81.5 -12zM568 654q-33 -74 -59.5 -135t-46.5 -106q-23 -52 -41 -93q-17 -41 -39 -93q-19 -45 -44.5 -106.5t-56.5 -136.5l-42 18q32 74 58.5 134.5t46.5 105.5
q22 52 40 94t40 94q19 45 44.5 106t55.5 136zM753 134h-67q0 -35 0.5 -58t1.5 -45q2 -12 8 -18t14 -12l-3 -4q-8 2 -25 2.5t-25 0.5t-25 -1t-28 -3l1 10q8 4 14 9t7 16q0 26 0.5 51.5t0.5 51.5h-181l-4 13l229 298h17q-2 -31 -2 -91.5v-137.5v-59h67v-23zM627 157v196
l-148 -196h148z" />
    <glyph glyph-name="questiondown" unicode="&#xbf;" horiz-adv-x="373" 
d="M261 381q0 -21 -14.5 -35t-34.5 -14q-21 0 -35.5 14t-14.5 35q0 20 14.5 34.5t35.5 14.5q20 0 34.5 -14.5t14.5 -34.5zM362 -116q-10 -30 -26.5 -55.5t-38 -44t-47 -29.5t-52.5 -11q-73 0 -115.5 40t-42.5 111q0 47 27 91t59.5 86t59.5 82t27 80q0 20 -9 40l16 7
q11 -21 11 -46q0 -37 -20 -77t-44 -81.5t-44 -82.5t-20 -80q0 -60 30.5 -90.5t84.5 -30.5q23 0 42.5 8t35 22t28 32t22.5 39z" />
    <glyph glyph-name="Agrave" unicode="&#xc0;" horiz-adv-x="637" 
d="M670 -4q-7 1 -17.5 2t-21.5 1.5t-21.5 0.5h-18.5h-19t-25 -0.5t-24.5 -1.5t-17.5 -2l-1 4q5 3 11.5 6t11 7.5t6 11.5t-2.5 18q-14 34 -31 71t-45 94h-325q-26 -57 -42 -93.5t-30 -71.5q-5 -11 -3 -18t7 -11.5t11.5 -7.5t11.5 -6l-1 -4q-12 2 -27 3t-30 1q-14 0 -29 -1
t-29 -3l-2 4q16 5 29.5 17t24.5 35q13 24 25 47.5t27 53.5t34 69.5t46 96.5q55 115 96.5 206t62.5 139h14q10 -24 26 -59t36.5 -79.5t45 -97t51.5 -109.5t46 -95.5t33 -67t25 -51t24 -46.5q11 -22 27.5 -38t31.5 -21zM441 235q-17 37 -39 84q-26 56 -42.5 91.5t-28 61
t-20.5 45.5t-21 45q-12 -25 -22 -48.5t-22.5 -51t-28.5 -62t-38 -81.5q-11 -24 -21 -44.5t-18 -39.5h301zM373 762q-17 3 -41 7.5t-49.5 11t-49.5 13.5t-42 14l22 53q34 -26 78.5 -51t83.5 -41z" />
    <glyph glyph-name="Aacute" unicode="&#xc1;" horiz-adv-x="637" 
d="M670 -4q-7 1 -17.5 2t-21.5 1.5t-21.5 0.5h-18.5h-19t-25 -0.5t-24.5 -1.5t-17.5 -2l-1 4q5 3 11.5 6t11 7.5t6 11.5t-2.5 18q-14 34 -31 71t-45 94h-325q-26 -57 -42 -93.5t-30 -71.5q-5 -11 -3 -18t7 -11.5t11.5 -7.5t11.5 -6l-1 -4q-12 2 -27 3t-30 1q-14 0 -29 -1
t-29 -3l-2 4q16 5 29.5 17t24.5 35q13 24 25 47.5t27 53.5t34 69.5t46 96.5q55 115 96.5 206t62.5 139h14q10 -24 26 -59t36.5 -79.5t45 -97t51.5 -109.5t46 -95.5t33 -67t25 -51t24 -46.5q11 -22 27.5 -38t31.5 -21zM441 235q-17 37 -39 84q-26 56 -42.5 91.5t-28 61
t-20.5 45.5t-21 45q-12 -25 -22 -48.5t-22.5 -51t-28.5 -62t-38 -81.5q-11 -24 -21 -44.5t-18 -39.5h301zM445 808q-17 -7 -41 -14t-49.5 -13.5t-49.5 -11t-41 -7.5l-3 7q40 16 84.5 41t78.5 51z" />
    <glyph glyph-name="Acircumflex" unicode="&#xc2;" horiz-adv-x="637" 
d="M670 -4q-7 1 -17.5 2t-21.5 1.5t-21.5 0.5h-18.5h-19t-25 -0.5t-24.5 -1.5t-17.5 -2l-1 4q5 3 11.5 6t11 7.5t6 11.5t-2.5 18q-14 34 -31 71t-45 94h-325q-26 -57 -42 -93.5t-30 -71.5q-5 -11 -3 -18t7 -11.5t11.5 -7.5t11.5 -6l-1 -4q-12 2 -27 3t-30 1q-14 0 -29 -1
t-29 -3l-2 4q16 5 29.5 17t24.5 35q13 24 25 47.5t27 53.5t34 69.5t46 96.5q55 115 96.5 206t62.5 139h14q10 -24 26 -59t36.5 -79.5t45 -97t51.5 -109.5t46 -95.5t33 -67t25 -51t24 -46.5q11 -22 27.5 -38t31.5 -21zM441 235q-17 37 -39 84q-26 56 -42.5 91.5t-28 61
t-20.5 45.5t-21 45q-12 -25 -22 -48.5t-22.5 -51t-28.5 -62t-38 -81.5q-11 -24 -21 -44.5t-18 -39.5h301zM435 762q-31 4 -62.5 18.5t-54.5 28.5q-23 -14 -55 -28.5t-62 -18.5l-1 8q29 19 60.5 45.5t57.5 55.5q26 -29 58 -55.5t60 -45.5z" />
    <glyph glyph-name="Atilde" unicode="&#xc3;" horiz-adv-x="637" 
d="M670 -4q-7 1 -17.5 2t-21.5 1.5t-21.5 0.5h-18.5h-19t-25 -0.5t-24.5 -1.5t-17.5 -2l-1 4q5 3 11.5 6t11 7.5t6 11.5t-2.5 18q-14 34 -31 71t-45 94h-325q-26 -57 -42 -93.5t-30 -71.5q-5 -11 -3 -18t7 -11.5t11.5 -7.5t11.5 -6l-1 -4q-12 2 -27 3t-30 1q-14 0 -29 -1
t-29 -3l-2 4q16 5 29.5 17t24.5 35q13 24 25 47.5t27 53.5t34 69.5t46 96.5q55 115 96.5 206t62.5 139h14q10 -24 26 -59t36.5 -79.5t45 -97t51.5 -109.5t46 -95.5t33 -67t25 -51t24 -46.5q11 -22 27.5 -38t31.5 -21zM441 235q-17 37 -39 84q-26 56 -42.5 91.5t-28 61
t-20.5 45.5t-21 45q-12 -25 -22 -48.5t-22.5 -51t-28.5 -62t-38 -81.5q-11 -24 -21 -44.5t-18 -39.5h301zM432 818q-7 -12 -17 -24.5t-23.5 -20t-32.5 -9t-44 7.5t-43.5 10.5t-31 -1.5t-20.5 -8.5t-11 -9.5l-4 7q7 13 17 25t24 20t32.5 9t43.5 -8q24 -9 42.5 -10.5t31.5 1
t20.5 8t10.5 9.5z" />
    <glyph glyph-name="Adieresis" unicode="&#xc4;" horiz-adv-x="637" 
d="M670 -4q-7 1 -17.5 2t-21.5 1.5t-21.5 0.5h-18.5h-19t-25 -0.5t-24.5 -1.5t-17.5 -2l-1 4q5 3 11.5 6t11 7.5t6 11.5t-2.5 18q-14 34 -31 71t-45 94h-325q-26 -57 -42 -93.5t-30 -71.5q-5 -11 -3 -18t7 -11.5t11.5 -7.5t11.5 -6l-1 -4q-12 2 -27 3t-30 1q-14 0 -29 -1
t-29 -3l-2 4q16 5 29.5 17t24.5 35q13 24 25 47.5t27 53.5t34 69.5t46 96.5q55 115 96.5 206t62.5 139h14q10 -24 26 -59t36.5 -79.5t45 -97t51.5 -109.5t46 -95.5t33 -67t25 -51t24 -46.5q11 -22 27.5 -38t31.5 -21zM441 235q-17 37 -39 84q-26 56 -42.5 91.5t-28 61
t-20.5 45.5t-21 45q-12 -25 -22 -48.5t-22.5 -51t-28.5 -62t-38 -81.5q-11 -24 -21 -44.5t-18 -39.5h301zM430 814q0 -17 -11.5 -28t-28.5 -11q-16 0 -27.5 11t-11.5 28q0 16 11.5 27.5t27.5 11.5q17 0 28.5 -11.5t11.5 -27.5zM285 814q0 -17 -11.5 -28t-28.5 -11t-28 11
t-11 28q0 16 11 27.5t28 11.5t28.5 -11.5t11.5 -27.5z" />
    <glyph glyph-name="Aring" unicode="&#xc5;" horiz-adv-x="637" 
d="M670 -4q-7 1 -17.5 2t-21.5 1.5t-21.5 0.5h-18.5h-19t-25 -0.5t-24.5 -1.5t-17.5 -2l-1 4q5 3 11.5 6t11 7.5t6 11.5t-2.5 18q-14 34 -31 71t-45 94h-325q-26 -57 -42 -93.5t-30 -71.5q-5 -11 -3 -18t7 -11.5t11.5 -7.5t11.5 -6l-1 -4q-12 2 -27 3t-30 1q-14 0 -29 -1
t-29 -3l-2 4q16 5 29.5 17t24.5 35q13 24 25 47.5t27 53.5t34 69.5t46 96.5q55 115 96.5 206t62.5 139h14q10 -24 26 -59t36.5 -79.5t45 -97t51.5 -109.5t46 -95.5t33 -67t25 -51t24 -46.5q11 -22 27.5 -38t31.5 -21zM441 235q-17 37 -39 84q-26 56 -42.5 91.5t-28 61
t-20.5 45.5t-21 45q-12 -25 -22 -48.5t-22.5 -51t-28.5 -62t-38 -81.5q-11 -24 -21 -44.5t-18 -39.5h301zM393 814q0 -32 -22 -53t-52 -21q-32 0 -53.5 21t-21.5 53q0 30 21.5 52t53.5 22q30 0 52 -22t22 -52zM370 814q0 21 -15 36t-36 15q-23 0 -38 -15t-15 -36
q0 -22 15 -37.5t38 -15.5q21 0 36 15.5t15 37.5z" />
    <glyph glyph-name="AE" unicode="&#xc6;" horiz-adv-x="958" 
d="M941 78q-2 -4 -7.5 -15.5t-12 -24t-11.5 -23.5t-5 -15h-367h-15.5t-20 -0.5t-20 -1.5t-14.5 -2l-1 4q10 5 20 13.5t11 29.5q1 34 1.5 71.5t0.5 93.5h-294q-22 -29 -39 -51.5t-31 -42t-26.5 -36.5t-25.5 -35q-8 -11 -8.5 -18t3 -11.5t9.5 -7.5t11 -6l-4 -4q-11 2 -26 3
t-30 1q-14 0 -29 -1t-30 -3v4q16 5 34 17t35 35q20 24 39.5 47.5t43.5 53.5t55 69.5t76 96.5q74 94 134 172t100 132q-3 16 -12.5 22.5t-17.5 10.5l1 5q5 -2 14.5 -2.5t20 -1.5t20 -1h15.5h333q0 -5 3 -15.5t7 -22.5t8 -23.5t6 -16.5l-5 -5q-28 24 -63 37.5t-74.5 19.5
t-83.5 6t-90 -3q-1 -30 -1.5 -58.5t-0.5 -61v-72.5v-92q83 1 130.5 3t71.5 6.5t32 12.5t12 21l5 -1q-3 -14 -4 -26t-1 -27q0 -16 1 -27t4 -25l-5 -3q-5 13 -12.5 21.5t-31.5 13.5t-71.5 6.5t-130.5 1.5v-167t2 -135q51 -2 102.5 -1t98 7t86.5 18.5t70 34.5zM500 235v93v91.5
v70.5t-0.5 55.5t-1.5 46.5q-38 -50 -88 -116t-120 -157l-65 -84h275z" />
    <glyph glyph-name="Ccedilla" unicode="&#xc7;" horiz-adv-x="767" 
d="M713 136l-2 -52q-45 -49 -112.5 -76t-146.5 -28l-23 -62q23 14 43 14q18 0 30 -10.5t12 -27.5q0 -11 -6 -24t-19.5 -25.5t-35 -23.5t-51.5 -18l-3 10q23 8 40.5 24t17.5 34q0 13 -6.5 19t-15.5 6q-16 0 -26 -15l-18 6l37 93q-72 3 -136 29t-112.5 71t-76.5 108t-28 140
q0 79 30 143.5t80.5 110t118 70t142.5 24.5q37 0 74 -6t71.5 -18t64.5 -30.5t53 -42.5l4 -82l-6 -1q-35 76 -102.5 113t-158.5 37q-58 0 -109 -22.5t-89.5 -63.5t-61 -100t-22.5 -132t22.5 -131.5t61 -100t89.5 -64t109 -22.5q94 0 154.5 31t107.5 97z" />
    <glyph glyph-name="Egrave" unicode="&#xc8;" horiz-adv-x="556" 
d="M539 78q-2 -4 -7.5 -15.5t-12 -24t-11.5 -23.5t-5 -15h-367h-15.5t-20 -0.5t-19.5 -1.5t-15 -2l-1 4q10 5 20 13.5t11 29.5q1 24 1.5 50t0.5 58.5t-0.5 75t-0.5 101.5q0 58 0.5 101t0.5 76t-0.5 59t-1.5 50q-1 21 -11 29.5t-20 12.5l1 5q6 -2 15 -2.5t19.5 -1.5t20 -1
h15.5h333q0 -5 3 -15.5t7 -22.5t8 -23.5t6 -16.5l-5 -5q-28 24 -63 37.5t-74.5 19.5t-83.5 6t-90 -3q-1 -30 -1.5 -58.5t-0.5 -61v-72.5v-92q84 1 131 3t71.5 6.5t32 12.5t11.5 21l5 -1q-3 -14 -4 -26t-1 -27q0 -16 1 -27t4 -25l-5 -3q-5 13 -12.5 21.5t-32 13.5t-71.5 6.5
t-130 1.5v-1v-103v-81t0.5 -64.5t1.5 -52.5q51 -2 102.5 -1t98 7t86.5 18.5t70 34.5zM357 762q-17 3 -41 7.5t-49.5 11t-49.5 13.5t-42 14l22 53q34 -26 78.5 -51t83.5 -41z" />
    <glyph glyph-name="Eacute" unicode="&#xc9;" horiz-adv-x="556" 
d="M539 78q-2 -4 -7.5 -15.5t-12 -24t-11.5 -23.5t-5 -15h-367h-15.5t-20 -0.5t-19.5 -1.5t-15 -2l-1 4q10 5 20 13.5t11 29.5q1 24 1.5 50t0.5 58.5t-0.5 75t-0.5 101.5q0 58 0.5 101t0.5 76t-0.5 59t-1.5 50q-1 21 -11 29.5t-20 12.5l1 5q6 -2 15 -2.5t19.5 -1.5t20 -1
h15.5h333q0 -5 3 -15.5t7 -22.5t8 -23.5t6 -16.5l-5 -5q-28 24 -63 37.5t-74.5 19.5t-83.5 6t-90 -3q-1 -30 -1.5 -58.5t-0.5 -61v-72.5v-92q84 1 131 3t71.5 6.5t32 12.5t11.5 21l5 -1q-3 -14 -4 -26t-1 -27q0 -16 1 -27t4 -25l-5 -3q-5 13 -12.5 21.5t-32 13.5t-71.5 6.5
t-130 1.5v-1v-103v-81t0.5 -64.5t1.5 -52.5q51 -2 102.5 -1t98 7t86.5 18.5t70 34.5zM429 808q-17 -7 -41 -14t-49.5 -13.5t-49.5 -11t-41 -7.5l-3 7q40 16 84.5 41t78.5 51z" />
    <glyph glyph-name="Ecircumflex" unicode="&#xca;" horiz-adv-x="556" 
d="M539 78q-2 -4 -7.5 -15.5t-12 -24t-11.5 -23.5t-5 -15h-367h-15.5t-20 -0.5t-19.5 -1.5t-15 -2l-1 4q10 5 20 13.5t11 29.5q1 24 1.5 50t0.5 58.5t-0.5 75t-0.5 101.5q0 58 0.5 101t0.5 76t-0.5 59t-1.5 50q-1 21 -11 29.5t-20 12.5l1 5q6 -2 15 -2.5t19.5 -1.5t20 -1
h15.5h333q0 -5 3 -15.5t7 -22.5t8 -23.5t6 -16.5l-5 -5q-28 24 -63 37.5t-74.5 19.5t-83.5 6t-90 -3q-1 -30 -1.5 -58.5t-0.5 -61v-72.5v-92q84 1 131 3t71.5 6.5t32 12.5t11.5 21l5 -1q-3 -14 -4 -26t-1 -27q0 -16 1 -27t4 -25l-5 -3q-5 13 -12.5 21.5t-32 13.5t-71.5 6.5
t-130 1.5v-1v-103v-81t0.5 -64.5t1.5 -52.5q51 -2 102.5 -1t98 7t86.5 18.5t70 34.5zM419 762q-31 4 -62.5 18.5t-54.5 28.5q-23 -14 -55 -28.5t-62 -18.5l-1 8q29 19 60.5 45.5t57.5 55.5q26 -29 58 -55.5t60 -45.5z" />
    <glyph glyph-name="Edieresis" unicode="&#xcb;" horiz-adv-x="556" 
d="M539 78q-2 -4 -7.5 -15.5t-12 -24t-11.5 -23.5t-5 -15h-367h-15.5t-20 -0.5t-19.5 -1.5t-15 -2l-1 4q10 5 20 13.5t11 29.5q1 24 1.5 50t0.5 58.5t-0.5 75t-0.5 101.5q0 58 0.5 101t0.5 76t-0.5 59t-1.5 50q-1 21 -11 29.5t-20 12.5l1 5q6 -2 15 -2.5t19.5 -1.5t20 -1
h15.5h333q0 -5 3 -15.5t7 -22.5t8 -23.5t6 -16.5l-5 -5q-28 24 -63 37.5t-74.5 19.5t-83.5 6t-90 -3q-1 -30 -1.5 -58.5t-0.5 -61v-72.5v-92q84 1 131 3t71.5 6.5t32 12.5t11.5 21l5 -1q-3 -14 -4 -26t-1 -27q0 -16 1 -27t4 -25l-5 -3q-5 13 -12.5 21.5t-32 13.5t-71.5 6.5
t-130 1.5v-1v-103v-81t0.5 -64.5t1.5 -52.5q51 -2 102.5 -1t98 7t86.5 18.5t70 34.5zM414 814q0 -17 -11.5 -28t-28.5 -11q-16 0 -27.5 11t-11.5 28q0 16 11.5 27.5t27.5 11.5q17 0 28.5 -11.5t11.5 -27.5zM269 814q0 -17 -11.5 -28t-28.5 -11t-28 11t-11 28q0 16 11 27.5
t28 11.5t28.5 -11.5t11.5 -27.5z" />
    <glyph glyph-name="Igrave" unicode="&#xcc;" horiz-adv-x="273" 
d="M207 -4q-5 1 -14.5 2t-20 1.5t-20 0.5h-15.5h-15.5t-20 -0.5t-20 -1.5t-15.5 -2l-1 4q10 5 20 13.5t11 29.5q1 24 1.5 50t0.5 58.5t-0.5 75t-0.5 101.5q0 58 0.5 101t0.5 76t-0.5 59t-1.5 50q-1 21 -11 29.5t-20 12.5l1 5q6 -2 15.5 -2.5t20 -1.5t20 -1h15.5h15.5t20 1
t20 1.5t14.5 2.5l1 -5q-10 -4 -20 -12.5t-11 -29.5q-1 -24 -1.5 -50t-0.5 -59v-76v-101v-101.5v-75t0.5 -58.5t1.5 -50q1 -21 11 -29.5t20 -13.5zM191 762q-17 3 -41 7.5t-49.5 11t-49.5 13.5t-42 14l22 53q34 -26 78.5 -51t83.5 -41z" />
    <glyph glyph-name="Iacute" unicode="&#xcd;" horiz-adv-x="273" 
d="M207 -4q-5 1 -14.5 2t-20 1.5t-20 0.5h-15.5h-15.5t-20 -0.5t-20 -1.5t-15.5 -2l-1 4q10 5 20 13.5t11 29.5q1 24 1.5 50t0.5 58.5t-0.5 75t-0.5 101.5q0 58 0.5 101t0.5 76t-0.5 59t-1.5 50q-1 21 -11 29.5t-20 12.5l1 5q6 -2 15.5 -2.5t20 -1.5t20 -1h15.5h15.5t20 1
t20 1.5t14.5 2.5l1 -5q-10 -4 -20 -12.5t-11 -29.5q-1 -24 -1.5 -50t-0.5 -59v-76v-101v-101.5v-75t0.5 -58.5t1.5 -50q1 -21 11 -29.5t20 -13.5zM263 808q-17 -7 -41 -14t-49.5 -13.5t-49.5 -11t-41 -7.5l-3 7q40 16 84.5 41t78.5 51z" />
    <glyph glyph-name="Icircumflex" unicode="&#xce;" horiz-adv-x="273" 
d="M207 -4q-5 1 -14.5 2t-20 1.5t-20 0.5h-15.5h-15.5t-20 -0.5t-20 -1.5t-15.5 -2l-1 4q10 5 20 13.5t11 29.5q1 24 1.5 50t0.5 58.5t-0.5 75t-0.5 101.5q0 58 0.5 101t0.5 76t-0.5 59t-1.5 50q-1 21 -11 29.5t-20 12.5l1 5q6 -2 15.5 -2.5t20 -1.5t20 -1h15.5h15.5t20 1
t20 1.5t14.5 2.5l1 -5q-10 -4 -20 -12.5t-11 -29.5q-1 -24 -1.5 -50t-0.5 -59v-76v-101v-101.5v-75t0.5 -58.5t1.5 -50q1 -21 11 -29.5t20 -13.5zM253 762q-31 4 -62.5 18.5t-54.5 28.5q-23 -14 -55 -28.5t-62 -18.5l-1 8q29 19 60.5 45.5t57.5 55.5q26 -29 58 -55.5
t60 -45.5z" />
    <glyph glyph-name="Idieresis" unicode="&#xcf;" horiz-adv-x="273" 
d="M207 -4q-5 1 -14.5 2t-20 1.5t-20 0.5h-15.5h-15.5t-20 -0.5t-20 -1.5t-15.5 -2l-1 4q10 5 20 13.5t11 29.5q1 24 1.5 50t0.5 58.5t-0.5 75t-0.5 101.5q0 58 0.5 101t0.5 76t-0.5 59t-1.5 50q-1 21 -11 29.5t-20 12.5l1 5q6 -2 15.5 -2.5t20 -1.5t20 -1h15.5h15.5t20 1
t20 1.5t14.5 2.5l1 -5q-10 -4 -20 -12.5t-11 -29.5q-1 -24 -1.5 -50t-0.5 -59v-76v-101v-101.5v-75t0.5 -58.5t1.5 -50q1 -21 11 -29.5t20 -13.5zM248 814q0 -17 -11.5 -28t-28.5 -11q-16 0 -27.5 11t-11.5 28q0 16 11.5 27.5t27.5 11.5q17 0 28.5 -11.5t11.5 -27.5z
M103 814q0 -17 -11.5 -28t-28.5 -11t-28 11t-11 28q0 16 11 27.5t28 11.5t28.5 -11.5t11.5 -27.5z" />
    <glyph glyph-name="Eth" unicode="&#xd0;" horiz-adv-x="704" 
d="M629 337q0 -60 -20.5 -121t-67.5 -109.5t-123.5 -79.5t-189.5 -31h-42.5t-46.5 0.5t-42.5 1.5t-31.5 2v4q12 2 20.5 10t9.5 29q1 24 1.5 49t0.5 57v73v97q-15 0 -35 -0.5t-43 -1.5v38l78 -3v91v69t-0.5 54.5t-1.5 47.5q-1 21 -9.5 29t-20.5 9v4q6 1 29.5 2t50.5 1.5
t50.5 0.5h29.5q84 0 157.5 -17t128.5 -55t86.5 -99.5t31.5 -151.5zM544 337q0 65 -19 122.5t-62 98.5t-113 63t-173 17q-2 -45 -2 -117v-169l78 3v-38q-23 1 -43 1.5t-35 0.5v-102.5v-80t0.5 -63.5t1.5 -52q188 -11 277.5 71.5t89.5 244.5z" />
    <glyph glyph-name="Ntilde" unicode="&#xd1;" horiz-adv-x="784" 
d="M719 656q-10 -4 -19.5 -12.5t-10.5 -29.5q-1 -24 -2 -50t-2 -59t-2 -76t-1 -101v-208.5t2 -139.5h-18q-81 91 -135.5 153.5t-87.5 100.5q-40 45 -62 71q-23 26 -59 66q-31 35 -78.5 88t-114.5 131v-47.5t0.5 -51.5t1 -67.5t0.5 -95.5q0 -59 1 -101.5t2.5 -75t2.5 -58.5
t2 -50q1 -21 11 -29.5t20 -13.5l-1 -4q-10 2 -24.5 3t-25.5 1q-12 0 -25.5 -1t-24.5 -3l-1 4q11 5 20 13.5t11 29.5q1 24 2 50t2 58.5t1.5 75t0.5 101.5v100v74t-0.5 57t-1.5 49q-1 22 -13 33t-23 15l1 5q11 -3 26.5 -4t27.5 -1h52q60 -69 107.5 -124t81.5 -93
q40 -45 69 -78q29 -34 65 -74q31 -35 72.5 -80.5t89.5 -98.5q-1 21 -1.5 41t-1 44.5t-1 56.5t-0.5 78q0 58 -1 101t-2 76t-2.5 59t-2.5 50q-2 21 -11.5 29.5t-19.5 12.5l1 5q11 -3 25 -4t26 -1q11 0 25 1t25 4zM507 818q-7 -12 -17 -24.5t-23.5 -20t-32.5 -9t-44 7.5
t-43.5 10.5t-31 -1.5t-20.5 -8.5t-11 -9.5l-4 7q7 13 17 25t24 20t32.5 9t43.5 -8q24 -9 42.5 -10.5t31.5 1t20.5 8t10.5 9.5z" />
    <glyph glyph-name="Ograve" unicode="&#xd2;" horiz-adv-x="869" 
d="M794 328q0 -80 -29 -144t-78 -109.5t-114.5 -70t-137.5 -24.5q-73 0 -138 24.5t-114.5 70t-78.5 109.5t-29 144q0 79 29 143.5t78.5 110t114.5 70t138 24.5q72 0 137.5 -24.5t114.5 -70t78 -110t29 -143.5zM709 328q0 74 -22 133t-59.5 100t-87 63t-105.5 22t-106 -22
t-88 -63t-60 -100t-22 -133t22 -133t60 -100t88 -63t106 -22t105.5 22t87 63t59.5 100t22 133zM489 762q-17 3 -41 7.5t-49.5 11t-49.5 13.5t-42 14l22 53q34 -26 78.5 -51t83.5 -41z" />
    <glyph glyph-name="Oacute" unicode="&#xd3;" horiz-adv-x="869" 
d="M794 328q0 -80 -29 -144t-78 -109.5t-114.5 -70t-137.5 -24.5q-73 0 -138 24.5t-114.5 70t-78.5 109.5t-29 144q0 79 29 143.5t78.5 110t114.5 70t138 24.5q72 0 137.5 -24.5t114.5 -70t78 -110t29 -143.5zM709 328q0 74 -22 133t-59.5 100t-87 63t-105.5 22t-106 -22
t-88 -63t-60 -100t-22 -133t22 -133t60 -100t88 -63t106 -22t105.5 22t87 63t59.5 100t22 133zM561 808q-17 -7 -41 -14t-49.5 -13.5t-49.5 -11t-41 -7.5l-3 7q40 16 84.5 41t78.5 51z" />
    <glyph glyph-name="Ocircumflex" unicode="&#xd4;" horiz-adv-x="869" 
d="M794 328q0 -80 -29 -144t-78 -109.5t-114.5 -70t-137.5 -24.5q-73 0 -138 24.5t-114.5 70t-78.5 109.5t-29 144q0 79 29 143.5t78.5 110t114.5 70t138 24.5q72 0 137.5 -24.5t114.5 -70t78 -110t29 -143.5zM709 328q0 74 -22 133t-59.5 100t-87 63t-105.5 22t-106 -22
t-88 -63t-60 -100t-22 -133t22 -133t60 -100t88 -63t106 -22t105.5 22t87 63t59.5 100t22 133zM551 762q-31 4 -62.5 18.5t-54.5 28.5q-23 -14 -55 -28.5t-62 -18.5l-1 8q29 19 60.5 45.5t57.5 55.5q26 -29 58 -55.5t60 -45.5z" />
    <glyph glyph-name="Otilde" unicode="&#xd5;" horiz-adv-x="869" 
d="M794 328q0 -80 -29 -144t-78 -109.5t-114.5 -70t-137.5 -24.5q-73 0 -138 24.5t-114.5 70t-78.5 109.5t-29 144q0 79 29 143.5t78.5 110t114.5 70t138 24.5q72 0 137.5 -24.5t114.5 -70t78 -110t29 -143.5zM709 328q0 74 -22 133t-59.5 100t-87 63t-105.5 22t-106 -22
t-88 -63t-60 -100t-22 -133t22 -133t60 -100t88 -63t106 -22t105.5 22t87 63t59.5 100t22 133zM548 818q-7 -12 -17 -24.5t-23.5 -20t-32.5 -9t-44 7.5t-43.5 10.5t-31 -1.5t-20.5 -8.5t-11 -9.5l-4 7q7 13 17 25t24 20t32.5 9t43.5 -8q24 -9 42.5 -10.5t31.5 1t20.5 8
t10.5 9.5z" />
    <glyph glyph-name="Odieresis" unicode="&#xd6;" horiz-adv-x="869" 
d="M794 328q0 -80 -29 -144t-78 -109.5t-114.5 -70t-137.5 -24.5q-73 0 -138 24.5t-114.5 70t-78.5 109.5t-29 144q0 79 29 143.5t78.5 110t114.5 70t138 24.5q72 0 137.5 -24.5t114.5 -70t78 -110t29 -143.5zM709 328q0 74 -22 133t-59.5 100t-87 63t-105.5 22t-106 -22
t-88 -63t-60 -100t-22 -133t22 -133t60 -100t88 -63t106 -22t105.5 22t87 63t59.5 100t22 133zM546 814q0 -17 -11.5 -28t-28.5 -11q-16 0 -27.5 11t-11.5 28q0 16 11.5 27.5t27.5 11.5q17 0 28.5 -11.5t11.5 -27.5zM401 814q0 -17 -11.5 -28t-28.5 -11t-28 11t-11 28
q0 16 11 27.5t28 11.5t28.5 -11.5t11.5 -27.5z" />
    <glyph glyph-name="multiply" unicode="&#xd7;" horiz-adv-x="541" 
d="M463 488q-59 -57 -101 -98.5t-62 -61.5q20 -19 62.5 -60.5t101.5 -97.5l-35 -35q-56 59 -97 101.5t-61 62.5q-19 -20 -61 -62t-99 -101l-34 34q59 57 102 98t63 60q-20 20 -62.5 61.5t-102.5 97.5l35 35q56 -60 98 -102.5t60 -62.5q20 20 61 63t98 102z" />
    <glyph glyph-name="Oslash" unicode="&#xd8;" horiz-adv-x="869" 
d="M794 328q0 -80 -29 -144t-78 -109.5t-114.5 -70t-137.5 -24.5q-67 0 -127 20.5t-108 58.5l-82 -88l-22 21l82 86q-48 46 -75.5 109t-27.5 141q0 79 29 143.5t78.5 110t114.5 70t138 24.5q66 0 126 -20.5t108 -58.5q20 21 40 43t42 45l22 -21q-22 -23 -42 -44t-40 -43
q48 -45 75.5 -108t27.5 -141zM219 121q54 57 105 111t101.5 107t101.5 107t104 111q-38 43 -88.5 66t-107.5 23q-56 0 -106 -22t-88 -63t-60 -100t-22 -133q0 -63 16 -115t44 -92zM709 328q0 63 -16 114.5t-44 91.5l-412 -436q38 -43 89.5 -65.5t108.5 -22.5q56 0 105.5 22
t87 63t59.5 100t22 133z" />
    <glyph glyph-name="Ugrave" unicode="&#xd9;" horiz-adv-x="731" 
d="M666 656q-10 -4 -19.5 -12.5t-10.5 -29.5q-1 -24 -1.5 -61t-1 -83t-0.5 -100v-112q0 -81 -24.5 -134.5t-62 -85.5t-82 -45t-84.5 -13q-58 0 -109.5 14.5t-90 46.5t-61 83t-22.5 124q0 58 0.5 113.5t0.5 103.5t-0.5 86.5t-1.5 62.5q-1 21 -11 29.5t-20 12.5l1 5
q6 -2 15.5 -2.5t20 -1.5t20 -1h15.5h15.5t20 1t20 1.5t14.5 2.5l1 -5q-10 -4 -20 -12.5t-11 -29.5q-1 -24 -1.5 -62.5t-0.5 -86.5v-103.5v-113.5q0 -115 57 -171t161 -56q39 0 77.5 12.5t68.5 40.5t49 73t19 111q0 137 -1 222t-2 134q-1 21 -11 29.5t-21 12.5l1 5
q11 -3 23 -4t23 -1q12 0 24 1t22 4zM420 762q-17 3 -41 7.5t-49.5 11t-49.5 13.5t-42 14l22 53q34 -26 78.5 -51t83.5 -41z" />
    <glyph glyph-name="Uacute" unicode="&#xda;" horiz-adv-x="731" 
d="M666 656q-10 -4 -19.5 -12.5t-10.5 -29.5q-1 -24 -1.5 -61t-1 -83t-0.5 -100v-112q0 -81 -24.5 -134.5t-62 -85.5t-82 -45t-84.5 -13q-58 0 -109.5 14.5t-90 46.5t-61 83t-22.5 124q0 58 0.5 113.5t0.5 103.5t-0.5 86.5t-1.5 62.5q-1 21 -11 29.5t-20 12.5l1 5
q6 -2 15.5 -2.5t20 -1.5t20 -1h15.5h15.5t20 1t20 1.5t14.5 2.5l1 -5q-10 -4 -20 -12.5t-11 -29.5q-1 -24 -1.5 -62.5t-0.5 -86.5v-103.5v-113.5q0 -115 57 -171t161 -56q39 0 77.5 12.5t68.5 40.5t49 73t19 111q0 137 -1 222t-2 134q-1 21 -11 29.5t-21 12.5l1 5
q11 -3 23 -4t23 -1q12 0 24 1t22 4zM492 808q-17 -7 -41 -14t-49.5 -13.5t-49.5 -11t-41 -7.5l-3 7q40 16 84.5 41t78.5 51z" />
    <glyph glyph-name="Ucircumflex" unicode="&#xdb;" horiz-adv-x="731" 
d="M666 656q-10 -4 -19.5 -12.5t-10.5 -29.5q-1 -24 -1.5 -61t-1 -83t-0.5 -100v-112q0 -81 -24.5 -134.5t-62 -85.5t-82 -45t-84.5 -13q-58 0 -109.5 14.5t-90 46.5t-61 83t-22.5 124q0 58 0.5 113.5t0.5 103.5t-0.5 86.5t-1.5 62.5q-1 21 -11 29.5t-20 12.5l1 5
q6 -2 15.5 -2.5t20 -1.5t20 -1h15.5h15.5t20 1t20 1.5t14.5 2.5l1 -5q-10 -4 -20 -12.5t-11 -29.5q-1 -24 -1.5 -62.5t-0.5 -86.5v-103.5v-113.5q0 -115 57 -171t161 -56q39 0 77.5 12.5t68.5 40.5t49 73t19 111q0 137 -1 222t-2 134q-1 21 -11 29.5t-21 12.5l1 5
q11 -3 23 -4t23 -1q12 0 24 1t22 4zM482 762q-31 4 -62.5 18.5t-54.5 28.5q-23 -14 -55 -28.5t-62 -18.5l-1 8q29 19 60.5 45.5t57.5 55.5q26 -29 58 -55.5t60 -45.5z" />
    <glyph glyph-name="Udieresis" unicode="&#xdc;" horiz-adv-x="731" 
d="M666 656q-10 -4 -19.5 -12.5t-10.5 -29.5q-1 -24 -1.5 -61t-1 -83t-0.5 -100v-112q0 -81 -24.5 -134.5t-62 -85.5t-82 -45t-84.5 -13q-58 0 -109.5 14.5t-90 46.5t-61 83t-22.5 124q0 58 0.5 113.5t0.5 103.5t-0.5 86.5t-1.5 62.5q-1 21 -11 29.5t-20 12.5l1 5
q6 -2 15.5 -2.5t20 -1.5t20 -1h15.5h15.5t20 1t20 1.5t14.5 2.5l1 -5q-10 -4 -20 -12.5t-11 -29.5q-1 -24 -1.5 -62.5t-0.5 -86.5v-103.5v-113.5q0 -115 57 -171t161 -56q39 0 77.5 12.5t68.5 40.5t49 73t19 111q0 137 -1 222t-2 134q-1 21 -11 29.5t-21 12.5l1 5
q11 -3 23 -4t23 -1q12 0 24 1t22 4zM477 814q0 -17 -11.5 -28t-28.5 -11q-16 0 -27.5 11t-11.5 28q0 16 11.5 27.5t27.5 11.5q17 0 28.5 -11.5t11.5 -27.5zM332 814q0 -17 -11.5 -28t-28.5 -11t-28 11t-11 28q0 16 11 27.5t28 11.5t28.5 -11.5t11.5 -27.5z" />
    <glyph glyph-name="Yacute" unicode="&#xdd;" horiz-adv-x="561" 
d="M595 656q-14 -4 -30.5 -18.5t-31.5 -33.5q-17 -22 -29 -39t-25.5 -35.5t-31.5 -43.5t-46 -62l-84 -115v-99v-69t0.5 -51.5t1.5 -46.5q1 -21 11 -29.5t21 -13.5l-2 -4q-5 1 -14.5 2t-20 1.5t-20 0.5h-15.5h-16t-20.5 -0.5t-20 -1.5t-14.5 -2l-1 4q11 5 20.5 13.5t9.5 29.5
q1 23 2 45.5t1 51.5v68v96l-88 120q-27 37 -46 64t-33 46.5t-24.5 34t-21.5 28.5q-14 20 -30.5 37.5t-30.5 21.5l2 5q7 -2 17.5 -2.5t21.5 -1.5t21.5 -1h17.5h21t29 1t27.5 1.5t18.5 2.5l1 -5q-5 -2 -12 -4.5t-12.5 -6.5t-7.5 -10.5t4 -16.5q14 -23 26.5 -42t27 -40.5
t33.5 -48t46 -63.5l60 -85q14 20 28.5 41t34.5 47q22 30 38 52t30 42t28.5 42t34.5 52q6 10 5.5 17t-5.5 11.5t-11.5 7.5t-12.5 5l1 5q13 -3 30 -4t31 -1q15 0 27.5 1t26.5 4zM407 808q-17 -7 -41 -14t-49.5 -13.5t-49.5 -11t-41 -7.5l-3 7q40 16 84.5 41t78.5 51z" />
    <glyph glyph-name="Thorn" unicode="&#xde;" horiz-adv-x="550" 
d="M487 352q0 -53 -22 -91t-63 -62.5t-98.5 -35t-128.5 -7.5v-29.5v-21t0.5 -24.5t1.5 -38q1 -21 11 -29.5t20 -13.5l-1 -4q-5 1 -15 2t-20.5 1.5t-20 0.5h-15.5h-15.5t-20 -0.5t-19.5 -1.5t-15 -2l-1 4q10 5 20 13.5t11 29.5q2 49 1.5 119.5t-0.5 156.5q0 48 0.5 88.5
t0.5 76t-0.5 67.5t-1.5 63q-1 21 -11 29.5t-20 12.5l1 5q6 -2 15.5 -2.5t20 -1.5t20 -1h15.5h15.5t20 1t20 1.5t14.5 2.5l1 -5q-10 -4 -20 -12.5t-11 -29.5q-1 -17 -1 -40v-46h29q74 0 127 -14t87.5 -38.5t51 -56.5t16.5 -67zM404 352q0 53 -22 83t-56 45t-74 19t-77 4
q-3 -79 -1.5 -158.5t1.5 -157.5q47 -5 88.5 1t73 25t49.5 53t18 86z" />
    <glyph glyph-name="germandbls" unicode="&#xdf;" horiz-adv-x="559" 
d="M521 93q0 -24 -11.5 -44t-32 -34.5t-47 -22t-56.5 -7.5q-37 0 -74.5 11t-57.5 25l-15 69l6 1q23 -42 60.5 -62.5t82.5 -20.5t68 18.5t23 46.5q0 25 -16.5 39.5t-42 24t-54.5 16.5t-54.5 18.5t-42 30t-16.5 50.5q0 27 11 46.5t30 33t42.5 20t49.5 6.5q25 55 28 108
t-11.5 93.5t-44 65.5t-68.5 25q-131 0 -131 -240v-114.5v-103.5t0.5 -86.5t1.5 -62.5q1 -21 10.5 -29.5t19.5 -13.5l-1 -4q-10 2 -29 3t-30 1h-15t-19 -0.5t-18.5 -1.5t-13.5 -2l-1 4q10 5 19.5 13.5t10.5 29.5q2 39 2 111.5v163.5h-69v26h69v66q0 73 16 123.5t42.5 82
t60.5 46t70 14.5q52 0 89.5 -29t54 -77t10 -109t-41.5 -125q-40 0 -66.5 -14t-26.5 -43q0 -24 17 -36.5t42.5 -21t55 -16t55 -20.5t42.5 -34.5t17 -57.5z" />
    <glyph glyph-name="agrave" unicode="&#xe0;" horiz-adv-x="457" 
d="M417 18q-26 -4 -52.5 -11.5t-46.5 -21.5l-3 4q3 28 3 54q-20 -25 -54 -41.5t-70 -16.5q-68 0 -108.5 30.5t-40.5 87.5q0 27 15.5 49t41.5 37.5t60.5 23.5t73.5 8q22 0 41.5 -2t41.5 -7v33q0 46 -27 68.5t-67 22.5q-50 0 -84 -21.5t-56 -56.5l-5 3v44q33 29 68.5 41
t77.5 12q41 0 70.5 -9t48.5 -24.5t28 -36t9 -43.5v-85v-40.5t0.5 -23.5t1.5 -34q1 -23 11 -31.5t22 -8.5v-4zM319 190q-18 5 -36.5 7.5t-42.5 2.5q-59 0 -92.5 -26t-33.5 -71q0 -25 8.5 -41.5t21.5 -27t28.5 -15t30.5 -4.5q35 0 63.5 15t52.5 43v117zM286 450q-17 3 -41 7.5
t-49.5 11t-49.5 13.5t-42 14l22 53q34 -26 78.5 -51t83.5 -41z" />
    <glyph glyph-name="aacute" unicode="&#xe1;" horiz-adv-x="457" 
d="M417 18q-26 -4 -52.5 -11.5t-46.5 -21.5l-3 4q3 28 3 54q-20 -25 -54 -41.5t-70 -16.5q-68 0 -108.5 30.5t-40.5 87.5q0 27 15.5 49t41.5 37.5t60.5 23.5t73.5 8q22 0 41.5 -2t41.5 -7v33q0 46 -27 68.5t-67 22.5q-50 0 -84 -21.5t-56 -56.5l-5 3v44q33 29 68.5 41
t77.5 12q41 0 70.5 -9t48.5 -24.5t28 -36t9 -43.5v-85v-40.5t0.5 -23.5t1.5 -34q1 -23 11 -31.5t22 -8.5v-4zM319 190q-18 5 -36.5 7.5t-42.5 2.5q-59 0 -92.5 -26t-33.5 -71q0 -25 8.5 -41.5t21.5 -27t28.5 -15t30.5 -4.5q35 0 63.5 15t52.5 43v117zM358 496
q-17 -7 -41 -14t-49.5 -13.5t-49.5 -11t-41 -7.5l-3 7q40 16 84.5 41t78.5 51z" />
    <glyph glyph-name="acircumflex" unicode="&#xe2;" horiz-adv-x="457" 
d="M417 18q-26 -4 -52.5 -11.5t-46.5 -21.5l-3 4q3 28 3 54q-20 -25 -54 -41.5t-70 -16.5q-68 0 -108.5 30.5t-40.5 87.5q0 27 15.5 49t41.5 37.5t60.5 23.5t73.5 8q22 0 41.5 -2t41.5 -7v33q0 46 -27 68.5t-67 22.5q-50 0 -84 -21.5t-56 -56.5l-5 3v44q33 29 68.5 41
t77.5 12q41 0 70.5 -9t48.5 -24.5t28 -36t9 -43.5v-85v-40.5t0.5 -23.5t1.5 -34q1 -23 11 -31.5t22 -8.5v-4zM319 190q-18 5 -36.5 7.5t-42.5 2.5q-59 0 -92.5 -26t-33.5 -71q0 -25 8.5 -41.5t21.5 -27t28.5 -15t30.5 -4.5q35 0 63.5 15t52.5 43v117zM348 450
q-31 4 -62.5 18.5t-54.5 28.5q-23 -14 -55 -28.5t-62 -18.5l-1 8q29 19 60.5 45.5t57.5 55.5q26 -29 58 -55.5t60 -45.5z" />
    <glyph glyph-name="atilde" unicode="&#xe3;" horiz-adv-x="457" 
d="M417 18q-26 -4 -52.5 -11.5t-46.5 -21.5l-3 4q3 28 3 54q-20 -25 -54 -41.5t-70 -16.5q-68 0 -108.5 30.5t-40.5 87.5q0 27 15.5 49t41.5 37.5t60.5 23.5t73.5 8q22 0 41.5 -2t41.5 -7v33q0 46 -27 68.5t-67 22.5q-50 0 -84 -21.5t-56 -56.5l-5 3v44q33 29 68.5 41
t77.5 12q41 0 70.5 -9t48.5 -24.5t28 -36t9 -43.5v-85v-40.5t0.5 -23.5t1.5 -34q1 -23 11 -31.5t22 -8.5v-4zM319 190q-18 5 -36.5 7.5t-42.5 2.5q-59 0 -92.5 -26t-33.5 -71q0 -25 8.5 -41.5t21.5 -27t28.5 -15t30.5 -4.5q35 0 63.5 15t52.5 43v117zM345 506
q-7 -12 -17 -24.5t-23.5 -20t-32.5 -9t-44 7.5t-43.5 10.5t-31 -1.5t-20.5 -8.5t-11 -9.5l-4 7q7 13 17 25t24 20t32.5 9t43.5 -8q24 -9 42.5 -10.5t31.5 1t20.5 8t10.5 9.5z" />
    <glyph glyph-name="adieresis" unicode="&#xe4;" horiz-adv-x="457" 
d="M417 18q-26 -4 -52.5 -11.5t-46.5 -21.5l-3 4q3 28 3 54q-20 -25 -54 -41.5t-70 -16.5q-68 0 -108.5 30.5t-40.5 87.5q0 27 15.5 49t41.5 37.5t60.5 23.5t73.5 8q22 0 41.5 -2t41.5 -7v33q0 46 -27 68.5t-67 22.5q-50 0 -84 -21.5t-56 -56.5l-5 3v44q33 29 68.5 41
t77.5 12q41 0 70.5 -9t48.5 -24.5t28 -36t9 -43.5v-85v-40.5t0.5 -23.5t1.5 -34q1 -23 11 -31.5t22 -8.5v-4zM319 190q-18 5 -36.5 7.5t-42.5 2.5q-59 0 -92.5 -26t-33.5 -71q0 -25 8.5 -41.5t21.5 -27t28.5 -15t30.5 -4.5q35 0 63.5 15t52.5 43v117zM343 502
q0 -17 -11.5 -28t-28.5 -11q-16 0 -27.5 11t-11.5 28q0 16 11.5 27.5t27.5 11.5q17 0 28.5 -11.5t11.5 -27.5zM198 502q0 -17 -11.5 -28t-28.5 -11t-28 11t-11 28q0 16 11 27.5t28 11.5t28.5 -11.5t11.5 -27.5z" />
    <glyph glyph-name="aring" unicode="&#xe5;" horiz-adv-x="457" 
d="M417 18q-26 -4 -52.5 -11.5t-46.5 -21.5l-3 4q3 28 3 54q-20 -25 -54 -41.5t-70 -16.5q-68 0 -108.5 30.5t-40.5 87.5q0 27 15.5 49t41.5 37.5t60.5 23.5t73.5 8q22 0 41.5 -2t41.5 -7v33q0 46 -27 68.5t-67 22.5q-50 0 -84 -21.5t-56 -56.5l-5 3v44q33 29 68.5 41
t77.5 12q41 0 70.5 -9t48.5 -24.5t28 -36t9 -43.5v-85v-40.5t0.5 -23.5t1.5 -34q1 -23 11 -31.5t22 -8.5v-4zM319 190q-18 5 -36.5 7.5t-42.5 2.5q-59 0 -92.5 -26t-33.5 -71q0 -25 8.5 -41.5t21.5 -27t28.5 -15t30.5 -4.5q35 0 63.5 15t52.5 43v117zM306 502q0 -32 -22 -53
t-52 -21q-32 0 -53.5 21t-21.5 53q0 30 21.5 52t53.5 22q30 0 52 -22t22 -52zM283 502q0 21 -15 36t-36 15q-23 0 -38 -15t-15 -36q0 -22 15 -37.5t38 -15.5q21 0 36 15.5t15 37.5z" />
    <glyph glyph-name="ae" unicode="&#xe6;" horiz-adv-x="707" 
d="M391 232q-4 -14 -5 -29t-1 -32q0 -43 14.5 -72t36.5 -46.5t47 -25t46 -7.5q46 0 72 9.5t49 29.5v-11q-9 -11 -23 -22t-33 -20t-41 -15t-46 -6q-50 0 -91.5 21.5t-67.5 60.5q-11 -14 -27 -28.5t-36.5 -26.5t-43.5 -19.5t-47 -7.5q-68 0 -108.5 30.5t-40.5 87.5
q0 27 15.5 49t41.5 37.5t60.5 23.5t73.5 8q22 0 41.5 -2t41.5 -7v33q0 46 -27 68.5t-67 22.5q-50 0 -84 -21.5t-56 -56.5l-5 3v44q33 29 68.5 41t77.5 12q63 0 95 -20.5t43 -49.5q22 34 58.5 52t84.5 18q42 0 72.5 -11.5t50.5 -29.5t30 -40.5t10 -44.5h-279zM590 261
q0 10 -3 23t-12 24t-25 19t-43 8q-45 0 -72 -22t-40 -61zM338 84q-8 19 -13.5 41t-5.5 46v19q-18 5 -36.5 7.5t-42.5 2.5q-59 0 -92.5 -26t-33.5 -71q0 -25 8.5 -41.5t21.5 -27t28.5 -15t30.5 -4.5q43 0 76.5 20t58.5 49z" />
    <glyph glyph-name="ccedilla" unicode="&#xe7;" horiz-adv-x="417" 
d="M384 47q-17 -23 -50.5 -40.5t-77.5 -21.5l-26 -67q23 14 42 14q18 0 30.5 -10.5t12.5 -27.5q0 -11 -6.5 -24t-20 -25.5t-34.5 -23.5t-51 -18l-4 10q24 8 41.5 24t17.5 34q0 13 -6.5 19t-15.5 6q-17 0 -27 -15l-17 6l39 98q-38 2 -72 15.5t-59.5 37.5t-40 57.5t-14.5 75.5
q0 44 16 79t43 59t62.5 36.5t75.5 12.5q43 0 75.5 -11t52.5 -31l5 -61l-5 -4q-5 15 -16 30t-26.5 27t-35.5 19.5t-43 7.5q-33 0 -58 -12.5t-41.5 -33t-25 -47t-8.5 -54.5q0 -41 12.5 -73t32.5 -54t46 -33.5t53 -11.5q44 0 73 11t51 31v-11z" />
    <glyph glyph-name="egrave" unicode="&#xe8;" horiz-adv-x="439" 
d="M122 232q-2 -14 -4 -29t-2 -32q0 -43 14.5 -72t36.5 -46.5t47 -25t46 -7.5q24 0 41.5 2.5t32 7t26 12t22.5 17.5v-11q-18 -22 -56.5 -42.5t-85.5 -20.5q-39 0 -74 12.5t-62 36.5t-43 58.5t-16 78.5q0 43 15.5 78t41.5 59t61.5 37t76.5 13t71 -11.5t50 -29.5t30 -40.5
t10 -44.5h-279zM321 261q0 10 -3 23t-11.5 24t-24.5 19t-42 8q-46 0 -73.5 -22t-38.5 -61zM278 450q-17 3 -41 7.5t-49.5 11t-49.5 13.5t-42 14l22 53q34 -26 78.5 -51t83.5 -41z" />
    <glyph glyph-name="eacute" unicode="&#xe9;" horiz-adv-x="439" 
d="M122 232q-2 -14 -4 -29t-2 -32q0 -43 14.5 -72t36.5 -46.5t47 -25t46 -7.5q24 0 41.5 2.5t32 7t26 12t22.5 17.5v-11q-18 -22 -56.5 -42.5t-85.5 -20.5q-39 0 -74 12.5t-62 36.5t-43 58.5t-16 78.5q0 43 15.5 78t41.5 59t61.5 37t76.5 13t71 -11.5t50 -29.5t30 -40.5
t10 -44.5h-279zM321 261q0 10 -3 23t-11.5 24t-24.5 19t-42 8q-46 0 -73.5 -22t-38.5 -61zM350 496q-17 -7 -41 -14t-49.5 -13.5t-49.5 -11t-41 -7.5l-3 7q40 16 84.5 41t78.5 51z" />
    <glyph glyph-name="ecircumflex" unicode="&#xea;" horiz-adv-x="439" 
d="M122 232q-2 -14 -4 -29t-2 -32q0 -43 14.5 -72t36.5 -46.5t47 -25t46 -7.5q24 0 41.5 2.5t32 7t26 12t22.5 17.5v-11q-18 -22 -56.5 -42.5t-85.5 -20.5q-39 0 -74 12.5t-62 36.5t-43 58.5t-16 78.5q0 43 15.5 78t41.5 59t61.5 37t76.5 13t71 -11.5t50 -29.5t30 -40.5
t10 -44.5h-279zM321 261q0 10 -3 23t-11.5 24t-24.5 19t-42 8q-46 0 -73.5 -22t-38.5 -61zM340 450q-31 4 -62.5 18.5t-54.5 28.5q-23 -14 -55 -28.5t-62 -18.5l-1 8q29 19 60.5 45.5t57.5 55.5q26 -29 58 -55.5t60 -45.5z" />
    <glyph glyph-name="edieresis" unicode="&#xeb;" horiz-adv-x="439" 
d="M122 232q-2 -14 -4 -29t-2 -32q0 -43 14.5 -72t36.5 -46.5t47 -25t46 -7.5q24 0 41.5 2.5t32 7t26 12t22.5 17.5v-11q-18 -22 -56.5 -42.5t-85.5 -20.5q-39 0 -74 12.5t-62 36.5t-43 58.5t-16 78.5q0 43 15.5 78t41.5 59t61.5 37t76.5 13t71 -11.5t50 -29.5t30 -40.5
t10 -44.5h-279zM321 261q0 10 -3 23t-11.5 24t-24.5 19t-42 8q-46 0 -73.5 -22t-38.5 -61zM335 502q0 -17 -11.5 -28t-28.5 -11q-16 0 -27.5 11t-11.5 28q0 16 11.5 27.5t27.5 11.5q17 0 28.5 -11.5t11.5 -27.5zM190 502q0 -17 -11.5 -28t-28.5 -11t-28 11t-11 28
q0 16 11 27.5t28 11.5t28.5 -11.5t11.5 -27.5z" />
    <glyph glyph-name="igrave" unicode="&#xec;" horiz-adv-x="200" 
d="M165 -4q-11 2 -32 3t-32 1q-12 0 -32 -1t-31 -3l-1 4q10 5 20 13.5t11 29.5q2 49 2.5 82t0.5 68v21.5t-0.5 13t-1 18t-1.5 35.5q-1 22 -11 30.5t-21 8.5l-1 5q11 3 24.5 6t27 7t25.5 9.5t21 13.5l4 -3q-4 -48 -4.5 -87t-0.5 -78v-37v-34t0.5 -36t1.5 -43
q2 -21 11.5 -29.5t20.5 -13.5zM157 450q-17 3 -41 7.5t-49.5 11t-49.5 13.5t-42 14l22 53q34 -26 78.5 -51t83.5 -41z" />
    <glyph glyph-name="iacute" unicode="&#xed;" horiz-adv-x="200" 
d="M165 -4q-11 2 -32 3t-32 1q-12 0 -32 -1t-31 -3l-1 4q10 5 20 13.5t11 29.5q2 49 2.5 82t0.5 68v21.5t-0.5 13t-1 18t-1.5 35.5q-1 22 -11 30.5t-21 8.5l-1 5q11 3 24.5 6t27 7t25.5 9.5t21 13.5l4 -3q-4 -48 -4.5 -87t-0.5 -78v-37v-34t0.5 -36t1.5 -43
q2 -21 11.5 -29.5t20.5 -13.5zM229 496q-17 -7 -41 -14t-49.5 -13.5t-49.5 -11t-41 -7.5l-3 7q40 16 84.5 41t78.5 51z" />
    <glyph glyph-name="icircumflex" unicode="&#xee;" horiz-adv-x="200" 
d="M165 -4q-11 2 -32 3t-32 1q-12 0 -32 -1t-31 -3l-1 4q10 5 20 13.5t11 29.5q2 49 2.5 82t0.5 68v21.5t-0.5 13t-1 18t-1.5 35.5q-1 22 -11 30.5t-21 8.5l-1 5q11 3 24.5 6t27 7t25.5 9.5t21 13.5l4 -3q-4 -48 -4.5 -87t-0.5 -78v-37v-34t0.5 -36t1.5 -43
q2 -21 11.5 -29.5t20.5 -13.5zM219 450q-31 4 -62.5 18.5t-54.5 28.5q-23 -14 -55 -28.5t-62 -18.5l-1 8q29 19 60.5 45.5t57.5 55.5q26 -29 58 -55.5t60 -45.5z" />
    <glyph glyph-name="idieresis" unicode="&#xef;" horiz-adv-x="200" 
d="M165 -4q-11 2 -32 3t-32 1q-12 0 -32 -1t-31 -3l-1 4q10 5 20 13.5t11 29.5q2 49 2.5 82t0.5 68v21.5t-0.5 13t-1 18t-1.5 35.5q-1 22 -11 30.5t-21 8.5l-1 5q11 3 24.5 6t27 7t25.5 9.5t21 13.5l4 -3q-4 -48 -4.5 -87t-0.5 -78v-37v-34t0.5 -36t1.5 -43
q2 -21 11.5 -29.5t20.5 -13.5zM214 502q0 -17 -11.5 -28t-28.5 -11q-16 0 -27.5 11t-11.5 28q0 16 11.5 27.5t27.5 11.5q17 0 28.5 -11.5t11.5 -27.5zM69 502q0 -17 -11.5 -28t-28.5 -11t-28 11t-11 28q0 16 11 27.5t28 11.5t28.5 -11.5t11.5 -27.5z" />
    <glyph glyph-name="eth" unicode="&#xf0;" horiz-adv-x="518" 
d="M445 614q0 -11 -0.5 -16.5t-0.5 -10.5t1 -11t4 -18l-86 -26q48 -59 79 -133t31 -160q0 -58 -16.5 -105t-46 -80t-69 -51t-85.5 -18q-42 0 -80.5 14.5t-67.5 40t-46 61t-17 78.5q0 40 13 73t37 56.5t57.5 36.5t74.5 13q28 0 55 -8t50 -23t40.5 -37t25.5 -49q1 8 1.5 17
t0.5 19q0 67 -21.5 129t-55.5 113l-79 -24q-14 -4 -26 -10t-18 -16l-6 4v16.5v10.5t-0.5 11t-2.5 17l103 31q-30 36 -64 62.5t-66 40.5l10 14q38 -16 78 -42.5t77 -63.5l66 20q14 5 26 11.5t18 15.5zM115 162q0 -30 9 -57.5t26 -49t41.5 -34t56.5 -12.5q47 0 84.5 34
t54.5 111q2 40 -8 72t-29 54.5t-45 34.5t-55 12q-61 0 -98 -45t-37 -120z" />
    <glyph glyph-name="ntilde" unicode="&#xf1;" 
d="M448 -4q-11 2 -29 3t-29 1h-15.5t-19.5 -0.5t-19 -1.5t-15 -2l-1 4q11 5 21 13.5t11 29.5q0 16 0.5 22.5t1 10.5t0.5 8v15v33v61q0 71 -22.5 105t-79.5 34q-47 0 -76.5 -26t-43.5 -74v-39v-37v-34t0.5 -36t1.5 -43q2 -21 11.5 -29.5t20.5 -13.5l-1 -4q-11 2 -30 3t-31 1
q-13 0 -34 -1t-32 -3l-1 4q10 5 20 13.5t11 29.5q2 49 2.5 82t0.5 68v21.5t-0.5 13t-1 18t-1.5 35.5q-1 22 -11 30.5t-21 8.5l-1 5q11 3 24.5 6t27 7t25.5 9.5t21 13.5l4 -3q-2 -23 -3 -44t-1 -41q15 39 48.5 62t81.5 23q43 0 72.5 -12t47.5 -33.5t25.5 -52t7.5 -67.5v-61
v-33v-15t0.5 -8t0.5 -10.5t1 -22.5q1 -21 11 -29.5t19 -13.5v-4zM355 506q-7 -12 -17 -24.5t-23.5 -20t-32.5 -9t-44 7.5t-43.5 10.5t-31 -1.5t-20.5 -8.5t-11 -9.5l-4 7q7 13 17 25t24 20t32.5 9t43.5 -8q24 -9 42.5 -10.5t31.5 1t20.5 8t10.5 9.5z" />
    <glyph glyph-name="ograve" unicode="&#xf2;" horiz-adv-x="486" 
d="M441 171q0 -45 -16 -79.5t-43.5 -58t-63.5 -36t-75 -12.5t-75 12.5t-63.5 36t-43.5 58t-16 79.5t16 80t43.5 59t63.5 36t75 12t75 -12t63.5 -36t43.5 -59t16 -80zM367 171q0 44 -10 75t-27 51t-39.5 29.5t-47.5 9.5t-47.5 -9.5t-39.5 -29.5t-27 -51t-10 -75q0 -43 10 -74
t27 -51t39.5 -29.5t47.5 -9.5t47.5 9.5t39.5 29.5t27 51t10 74zM298 450q-17 3 -41 7.5t-49.5 11t-49.5 13.5t-42 14l22 53q34 -26 78.5 -51t83.5 -41z" />
    <glyph glyph-name="oacute" unicode="&#xf3;" horiz-adv-x="486" 
d="M441 171q0 -45 -16 -79.5t-43.5 -58t-63.5 -36t-75 -12.5t-75 12.5t-63.5 36t-43.5 58t-16 79.5t16 80t43.5 59t63.5 36t75 12t75 -12t63.5 -36t43.5 -59t16 -80zM367 171q0 44 -10 75t-27 51t-39.5 29.5t-47.5 9.5t-47.5 -9.5t-39.5 -29.5t-27 -51t-10 -75q0 -43 10 -74
t27 -51t39.5 -29.5t47.5 -9.5t47.5 9.5t39.5 29.5t27 51t10 74zM370 496q-17 -7 -41 -14t-49.5 -13.5t-49.5 -11t-41 -7.5l-3 7q40 16 84.5 41t78.5 51z" />
    <glyph glyph-name="ocircumflex" unicode="&#xf4;" horiz-adv-x="486" 
d="M441 171q0 -45 -16 -79.5t-43.5 -58t-63.5 -36t-75 -12.5t-75 12.5t-63.5 36t-43.5 58t-16 79.5t16 80t43.5 59t63.5 36t75 12t75 -12t63.5 -36t43.5 -59t16 -80zM367 171q0 44 -10 75t-27 51t-39.5 29.5t-47.5 9.5t-47.5 -9.5t-39.5 -29.5t-27 -51t-10 -75q0 -43 10 -74
t27 -51t39.5 -29.5t47.5 -9.5t47.5 9.5t39.5 29.5t27 51t10 74zM360 450q-31 4 -62.5 18.5t-54.5 28.5q-23 -14 -55 -28.5t-62 -18.5l-1 8q29 19 60.5 45.5t57.5 55.5q26 -29 58 -55.5t60 -45.5z" />
    <glyph glyph-name="otilde" unicode="&#xf5;" horiz-adv-x="486" 
d="M441 171q0 -45 -16 -79.5t-43.5 -58t-63.5 -36t-75 -12.5t-75 12.5t-63.5 36t-43.5 58t-16 79.5t16 80t43.5 59t63.5 36t75 12t75 -12t63.5 -36t43.5 -59t16 -80zM367 171q0 44 -10 75t-27 51t-39.5 29.5t-47.5 9.5t-47.5 -9.5t-39.5 -29.5t-27 -51t-10 -75q0 -43 10 -74
t27 -51t39.5 -29.5t47.5 -9.5t47.5 9.5t39.5 29.5t27 51t10 74zM357 506q-7 -12 -17 -24.5t-23.5 -20t-32.5 -9t-44 7.5t-43.5 10.5t-31 -1.5t-20.5 -8.5t-11 -9.5l-4 7q7 13 17 25t24 20t32.5 9t43.5 -8q24 -9 42.5 -10.5t31.5 1t20.5 8t10.5 9.5z" />
    <glyph glyph-name="odieresis" unicode="&#xf6;" horiz-adv-x="486" 
d="M441 171q0 -45 -16 -79.5t-43.5 -58t-63.5 -36t-75 -12.5t-75 12.5t-63.5 36t-43.5 58t-16 79.5t16 80t43.5 59t63.5 36t75 12t75 -12t63.5 -36t43.5 -59t16 -80zM367 171q0 44 -10 75t-27 51t-39.5 29.5t-47.5 9.5t-47.5 -9.5t-39.5 -29.5t-27 -51t-10 -75q0 -43 10 -74
t27 -51t39.5 -29.5t47.5 -9.5t47.5 9.5t39.5 29.5t27 51t10 74zM355 502q0 -17 -11.5 -28t-28.5 -11q-16 0 -27.5 11t-11.5 28q0 16 11.5 27.5t27.5 11.5q17 0 28.5 -11.5t11.5 -27.5zM210 502q0 -17 -11.5 -28t-28.5 -11t-28 11t-11 28q0 16 11 27.5t28 11.5t28.5 -11.5
t11.5 -27.5z" />
    <glyph glyph-name="divide" unicode="&#xf7;" horiz-adv-x="541" 
d="M519 305q-55 1 -100.5 2t-78.5 1h-69h-70q-33 0 -78.5 -1t-100.5 -2v48q55 -2 100.5 -2.5t78.5 -0.5h70h69q33 0 78.5 0.5t100.5 2.5v-48zM319 156q0 -20 -14.5 -34.5t-34.5 -14.5q-21 0 -35.5 14.5t-14.5 34.5q0 21 14.5 35t35.5 14q20 0 34.5 -14t14.5 -35zM319 499
q0 -20 -14.5 -34.5t-34.5 -14.5q-21 0 -35.5 14.5t-14.5 34.5q0 21 14.5 35t35.5 14q20 0 34.5 -14t14.5 -35z" />
    <glyph glyph-name="oslash" unicode="&#xf8;" horiz-adv-x="486" 
d="M441 171q0 -45 -16 -79.5t-43.5 -58t-63.5 -36t-75 -12.5q-35 0 -66.5 9.5t-57.5 27.5l-57 -62l-20 18l57 60q-25 23 -39.5 56.5t-14.5 76.5q0 45 16 80t43.5 59t63.5 36t75 12q70 0 124 -37l57 62l20 -18l-58 -60q26 -23 40.5 -57t14.5 -77zM137 76q27 28 51.5 54l49 52
l49 52t50.5 54q-17 25 -42 36.5t-52 11.5q-25 0 -47.5 -9.5t-39.5 -29.5t-27 -51t-10 -75q0 -58 18 -95zM367 171q0 29 -5 53t-13 42q-53 -56 -100.5 -105.5t-99.5 -105.5q17 -25 41.5 -36.5t52.5 -11.5q25 0 47.5 9.5t39.5 29.5t27 51t10 74z" />
    <glyph glyph-name="ugrave" unicode="&#xf9;" 
d="M448 18q-22 -5 -51.5 -12.5t-47.5 -23.5l-3 3q2 24 3.5 45t1.5 41q-17 -40 -50 -63t-79 -23q-44 0 -73.5 12t-47.5 33.5t-25.5 52t-7.5 67.5v61v33v15t-0.5 8t-1 10.5t-0.5 22.5q-1 22 -11 30.5t-20 13.5l1 3q5 -1 18 -2t28 -1.5t28.5 0t21.5 2.5l-1.5 -36t-0.5 -28v-45
v-87q0 -72 23 -105.5t78 -33.5q47 0 77 26.5t44 75.5v37v37.5t-0.5 33.5t-1 36t-1.5 43q-1 22 -10.5 30.5t-20.5 13.5l1 3q6 -1 17.5 -2t25 -2t28 -0.5t26.5 3.5q-1 -24 -1.5 -51t-1 -53.5t-0.5 -50v-41.5v-20.5t0.5 -13.5t1 -18.5t1.5 -35.5q1 -21 11 -30.5t21 -9.5v-4z
M296 450q-17 3 -41 7.5t-49.5 11t-49.5 13.5t-42 14l22 53q34 -26 78.5 -51t83.5 -41z" />
    <glyph glyph-name="uacute" unicode="&#xfa;" 
d="M448 18q-22 -5 -51.5 -12.5t-47.5 -23.5l-3 3q2 24 3.5 45t1.5 41q-17 -40 -50 -63t-79 -23q-44 0 -73.5 12t-47.5 33.5t-25.5 52t-7.5 67.5v61v33v15t-0.5 8t-1 10.5t-0.5 22.5q-1 22 -11 30.5t-20 13.5l1 3q5 -1 18 -2t28 -1.5t28.5 0t21.5 2.5l-1.5 -36t-0.5 -28v-45
v-87q0 -72 23 -105.5t78 -33.5q47 0 77 26.5t44 75.5v37v37.5t-0.5 33.5t-1 36t-1.5 43q-1 22 -10.5 30.5t-20.5 13.5l1 3q6 -1 17.5 -2t25 -2t28 -0.5t26.5 3.5q-1 -24 -1.5 -51t-1 -53.5t-0.5 -50v-41.5v-20.5t0.5 -13.5t1 -18.5t1.5 -35.5q1 -21 11 -30.5t21 -9.5v-4z
M368 496q-17 -7 -41 -14t-49.5 -13.5t-49.5 -11t-41 -7.5l-3 7q40 16 84.5 41t78.5 51z" />
    <glyph glyph-name="ucircumflex" unicode="&#xfb;" 
d="M448 18q-22 -5 -51.5 -12.5t-47.5 -23.5l-3 3q2 24 3.5 45t1.5 41q-17 -40 -50 -63t-79 -23q-44 0 -73.5 12t-47.5 33.5t-25.5 52t-7.5 67.5v61v33v15t-0.5 8t-1 10.5t-0.5 22.5q-1 22 -11 30.5t-20 13.5l1 3q5 -1 18 -2t28 -1.5t28.5 0t21.5 2.5l-1.5 -36t-0.5 -28v-45
v-87q0 -72 23 -105.5t78 -33.5q47 0 77 26.5t44 75.5v37v37.5t-0.5 33.5t-1 36t-1.5 43q-1 22 -10.5 30.5t-20.5 13.5l1 3q6 -1 17.5 -2t25 -2t28 -0.5t26.5 3.5q-1 -24 -1.5 -51t-1 -53.5t-0.5 -50v-41.5v-20.5t0.5 -13.5t1 -18.5t1.5 -35.5q1 -21 11 -30.5t21 -9.5v-4z
M358 450q-31 4 -62.5 18.5t-54.5 28.5q-23 -14 -55 -28.5t-62 -18.5l-1 8q29 19 60.5 45.5t57.5 55.5q26 -29 58 -55.5t60 -45.5z" />
    <glyph glyph-name="udieresis" unicode="&#xfc;" 
d="M448 18q-22 -5 -51.5 -12.5t-47.5 -23.5l-3 3q2 24 3.5 45t1.5 41q-17 -40 -50 -63t-79 -23q-44 0 -73.5 12t-47.5 33.5t-25.5 52t-7.5 67.5v61v33v15t-0.5 8t-1 10.5t-0.5 22.5q-1 22 -11 30.5t-20 13.5l1 3q5 -1 18 -2t28 -1.5t28.5 0t21.5 2.5l-1.5 -36t-0.5 -28v-45
v-87q0 -72 23 -105.5t78 -33.5q47 0 77 26.5t44 75.5v37v37.5t-0.5 33.5t-1 36t-1.5 43q-1 22 -10.5 30.5t-20.5 13.5l1 3q6 -1 17.5 -2t25 -2t28 -0.5t26.5 3.5q-1 -24 -1.5 -51t-1 -53.5t-0.5 -50v-41.5v-20.5t0.5 -13.5t1 -18.5t1.5 -35.5q1 -21 11 -30.5t21 -9.5v-4z
M353 502q0 -17 -11.5 -28t-28.5 -11q-16 0 -27.5 11t-11.5 28q0 16 11.5 27.5t27.5 11.5q17 0 28.5 -11.5t11.5 -27.5zM208 502q0 -17 -11.5 -28t-28.5 -11t-28 11t-11 28q0 16 11 27.5t28 11.5t28.5 -11.5t11.5 -27.5z" />
    <glyph glyph-name="yacute" unicode="&#xfd;" horiz-adv-x="396" 
d="M401 344q-12 -5 -23 -14.5t-20 -27.5l-18.5 -37t-18 -37t-22 -45.5t-29.5 -61.5q-20 -43 -42.5 -91t-42.5 -92t-36.5 -79t-24.5 -53q-30 6 -67 0l-3 7q48 30 78.5 79t53.5 98q-8 19 -19.5 44t-24.5 52.5t-26 55.5t-24 53l-49 101q-10 17 -23 29.5t-24 17.5v3
q6 -1 14.5 -1.5t18 -1t18.5 -0.5h15h15t19 0.5t19 1t14 1.5v-3l-9 -4.5t-9 -6.5t-5 -9.5t2 -14.5q8 -20 13.5 -31.5t10 -21.5t9 -20.5t12.5 -27.5q19 -41 34.5 -73.5t34.5 -73.5q9 21 14.5 33t10.5 23t11.5 25.5t18.5 39.5q15 34 23.5 53.5t14 31.5t9 21t8.5 22
q4 9 2.5 14.5t-6 9.5t-10 6.5t-9.5 4.5l1 3q21 -3 45 -3q22 0 46 3v-3zM325 496q-17 -7 -41 -14t-49.5 -13.5t-49.5 -11t-41 -7.5l-3 7q40 16 84.5 41t78.5 51z" />
    <glyph glyph-name="thorn" unicode="&#xfe;" horiz-adv-x="486" 
d="M441 171q0 -45 -15.5 -80t-42.5 -58.5t-62.5 -35.5t-75.5 -12q-27 0 -57 8.5t-56 24.5q0 -20 0.5 -46t0.5 -43q1 -28 3.5 -48.5t6.5 -47.5q2 -12 9 -16.5t14 -8.5l-1 -4q-11 2 -32 3t-32 1q-12 0 -32 -1t-31 -3l-1 4q10 5 20 13.5t11 29.5q1 24 1.5 67.5t1 96t0.5 109
v106.5v232t-2 139q-1 21 -11 30t-21 9l-1 4q27 5 54 12.5t44 19.5l4 -2q-2 -24 -3 -61.5t-1.5 -84t-0.5 -101v-111.5q10 6 24 13.5t30 14t32.5 10.5t31.5 4q38 0 72.5 -12t60.5 -36t41.5 -59t15.5 -80zM370 171q0 38 -12 67.5t-31 49.5t-43 30.5t-49 10.5q-35 0 -60 -9.5
t-42 -23.5q-1 -25 -1 -53.5v-57.5v-56.5v-51.5v-37q20 -15 45.5 -24t59.5 -9q27 0 51 11t42.5 32t29 51.5t10.5 69.5z" />
    <glyph glyph-name="ydieresis" unicode="&#xff;" horiz-adv-x="396" 
d="M401 344q-12 -5 -23 -14.5t-20 -27.5l-18.5 -37t-18 -37t-22 -45.5t-29.5 -61.5q-20 -43 -42.5 -91t-42.5 -92t-36.5 -79t-24.5 -53q-30 6 -67 0l-3 7q48 30 78.5 79t53.5 98q-8 19 -19.5 44t-24.5 52.5t-26 55.5t-24 53l-49 101q-10 17 -23 29.5t-24 17.5v3
q6 -1 14.5 -1.5t18 -1t18.5 -0.5h15h15t19 0.5t19 1t14 1.5v-3l-9 -4.5t-9 -6.5t-5 -9.5t2 -14.5q8 -20 13.5 -31.5t10 -21.5t9 -20.5t12.5 -27.5q19 -41 34.5 -73.5t34.5 -73.5q9 21 14.5 33t10.5 23t11.5 25.5t18.5 39.5q15 34 23.5 53.5t14 31.5t9 21t8.5 22
q4 9 2.5 14.5t-6 9.5t-10 6.5t-9.5 4.5l1 3q21 -3 45 -3q22 0 46 3v-3zM310 502q0 -17 -11.5 -28t-28.5 -11q-16 0 -27.5 11t-11.5 28q0 16 11.5 27.5t27.5 11.5q17 0 28.5 -11.5t11.5 -27.5zM165 502q0 -17 -11.5 -28t-28.5 -11t-28 11t-11 28q0 16 11 27.5t28 11.5
t28.5 -11.5t11.5 -27.5z" />
    <glyph glyph-name="dotlessi" unicode="&#x131;" horiz-adv-x="200" 
d="M165 -4q-11 2 -32 3t-32 1q-12 0 -32 -1t-31 -3l-1 4q10 5 20 13.5t11 29.5q2 49 2.5 82t0.5 68v21.5t-0.5 13t-1 18t-1.5 35.5q-1 22 -11 30.5t-21 8.5l-1 5q11 3 24.5 6t27 7t25.5 9.5t21 13.5l4 -3q-4 -48 -4.5 -87t-0.5 -78v-37v-34t0.5 -36t1.5 -43
q2 -21 11.5 -29.5t20.5 -13.5z" />
    <glyph glyph-name="OE" unicode="&#x152;" horiz-adv-x="1036" 
d="M1019 78q-2 -4 -7.5 -15.5t-11.5 -24t-11 -23.5t-5 -15h-367h-15.5t-19.5 -0.5t-19 -1.5t-15 -2q-52 -16 -113 -16q-73 0 -138 24.5t-114.5 70t-78.5 109.5t-29 144q0 79 29 143.5t78.5 110t114.5 70t138 24.5q59 0 113 -15q6 -2 15 -2.5t19 -1.5t19.5 -1h15.5h333
q0 -5 3 -15.5t7 -22.5t7.5 -23.5t5.5 -16.5l-4 -5q-28 24 -62.5 37.5t-74.5 19.5t-84.5 6t-90.5 -3q-1 -30 -1.5 -58.5t-0.5 -61v-72.5v-92q84 1 131 3t71.5 6.5t32 12.5t12.5 21l4 -1q-2 -14 -3 -26t-1 -27q0 -16 1 -27t3 -25l-4 -3q-5 13 -13 21.5t-32 13.5t-71 6.5
t-131 1.5v-151.5t2 -150.5q51 -2 102.5 -1t98 7t87 18.5t70.5 34.5zM579 328v93v71.5t-0.5 56t-1.5 47.5v8q-63 42 -142 42q-56 0 -106 -22t-88 -63t-60 -100t-22 -133t22 -133t60 -100t88 -63t106 -22q77 0 142 43v7q1 23 1.5 48t0.5 56v71v93z" />
    <glyph glyph-name="oe" unicode="&#x153;" horiz-adv-x="764" 
d="M447 232q-2 -14 -4 -29t-2 -32q0 -43 14.5 -72t36.5 -46.5t47 -25t46 -7.5q46 0 72.5 9.5t49.5 29.5v-11q-9 -11 -23.5 -22t-33.5 -20t-40.5 -15t-45.5 -6q-53 0 -94.5 23.5t-64.5 66.5q-23 -44 -65.5 -67t-96.5 -23q-39 0 -75 12.5t-63.5 36t-43.5 58t-16 79.5t16 80
t43.5 59t63.5 36t75 12q54 0 96.5 -22.5t65.5 -66.5q23 42 64 65.5t95 23.5q41 0 71.5 -11.5t50.5 -29.5t30 -40.5t10 -44.5h-279zM646 261q0 10 -3 23t-12 24t-25 19t-42 8q-45 0 -72.5 -22t-39.5 -61zM367 171q0 44 -10 75t-27 51t-39.5 29.5t-47.5 9.5t-47.5 -9.5
t-39.5 -29.5t-27 -51t-10 -75q0 -43 10 -74t27 -51t39.5 -29.5t47.5 -9.5t47.5 9.5t39.5 29.5t27 51t10 74z" />
    <glyph glyph-name="Scaron" unicode="&#x160;" horiz-adv-x="569" 
d="M500 174q0 -45 -18.5 -81t-50 -61t-72.5 -38.5t-86 -13.5q-27 0 -54 5t-52 14t-46.5 21t-36.5 26l-17 97l8 4q18 -35 41 -61t49.5 -43t55 -25.5t55.5 -8.5q34 0 62.5 10.5t48.5 29.5t31.5 45t11.5 58q0 47 -25.5 77.5t-64.5 52t-83.5 39t-83.5 40t-64.5 54t-25.5 81.5
q0 44 16 78t43.5 56.5t64.5 34t79 11.5q57 0 97 -13.5t67 -38.5l9 -83l-4 -5q-31 62 -76.5 86t-98.5 24q-28 0 -52.5 -8t-42.5 -22.5t-28 -36t-10 -48.5q0 -44 26 -70t65.5 -45.5t85 -36.5t85 -42t65.5 -63.5t26 -99.5zM401 862q-28 -19 -60 -45t-58 -55q-26 29 -57.5 55
t-60.5 45l1 9q30 -4 62 -18.5t55 -28.5q23 14 54.5 28.5t62.5 18.5z" />
    <glyph glyph-name="scaron" unicode="&#x161;" horiz-adv-x="381" 
d="M336 93q0 -24 -11.5 -44t-32 -34.5t-47.5 -22t-57 -7.5q-37 0 -74 11t-57 25l-14 69l5 1q24 -42 61 -62.5t83 -20.5q44 0 67 18.5t23 46.5q0 25 -16.5 39.5t-42 24t-54.5 16.5t-54.5 18.5t-42 30t-16.5 50.5q0 27 11 46.5t30 33t42.5 20t49.5 6.5q38 0 67 -7.5t46 -21.5
l13 -58l-5 -2q-23 37 -52.5 52t-68.5 15q-34 0 -57.5 -14t-23.5 -43q0 -24 17 -36.5t42 -21t55 -16t55 -20.5t42 -34.5t17 -57.5zM307 550q-28 -19 -60 -45t-58 -55q-26 29 -57.5 55t-60.5 45l1 9q30 -4 62 -18.5t55 -28.5q23 14 54.5 28.5t62.5 18.5z" />
    <glyph glyph-name="Ydieresis" unicode="&#x178;" horiz-adv-x="561" 
d="M595 656q-14 -4 -30.5 -18.5t-31.5 -33.5q-17 -22 -29 -39t-25.5 -35.5t-31.5 -43.5t-46 -62l-84 -115v-99v-69t0.5 -51.5t1.5 -46.5q1 -21 11 -29.5t21 -13.5l-2 -4q-5 1 -14.5 2t-20 1.5t-20 0.5h-15.5h-16t-20.5 -0.5t-20 -1.5t-14.5 -2l-1 4q11 5 20.5 13.5t9.5 29.5
q1 23 2 45.5t1 51.5v68v96l-88 120q-27 37 -46 64t-33 46.5t-24.5 34t-21.5 28.5q-14 20 -30.5 37.5t-30.5 21.5l2 5q7 -2 17.5 -2.5t21.5 -1.5t21.5 -1h17.5h21t29 1t27.5 1.5t18.5 2.5l1 -5q-5 -2 -12 -4.5t-12.5 -6.5t-7.5 -10.5t4 -16.5q14 -23 26.5 -42t27 -40.5
t33.5 -48t46 -63.5l60 -85q14 20 28.5 41t34.5 47q22 30 38 52t30 42t28.5 42t34.5 52q6 10 5.5 17t-5.5 11.5t-11.5 7.5t-12.5 5l1 5q13 -3 30 -4t31 -1q15 0 27.5 1t26.5 4zM392 814q0 -17 -11.5 -28t-28.5 -11q-16 0 -27.5 11t-11.5 28q0 16 11.5 27.5t27.5 11.5
q17 0 28.5 -11.5t11.5 -27.5zM247 814q0 -17 -11.5 -28t-28.5 -11t-28 11t-11 28q0 16 11 27.5t28 11.5t28.5 -11.5t11.5 -27.5z" />
    <glyph glyph-name="Zcaron" unicode="&#x17d;" horiz-adv-x="647" 
d="M608 84q-3 -6 -8.5 -17.5t-11 -24t-10.5 -24t-6 -18.5h-523l-4 7q35 49 89 126.5t134 194.5q40 58 71 104t55.5 82.5t44 65.5t35.5 53q-49 1 -108 0.5t-116 -6.5t-106 -20t-78 -40l-6 3q3 7 9 19t11.5 25.5t10 25t5.5 16.5h480l4 -10q-35 -48 -87.5 -124.5t-131.5 -193.5
q-40 -59 -71.5 -104.5t-56.5 -82t-44.5 -65t-35.5 -52.5q49 -2 113 -1.5t128 6.5t120 19.5t89 39.5zM444 862q-28 -19 -60 -45t-58 -55q-26 29 -57.5 55t-60.5 45l1 9q30 -4 62 -18.5t55 -28.5q23 14 54.5 28.5t62.5 18.5z" />
    <glyph glyph-name="zcaron" unicode="&#x17e;" horiz-adv-x="363" 
d="M334 57l-14 -57h-295l-3 3q12 16 28 37.5t32.5 44.5t32 44.5t27.5 38.5q32 43 60 83t52 78q-57 -2 -108.5 -11t-96.5 -32l-4 2l12 56h272l1 -5q-24 -32 -55 -76t-67 -95q-22 -30 -51 -71.5t-57 -81.5q59 1 118.5 11.5t109.5 33.5zM296 550q-28 -19 -60 -45t-58 -55
q-26 29 -57.5 55t-60.5 45l1 9q30 -4 62 -18.5t55 -28.5q23 14 54.5 28.5t62.5 18.5z" />
    <glyph glyph-name="florin" unicode="&#x192;" horiz-adv-x="438" 
d="M589 598l-5 -3q-17 32 -43.5 43.5t-53.5 11.5t-54.5 -10.5t-54 -37.5t-49.5 -73.5t-39 -118.5l-32 -143q25 0 64.5 0.5t88.5 1.5v-32q-52 2 -92.5 2.5t-66.5 0.5l-25 -110q-15 -70 -41 -120.5t-58.5 -83t-71 -48t-78.5 -15.5q-35 0 -65.5 10.5t-46.5 27.5l-4 41l6 3
q17 -33 43.5 -44t52.5 -11q27 0 53 10.5t50 37.5t44.5 73.5t37.5 118.5l25 110q-26 0 -65 -0.5t-87 -2.5v32q51 -1 91.5 -1.5t65.5 -0.5l33 143q16 68 43 118t62 83t75 49t82 16q35 0 66 -10t46 -28z" />
    <glyph glyph-name="circumflex" unicode="&#x2c6;" horiz-adv-x="267" 
d="M250 450q-31 4 -62.5 18.5t-54.5 28.5q-23 -14 -55 -28.5t-62 -18.5l-1 8q29 19 60.5 45.5t57.5 55.5q26 -29 58 -55.5t60 -45.5z" />
    <glyph glyph-name="caron" unicode="&#x2c7;" horiz-adv-x="267" 
d="M251 550q-28 -19 -60 -45t-58 -55q-26 29 -57.5 55t-60.5 45l1 9q30 -4 62 -18.5t55 -28.5q23 14 54.5 28.5t62.5 18.5z" />
    <glyph glyph-name="ring" unicode="&#x2da;" horiz-adv-x="178" 
d="M164 502q0 -32 -22 -53t-52 -21q-32 0 -53.5 21t-21.5 53q0 30 21.5 52t53.5 22q30 0 52 -22t22 -52zM141 502q0 21 -15 36t-36 15q-23 0 -38 -15t-15 -36q0 -22 15 -37.5t38 -15.5q21 0 36 15.5t15 37.5z" />
    <glyph glyph-name="tilde" unicode="&#x2dc;" horiz-adv-x="256" 
d="M242 506q-7 -12 -17 -24.5t-23.5 -20t-32.5 -9t-44 7.5t-43.5 10.5t-31 -1.5t-20.5 -8.5t-11 -9.5l-4 7q7 13 17 25t24 20t32.5 9t43.5 -8q24 -9 42.5 -10.5t31.5 1t20.5 8t10.5 9.5z" />
    <glyph glyph-name="endash" unicode="&#x2013;" horiz-adv-x="541" 
d="M519 185q-55 1 -100.5 2t-78.5 1h-69h-70q-33 0 -78.5 -1t-100.5 -2v48q55 -2 100.5 -2.5t78.5 -0.5h70h69q33 0 78.5 0.5t100.5 2.5v-48z" />
    <glyph glyph-name="emdash" unicode="&#x2014;" horiz-adv-x="790" 
d="M767 185q-82 1 -150 2t-118 1h-104h-104q-50 0 -118.5 -1t-150.5 -2v48q82 -2 150.5 -2.5t118.5 -0.5h104h104q50 0 118 0.5t150 2.5v-48z" />
    <glyph glyph-name="quoteleft" unicode="&#x2018;" horiz-adv-x="218" 
d="M158 441q0 -21 -14.5 -35t-34.5 -14q-19 0 -31.5 9.5t-19 24.5t-9 33.5t-2.5 36.5q0 48 24.5 92.5t68.5 74.5l8 -9q-43 -33 -58 -76t-7 -81q2 -3 3 -6t4 -6q4 2 9 4t10 2q20 0 34.5 -15t14.5 -35z" />
    <glyph glyph-name="quoteright" unicode="&#x2019;" horiz-adv-x="218" 
d="M171 558q-1 -48 -25 -92t-68 -74l-7 9q43 33 58 76t5 81q-2 7 -6 12q-4 -2 -8.5 -4t-9.5 -2q-21 0 -35.5 15t-14.5 35q0 21 14.5 35t35.5 14q19 0 31 -10t18.5 -25t9 -33.5t2.5 -36.5z" />
    <glyph glyph-name="quotesinglbase" unicode="&#x201a;" horiz-adv-x="218" 
d="M171 -17q-1 -48 -25 -91.5t-68 -75.5l-7 10q43 33 58 76t5 81q-1 4 -2.5 6.5t-3.5 6.5q-8 -6 -18 -6q-21 0 -35.5 14.5t-14.5 34.5q0 21 14.5 35t35.5 14q19 0 31 -10t18.5 -25t9 -33.5t2.5 -36.5z" />
    <glyph glyph-name="quotedblleft" unicode="&#x201c;" horiz-adv-x="365" 
d="M305 441q0 -21 -14.5 -35t-35.5 -14q-18 0 -30 9.5t-19 24.5t-9.5 33.5t-2.5 36.5q1 48 25.5 92.5t67.5 74.5l8 -9q-44 -33 -59 -76t-5 -81q1 -6 6 -12q4 2 8.5 4t9.5 2q21 0 35.5 -15t14.5 -35zM158 441q0 -21 -14.5 -35t-34.5 -14q-19 0 -31.5 9.5t-19 24.5t-9 33.5
t-2.5 36.5q0 48 24.5 92.5t68.5 74.5l8 -9q-43 -33 -58 -76t-7 -81q2 -3 3 -6t4 -6q4 2 9 4t10 2q20 0 34.5 -15t14.5 -35z" />
    <glyph glyph-name="quotedblright" unicode="&#x201d;" horiz-adv-x="365" 
d="M318 558q0 -48 -24.5 -92t-68.5 -74l-8 9q45 33 59 76t6 81q-2 7 -6 12l-10 -4t-10 -2q-20 0 -34.5 15t-14.5 35q0 21 14.5 35t34.5 14q19 0 31.5 -10t19 -25t9 -33.5t2.5 -36.5zM171 558q-1 -48 -25 -92t-68 -74l-7 9q43 33 58 76t5 81q-2 7 -6 12q-4 -2 -8.5 -4
t-9.5 -2q-21 0 -35.5 15t-14.5 35q0 21 14.5 35t35.5 14q19 0 31 -10t18.5 -25t9 -33.5t2.5 -36.5z" />
    <glyph glyph-name="quotedblbase" unicode="&#x201e;" horiz-adv-x="365" 
d="M318 -17q0 -48 -24.5 -91.5t-68.5 -75.5l-8 10q44 33 59.5 76t5.5 81q-1 4 -2.5 6.5t-3.5 6.5q-9 -6 -20 -6q-20 0 -34.5 14.5t-14.5 34.5q0 21 14.5 35t34.5 14q19 0 31.5 -10t19 -25t9 -33.5t2.5 -36.5zM171 -17q-1 -48 -25 -91.5t-68 -75.5l-7 10q43 33 58 76t5 81
q-1 4 -2.5 6.5t-3.5 6.5q-8 -6 -18 -6q-21 0 -35.5 14.5t-14.5 34.5q0 21 14.5 35t35.5 14q19 0 31 -10t18.5 -25t9 -33.5t2.5 -36.5z" />
    <glyph glyph-name="dagger" unicode="&#x2020;" horiz-adv-x="319" 
d="M291 517q-42 -5 -72.5 -7.5t-46.5 -3.5q-1 -20 2.5 -47t20.5 -48q0 -27 -4 -58q-3 -26 -9 -59.5t-16 -68.5h-14q-10 35 -15 68.5t-8 59.5q-4 31 -5 58q8 7 12.5 19t7 25.5t2.5 26.5v24q-16 1 -46.5 3.5t-71.5 7.5v36q41 -9 71 -13t45 -5q0 9 -0.5 23t-2 30.5t-4.5 34
t-7 33.5h58q-4 -16 -6.5 -33.5t-4 -34t-2.5 -30.5t-1 -23q16 1 46 5t71 13v-36z" />
    <glyph glyph-name="daggerdbl" unicode="&#x2021;" horiz-adv-x="319" 
d="M291 517q-41 -5 -71 -7.5t-45 -3.5q2 -14 6.5 -27t13.5 -22q0 -20 -4 -40q-3 -17 -9 -37.5t-16 -37.5h-14q-10 17 -15 37.5t-8 37.5q-4 20 -5 40q10 7 14 20.5t6 28.5q-16 1 -46 3.5t-70 7.5v36q41 -10 71.5 -13.5t46.5 -4.5q0 8 -1 14t-1 10q0 16 -2 33q-2 14 -4.5 31
t-7.5 33h58q-5 -16 -7.5 -33t-4.5 -31q-2 -17 -2 -33v-10t-2 -14q16 1 46.5 4.5t72.5 13.5v-36zM291 103q-42 9 -72.5 13t-46.5 5q2 -8 2 -14v-10q0 -16 2 -33l4.5 -31.5t7.5 -32.5h-58q5 15 7.5 32.5l4.5 31.5q2 17 2 33q0 4 1 10t1 14q-16 -1 -46.5 -5t-71.5 -13v36
q40 6 70 8t46 3q-2 15 -6 28.5t-14 20.5q1 20 5 40q3 17 8 37.5t15 38.5h14q10 -18 16 -38.5t9 -37.5q4 -20 4 -40q-9 -8 -13.5 -21.5t-6.5 -27.5l45 -3t71 -8v-36z" />
    <glyph glyph-name="bullet" unicode="&#x2022;" horiz-adv-x="321" 
d="M281 328q0 -25 -9.5 -47t-26 -38.5t-38.5 -26t-47 -9.5t-46.5 9.5t-38 26t-26 38.5t-9.5 47t9.5 47t26 38.5t38 26t46.5 9.5t47 -9.5t38.5 -26t26 -38.5t9.5 -47z" />
    <glyph glyph-name="ellipsis" unicode="&#x2026;" horiz-adv-x="656" 
d="M596 39q0 -20 -14 -34.5t-35 -14.5q-20 0 -35 14.5t-15 34.5q0 21 15 35t35 14q21 0 35 -14t14 -35zM377 39q0 -20 -14.5 -34.5t-34.5 -14.5t-34.5 14.5t-14.5 34.5q0 21 14.5 35t34.5 14t34.5 -14t14.5 -35zM159 39q0 -20 -14.5 -34.5t-34.5 -14.5q-21 0 -35.5 14.5
t-14.5 34.5q0 21 14.5 35t35.5 14q20 0 34.5 -14t14.5 -35z" />
    <glyph glyph-name="perthousand" unicode="&#x2030;" horiz-adv-x="1053" 
d="M1012 128q0 -33 -12.5 -59.5t-33 -45t-47 -28.5t-55.5 -10t-56 10t-47.5 28.5t-33 45t-12.5 59.5t12.5 59t33 44.5t47.5 28.5t56 10t55.5 -10t47 -28.5t33 -44.5t12.5 -59zM674 128q0 -33 -12.5 -59.5t-33 -45t-47.5 -28.5t-56 -10t-56 10t-48 28.5t-33.5 45t-12.5 59.5
t12.5 59t33.5 44.5t48 28.5t56 10t56 -10t47.5 -28.5t33 -44.5t12.5 -59zM522 654q-33 -74 -59.5 -135t-46.5 -106q-23 -52 -41 -93q-17 -41 -39 -93q-19 -45 -44.5 -106.5t-56.5 -136.5l-42 18q32 74 58.5 134.5t46.5 105.5q22 52 40 94q16 37 36 85q17 41 40.5 97
t52.5 125q-13 -11 -32 -18.5t-41 -10.5t-44.5 -2.5t-42.5 6.5q31 -36 31 -89q0 -33 -12.5 -59.5t-33 -45t-47.5 -28.5t-56 -10t-56 10t-47.5 28.5t-33 45t-12.5 59.5t12.5 59t33 44.5t47.5 28.5t56 10q51 0 91 -28q21 -7 48 -11t54.5 -1.5t53 12t42.5 29.5zM949 128
q0 59 -24 91t-61 32q-38 0 -62 -32t-24 -91q0 -60 24 -92t62 -32q37 0 61 32t24 92zM274 529q0 59 -23.5 91.5t-61.5 32.5q-37 0 -61 -32.5t-24 -91.5q0 -60 24 -92t61 -32q38 0 61.5 32t23.5 92zM609 128q0 59 -23 91t-61 32t-61.5 -32t-23.5 -91q0 -60 23.5 -92t61.5 -32
t61 32t23 92z" />
    <glyph glyph-name="guilsinglleft" unicode="&#x2039;" horiz-adv-x="244" 
d="M208 84q-18 20 -43.5 44t-51 46t-48 40t-35.5 26v4q51 34 96.5 74.5t81.5 82.5l6 -2q-7 -41 -34 -83.5t-55 -73.5q28 -32 55 -74t34 -83z" />
    <glyph glyph-name="guilsinglright" unicode="&#x203a;" horiz-adv-x="244" 
d="M214 240q-51 -34 -96.5 -74.5t-81.5 -81.5l-6 1q7 41 34 83t55 74q-28 31 -55 73.5t-34 83.5l6 2q18 -21 43 -45t50.5 -46.5t48.5 -40t36 -25.5v-4z" />
    <glyph glyph-name="fraction" unicode="&#x2044;" horiz-adv-x="105" 
d="M217 654q-33 -74 -59.5 -135t-46.5 -106q-23 -52 -41 -93q-17 -41 -39 -93q-19 -45 -44.5 -106.5t-56.5 -136.5l-42 18q32 74 58.5 134.5t46.5 105.5q22 52 40 94t40 94q19 45 44.5 106t55.5 136z" />
    <glyph glyph-name="Euro" unicode="&#x20ac;" horiz-adv-x="670" 
d="M616 136l-1 -52q-41 -50 -89 -77t-118 -27q-51 0 -98 19t-85 54.5t-65 86.5t-37 114l-98 -2v31q26 0 50 -0.5t45 -0.5q-2 11 -2 22.5v23.5v21.5t1 21.5q-20 0 -44 -0.5t-50 -0.5v31l98 -2q10 64 36 115.5t64.5 87.5t85.5 55t99 19q66 0 115 -24t90 -73l2 -82l-6 -2
q-31 77 -82 114t-119 37q-78 0 -132.5 -66t-68.5 -181h29h37.5h73.5t87 0.5t80 1.5v-31q-35 1 -80 1.5t-87 0.5h-73.5h-37.5h-31q-1 -11 -1.5 -21.5t-0.5 -22.5q0 -13 0.5 -24.5t1.5 -22.5h31h37.5h73.5t87 0.5t80 1.5v-31q-35 1 -80 1.5t-87 0.5h-73.5h-37.5h-29
q7 -57 25 -102t44.5 -76.5t60 -48.5t71.5 -17q72 0 117 31t84 97z" />
    <glyph glyph-name="trademark" unicode="&#x2122;" horiz-adv-x="556" 
d="M505 433q-2 1 -6.5 1.5t-10.5 1t-11 0.5h-7q-4 0 -17.5 -0.5t-16.5 -2.5l-1 7q3 2 8.5 4.5t6.5 9.5v156q-5 -12 -11.5 -27t-17.5 -38l-47 -101h-17l-47 101l-33 71v-71q0 -37 0.5 -56t1.5 -35q0 -7 5.5 -9.5t8.5 -4.5v-7q-3 2 -11.5 2.5t-11.5 0.5q-5 0 -13.5 -0.5
t-12.5 -2.5l-1 7q4 2 9.5 4.5t6.5 9.5q0 16 0.5 35t0.5 56q0 38 0.5 57.5t-0.5 34.5q0 7 -5.5 9.5t-9.5 5.5v5q3 0 15 -0.5t17 -0.5h13.5t11.5 1l41 -96q7 -15 12 -24.5t8.5 -17.5t6.5 -14.5t7 -15.5q8 17 14.5 32t18.5 39q14 29 24 55t17 42q2 -1 10 -1h13q4 0 16.5 0.5
t14.5 0.5v-5q-3 -2 -8.5 -4.5t-5.5 -10.5q-2 -15 -2 -34.5v-57.5v-56t2 -35q0 -7 5.5 -9.5t8.5 -4.5v-7zM221 620q-17 11 -33 16.5t-42 5.5v-97v-56t1 -35q0 -7 5.5 -9.5t8.5 -4.5v-7q-3 2 -16.5 2.5t-16.5 0.5h-7.5t-11.5 -0.5t-11 -1t-6 -1.5l-1 7q3 2 8.5 4.5t6.5 9.5
v188q-26 0 -42 -5.5t-33 -16.5l-1 2q0 1 1 6.5l2 11t1.5 10.5t0.5 6h182q0 -1 0.5 -6t1.5 -10.5l2 -11t2 -6.5z" />
    <glyph glyph-name="glyph217" horiz-adv-x="251" 
d="M180 221q-8 2 -24.5 2.5t-24.5 0.5q-7 0 -24.5 -1t-27.5 -3l1 10q7 5 13 9.5t7 15.5q1 29 1 73v112v145q-15 -6 -33.5 -12t-37.5 -11l-2 11q32 20 67.5 45.5t58.5 50.5h9q-2 -31 -2 -91.5v-137.5v-65.5v-49t0.5 -38t1.5 -32.5q0 -11 6.5 -16t14.5 -10z" />
    <glyph glyph-name="glyph218" horiz-adv-x="351" 
d="M92 211q-32 0 -59 6l-6 27q27 -11 63 -11q25 0 53.5 6.5t51.5 21.5t38.5 40.5t15.5 63.5q0 46 -28.5 68.5t-68.5 22.5q-13 0 -27.5 -4t-29.5 -11l-10 20q60 18 91 44.5t31 65.5q0 31 -20 46t-51 15q-35 0 -60.5 -16t-45.5 -36l-13 10q24 31 62 55t83 24q51 0 76.5 -22
t25.5 -59q0 -29 -20 -52.5t-49 -40.5q54 -5 85.5 -38t31.5 -82q0 -36 -18.5 -66t-49.5 -52t-70.5 -34t-81.5 -12z" />
    <glyph glyph-name="glyph220" horiz-adv-x="364" 
d="M331 67q-5 -8 -9 -18t-7.5 -19.5t-6 -17.5t-3.5 -12h-268l-2 9q27 25 63.5 60.5t70 76t57 84t23.5 84.5q0 42 -23 64t-65 22q-34 0 -60 -17t-51 -44l-12 8q11 19 26.5 37t34 31.5t40 21.5t43.5 8q34 0 58.5 -9t40.5 -25t23.5 -37.5t7.5 -46.5q0 -38 -20.5 -75.5t-51 -73
t-66.5 -68t-66 -58.5q11 -1 25 -0.5t28 0.5q22 0 43.5 0.5t40.5 1.5t33 2t20 3q10 3 13.5 4.5t10.5 5.5z" />
    <glyph glyph-name="glyph221" horiz-adv-x="333" 
d="M322 134h-67q0 -35 0.5 -58t1.5 -45q2 -12 8 -18t14 -12l-3 -4q-8 2 -25 2.5t-25 0.5t-25 -1t-28 -3l1 10q8 4 14 9t7 16q0 26 0.5 51.5t0.5 51.5h-181l-4 13l229 298h17q-2 -31 -2 -91.5v-137.5v-59h67v-23zM196 157v196l-148 -196h148z" />
    <glyph glyph-name="glyph228" horiz-adv-x="0" 
 />
  </font>
</defs>
</svg>
